<?xml version="1.0" encoding="utf-8"?>
<svg xmlns="http://www.w3.org/2000/svg" xmlns:xlink="http://www.w3.org/1999/xlink" width="900" height="400" viewBox="0 0 3600 1600">
<defs>
  <clipPath id="clip460">
    <rect x="0" y="0" width="3600" height="1600"/>
  </clipPath>
</defs>
<path clip-path="url(#clip460)" d="M0 1600 L3600 1600 L3600 0 L0 0  Z" fill="#ffffff" fill-rule="evenodd" fill-opacity="1"/>
<defs>
  <clipPath id="clip461">
    <rect x="720" y="0" width="2521" height="1600"/>
  </clipPath>
</defs>
<path clip-path="url(#clip460)" d="M349.217 1308.81 L1748.77 1308.81 L1748.77 103.312 L349.217 103.312  Z" fill="#ffffff" fill-rule="evenodd" fill-opacity="1"/>
<defs>
  <clipPath id="clip462">
    <rect x="349" y="103" width="1401" height="1206"/>
  </clipPath>
</defs>
<polyline clip-path="url(#clip462)" style="stroke:#000000; stroke-linecap:round; stroke-linejoin:round; stroke-width:2; stroke-opacity:0.1; fill:none" points="388.827,1308.81 388.827,103.312 "/>
<polyline clip-path="url(#clip462)" style="stroke:#000000; stroke-linecap:round; stroke-linejoin:round; stroke-width:2; stroke-opacity:0.1; fill:none" points="718.911,1308.81 718.911,103.312 "/>
<polyline clip-path="url(#clip462)" style="stroke:#000000; stroke-linecap:round; stroke-linejoin:round; stroke-width:2; stroke-opacity:0.1; fill:none" points="1049,1308.81 1049,103.312 "/>
<polyline clip-path="url(#clip462)" style="stroke:#000000; stroke-linecap:round; stroke-linejoin:round; stroke-width:2; stroke-opacity:0.1; fill:none" points="1379.08,1308.81 1379.08,103.312 "/>
<polyline clip-path="url(#clip462)" style="stroke:#000000; stroke-linecap:round; stroke-linejoin:round; stroke-width:2; stroke-opacity:0.1; fill:none" points="1709.16,1308.81 1709.16,103.312 "/>
<polyline clip-path="url(#clip460)" style="stroke:#000000; stroke-linecap:round; stroke-linejoin:round; stroke-width:4; stroke-opacity:1; fill:none" points="349.217,1308.81 1748.77,1308.81 "/>
<polyline clip-path="url(#clip460)" style="stroke:#000000; stroke-linecap:round; stroke-linejoin:round; stroke-width:4; stroke-opacity:1; fill:none" points="388.827,1308.81 388.827,1289.91 "/>
<polyline clip-path="url(#clip460)" style="stroke:#000000; stroke-linecap:round; stroke-linejoin:round; stroke-width:4; stroke-opacity:1; fill:none" points="718.911,1308.81 718.911,1289.91 "/>
<polyline clip-path="url(#clip460)" style="stroke:#000000; stroke-linecap:round; stroke-linejoin:round; stroke-width:4; stroke-opacity:1; fill:none" points="1049,1308.81 1049,1289.91 "/>
<polyline clip-path="url(#clip460)" style="stroke:#000000; stroke-linecap:round; stroke-linejoin:round; stroke-width:4; stroke-opacity:1; fill:none" points="1379.08,1308.81 1379.08,1289.91 "/>
<polyline clip-path="url(#clip460)" style="stroke:#000000; stroke-linecap:round; stroke-linejoin:round; stroke-width:4; stroke-opacity:1; fill:none" points="1709.16,1308.81 1709.16,1289.91 "/>
<path clip-path="url(#clip460)" d="M335.355 1363.98 L365.031 1363.98 L365.031 1367.91 L335.355 1367.91 L335.355 1363.98 Z" fill="#000000" fill-rule="nonzero" fill-opacity="1" /><path clip-path="url(#clip460)" d="M375.934 1376.87 L383.572 1376.87 L383.572 1350.51 L375.262 1352.17 L375.262 1347.91 L383.526 1346.25 L388.202 1346.25 L388.202 1376.87 L395.841 1376.87 L395.841 1380.81 L375.934 1380.81 L375.934 1376.87 Z" fill="#000000" fill-rule="nonzero" fill-opacity="1" /><path clip-path="url(#clip460)" d="M405.285 1374.93 L410.17 1374.93 L410.17 1380.81 L405.285 1380.81 L405.285 1374.93 Z" fill="#000000" fill-rule="nonzero" fill-opacity="1" /><path clip-path="url(#clip460)" d="M430.355 1349.33 Q426.744 1349.33 424.915 1352.89 Q423.109 1356.43 423.109 1363.56 Q423.109 1370.67 424.915 1374.23 Q426.744 1377.78 430.355 1377.78 Q433.989 1377.78 435.794 1374.23 Q437.623 1370.67 437.623 1363.56 Q437.623 1356.43 435.794 1352.89 Q433.989 1349.33 430.355 1349.33 M430.355 1345.62 Q436.165 1345.62 439.22 1350.23 Q442.299 1354.81 442.299 1363.56 Q442.299 1372.29 439.22 1376.9 Q436.165 1381.48 430.355 1381.48 Q424.544 1381.48 421.466 1376.9 Q418.41 1372.29 418.41 1363.56 Q418.41 1354.81 421.466 1350.23 Q424.544 1345.62 430.355 1345.62 Z" fill="#000000" fill-rule="nonzero" fill-opacity="1" /><path clip-path="url(#clip460)" d="M665.937 1363.98 L695.613 1363.98 L695.613 1367.91 L665.937 1367.91 L665.937 1363.98 Z" fill="#000000" fill-rule="nonzero" fill-opacity="1" /><path clip-path="url(#clip460)" d="M715.705 1349.33 Q712.094 1349.33 710.266 1352.89 Q708.46 1356.43 708.46 1363.56 Q708.46 1370.67 710.266 1374.23 Q712.094 1377.78 715.705 1377.78 Q719.34 1377.78 721.145 1374.23 Q722.974 1370.67 722.974 1363.56 Q722.974 1356.43 721.145 1352.89 Q719.34 1349.33 715.705 1349.33 M715.705 1345.62 Q721.516 1345.62 724.571 1350.23 Q727.65 1354.81 727.65 1363.56 Q727.65 1372.29 724.571 1376.9 Q721.516 1381.48 715.705 1381.48 Q709.895 1381.48 706.817 1376.9 Q703.761 1372.29 703.761 1363.56 Q703.761 1354.81 706.817 1350.23 Q709.895 1345.62 715.705 1345.62 Z" fill="#000000" fill-rule="nonzero" fill-opacity="1" /><path clip-path="url(#clip460)" d="M735.867 1374.93 L740.752 1374.93 L740.752 1380.81 L735.867 1380.81 L735.867 1374.93 Z" fill="#000000" fill-rule="nonzero" fill-opacity="1" /><path clip-path="url(#clip460)" d="M750.983 1346.25 L769.339 1346.25 L769.339 1350.18 L755.265 1350.18 L755.265 1358.65 Q756.284 1358.31 757.302 1358.15 Q758.321 1357.96 759.339 1357.96 Q765.126 1357.96 768.506 1361.13 Q771.886 1364.3 771.886 1369.72 Q771.886 1375.3 768.413 1378.4 Q764.941 1381.48 758.622 1381.48 Q756.446 1381.48 754.177 1381.11 Q751.932 1380.74 749.525 1380 L749.525 1375.3 Q751.608 1376.43 753.83 1376.99 Q756.052 1377.54 758.529 1377.54 Q762.534 1377.54 764.872 1375.44 Q767.21 1373.33 767.21 1369.72 Q767.21 1366.11 764.872 1364 Q762.534 1361.9 758.529 1361.9 Q756.654 1361.9 754.779 1362.31 Q752.927 1362.73 750.983 1363.61 L750.983 1346.25 Z" fill="#000000" fill-rule="nonzero" fill-opacity="1" /><path clip-path="url(#clip460)" d="M1026.38 1349.33 Q1022.77 1349.33 1020.94 1352.89 Q1019.13 1356.43 1019.13 1363.56 Q1019.13 1370.67 1020.94 1374.23 Q1022.77 1377.78 1026.38 1377.78 Q1030.01 1377.78 1031.82 1374.23 Q1033.65 1370.67 1033.65 1363.56 Q1033.65 1356.43 1031.82 1352.89 Q1030.01 1349.33 1026.38 1349.33 M1026.38 1345.62 Q1032.19 1345.62 1035.25 1350.23 Q1038.32 1354.81 1038.32 1363.56 Q1038.32 1372.29 1035.25 1376.9 Q1032.19 1381.48 1026.38 1381.48 Q1020.57 1381.48 1017.49 1376.9 Q1014.44 1372.29 1014.44 1363.56 Q1014.44 1354.81 1017.49 1350.23 Q1020.57 1345.62 1026.38 1345.62 Z" fill="#000000" fill-rule="nonzero" fill-opacity="1" /><path clip-path="url(#clip460)" d="M1046.54 1374.93 L1051.43 1374.93 L1051.43 1380.81 L1046.54 1380.81 L1046.54 1374.93 Z" fill="#000000" fill-rule="nonzero" fill-opacity="1" /><path clip-path="url(#clip460)" d="M1071.61 1349.33 Q1068 1349.33 1066.17 1352.89 Q1064.37 1356.43 1064.37 1363.56 Q1064.37 1370.67 1066.17 1374.23 Q1068 1377.78 1071.61 1377.78 Q1075.25 1377.78 1077.05 1374.23 Q1078.88 1370.67 1078.88 1363.56 Q1078.88 1356.43 1077.05 1352.89 Q1075.25 1349.33 1071.61 1349.33 M1071.61 1345.62 Q1077.42 1345.62 1080.48 1350.23 Q1083.56 1354.81 1083.56 1363.56 Q1083.56 1372.29 1080.48 1376.9 Q1077.42 1381.48 1071.61 1381.48 Q1065.8 1381.48 1062.72 1376.9 Q1059.67 1372.29 1059.67 1363.56 Q1059.67 1354.81 1062.72 1350.23 Q1065.8 1345.62 1071.61 1345.62 Z" fill="#000000" fill-rule="nonzero" fill-opacity="1" /><path clip-path="url(#clip460)" d="M1356.96 1349.33 Q1353.35 1349.33 1351.52 1352.89 Q1349.72 1356.43 1349.72 1363.56 Q1349.72 1370.67 1351.52 1374.23 Q1353.35 1377.78 1356.96 1377.78 Q1360.6 1377.78 1362.4 1374.23 Q1364.23 1370.67 1364.23 1363.56 Q1364.23 1356.43 1362.4 1352.89 Q1360.6 1349.33 1356.96 1349.33 M1356.96 1345.62 Q1362.77 1345.62 1365.83 1350.23 Q1368.91 1354.81 1368.91 1363.56 Q1368.91 1372.29 1365.83 1376.9 Q1362.77 1381.48 1356.96 1381.48 Q1351.15 1381.48 1348.07 1376.9 Q1345.02 1372.29 1345.02 1363.56 Q1345.02 1354.81 1348.07 1350.23 Q1351.15 1345.62 1356.96 1345.62 Z" fill="#000000" fill-rule="nonzero" fill-opacity="1" /><path clip-path="url(#clip460)" d="M1377.12 1374.93 L1382.01 1374.93 L1382.01 1380.81 L1377.12 1380.81 L1377.12 1374.93 Z" fill="#000000" fill-rule="nonzero" fill-opacity="1" /><path clip-path="url(#clip460)" d="M1392.24 1346.25 L1410.6 1346.25 L1410.6 1350.18 L1396.52 1350.18 L1396.52 1358.65 Q1397.54 1358.31 1398.56 1358.15 Q1399.58 1357.96 1400.6 1357.96 Q1406.38 1357.96 1409.76 1361.13 Q1413.14 1364.3 1413.14 1369.72 Q1413.14 1375.3 1409.67 1378.4 Q1406.2 1381.48 1399.88 1381.48 Q1397.7 1381.48 1395.43 1381.11 Q1393.19 1380.74 1390.78 1380 L1390.78 1375.3 Q1392.86 1376.43 1395.09 1376.99 Q1397.31 1377.54 1399.79 1377.54 Q1403.79 1377.54 1406.13 1375.44 Q1408.47 1373.33 1408.47 1369.72 Q1408.47 1366.11 1406.13 1364 Q1403.79 1361.9 1399.79 1361.9 Q1397.91 1361.9 1396.04 1362.31 Q1394.18 1362.73 1392.24 1363.61 L1392.24 1346.25 Z" fill="#000000" fill-rule="nonzero" fill-opacity="1" /><path clip-path="url(#clip460)" d="M1676.32 1376.87 L1683.96 1376.87 L1683.96 1350.51 L1675.65 1352.17 L1675.65 1347.91 L1683.91 1346.25 L1688.59 1346.25 L1688.59 1376.87 L1696.22 1376.87 L1696.22 1380.81 L1676.32 1380.81 L1676.32 1376.87 Z" fill="#000000" fill-rule="nonzero" fill-opacity="1" /><path clip-path="url(#clip460)" d="M1705.67 1374.93 L1710.55 1374.93 L1710.55 1380.81 L1705.67 1380.81 L1705.67 1374.93 Z" fill="#000000" fill-rule="nonzero" fill-opacity="1" /><path clip-path="url(#clip460)" d="M1730.74 1349.33 Q1727.13 1349.33 1725.3 1352.89 Q1723.49 1356.43 1723.49 1363.56 Q1723.49 1370.67 1725.3 1374.23 Q1727.13 1377.78 1730.74 1377.78 Q1734.37 1377.78 1736.18 1374.23 Q1738.01 1370.67 1738.01 1363.56 Q1738.01 1356.43 1736.18 1352.89 Q1734.37 1349.33 1730.74 1349.33 M1730.74 1345.62 Q1736.55 1345.62 1739.6 1350.23 Q1742.68 1354.81 1742.68 1363.56 Q1742.68 1372.29 1739.6 1376.9 Q1736.55 1381.48 1730.74 1381.48 Q1724.93 1381.48 1721.85 1376.9 Q1718.79 1372.29 1718.79 1363.56 Q1718.79 1354.81 1721.85 1350.23 Q1724.93 1345.62 1730.74 1345.62 Z" fill="#000000" fill-rule="nonzero" fill-opacity="1" /><path clip-path="url(#clip460)" d="M1065.61 1436.02 L1052.72 1453.37 L1066.28 1471.67 L1059.37 1471.67 L1049 1457.67 L1038.62 1471.67 L1031.71 1471.67 L1045.56 1453.02 L1032.89 1436.02 L1039.8 1436.02 L1049.25 1448.72 L1058.7 1436.02 L1065.61 1436.02 Z" fill="#000000" fill-rule="nonzero" fill-opacity="1" /><polyline clip-path="url(#clip462)" style="stroke:#000000; stroke-linecap:round; stroke-linejoin:round; stroke-width:2; stroke-opacity:0.1; fill:none" points="349.217,1260.65 1748.77,1260.65 "/>
<polyline clip-path="url(#clip462)" style="stroke:#000000; stroke-linecap:round; stroke-linejoin:round; stroke-width:2; stroke-opacity:0.1; fill:none" points="349.217,1095.11 1748.77,1095.11 "/>
<polyline clip-path="url(#clip462)" style="stroke:#000000; stroke-linecap:round; stroke-linejoin:round; stroke-width:2; stroke-opacity:0.1; fill:none" points="349.217,929.564 1748.77,929.564 "/>
<polyline clip-path="url(#clip462)" style="stroke:#000000; stroke-linecap:round; stroke-linejoin:round; stroke-width:2; stroke-opacity:0.1; fill:none" points="349.217,764.022 1748.77,764.022 "/>
<polyline clip-path="url(#clip462)" style="stroke:#000000; stroke-linecap:round; stroke-linejoin:round; stroke-width:2; stroke-opacity:0.1; fill:none" points="349.217,598.48 1748.77,598.48 "/>
<polyline clip-path="url(#clip462)" style="stroke:#000000; stroke-linecap:round; stroke-linejoin:round; stroke-width:2; stroke-opacity:0.1; fill:none" points="349.217,432.938 1748.77,432.938 "/>
<polyline clip-path="url(#clip462)" style="stroke:#000000; stroke-linecap:round; stroke-linejoin:round; stroke-width:2; stroke-opacity:0.1; fill:none" points="349.217,267.396 1748.77,267.396 "/>
<polyline clip-path="url(#clip460)" style="stroke:#000000; stroke-linecap:round; stroke-linejoin:round; stroke-width:4; stroke-opacity:1; fill:none" points="349.217,1308.81 349.217,103.312 "/>
<polyline clip-path="url(#clip460)" style="stroke:#000000; stroke-linecap:round; stroke-linejoin:round; stroke-width:4; stroke-opacity:1; fill:none" points="349.217,1260.65 368.115,1260.65 "/>
<polyline clip-path="url(#clip460)" style="stroke:#000000; stroke-linecap:round; stroke-linejoin:round; stroke-width:4; stroke-opacity:1; fill:none" points="349.217,1095.11 368.115,1095.11 "/>
<polyline clip-path="url(#clip460)" style="stroke:#000000; stroke-linecap:round; stroke-linejoin:round; stroke-width:4; stroke-opacity:1; fill:none" points="349.217,929.564 368.115,929.564 "/>
<polyline clip-path="url(#clip460)" style="stroke:#000000; stroke-linecap:round; stroke-linejoin:round; stroke-width:4; stroke-opacity:1; fill:none" points="349.217,764.022 368.115,764.022 "/>
<polyline clip-path="url(#clip460)" style="stroke:#000000; stroke-linecap:round; stroke-linejoin:round; stroke-width:4; stroke-opacity:1; fill:none" points="349.217,598.48 368.115,598.48 "/>
<polyline clip-path="url(#clip460)" style="stroke:#000000; stroke-linecap:round; stroke-linejoin:round; stroke-width:4; stroke-opacity:1; fill:none" points="349.217,432.938 368.115,432.938 "/>
<polyline clip-path="url(#clip460)" style="stroke:#000000; stroke-linecap:round; stroke-linejoin:round; stroke-width:4; stroke-opacity:1; fill:none" points="349.217,267.396 368.115,267.396 "/>
<path clip-path="url(#clip460)" d="M234.152 1261.1 L263.828 1261.1 L263.828 1265.04 L234.152 1265.04 L234.152 1261.1 Z" fill="#000000" fill-rule="nonzero" fill-opacity="1" /><path clip-path="url(#clip460)" d="M288.087 1259.29 Q291.444 1260.01 293.319 1262.28 Q295.217 1264.55 295.217 1267.88 Q295.217 1273 291.698 1275.8 Q288.18 1278.6 281.698 1278.6 Q279.523 1278.6 277.208 1278.16 Q274.916 1277.74 272.462 1276.89 L272.462 1272.37 Q274.407 1273.51 276.722 1274.09 Q279.036 1274.66 281.56 1274.66 Q285.958 1274.66 288.249 1272.93 Q290.564 1271.19 290.564 1267.88 Q290.564 1264.83 288.411 1263.11 Q286.282 1261.38 282.462 1261.38 L278.435 1261.38 L278.435 1257.54 L282.648 1257.54 Q286.097 1257.54 287.925 1256.17 Q289.754 1254.78 289.754 1252.19 Q289.754 1249.53 287.856 1248.11 Q285.981 1246.68 282.462 1246.68 Q280.541 1246.68 278.342 1247.1 Q276.143 1247.51 273.504 1248.39 L273.504 1244.23 Q276.166 1243.48 278.481 1243.11 Q280.819 1242.74 282.879 1242.74 Q288.203 1242.74 291.305 1245.17 Q294.407 1247.58 294.407 1251.7 Q294.407 1254.57 292.763 1256.56 Q291.12 1258.53 288.087 1259.29 Z" fill="#000000" fill-rule="nonzero" fill-opacity="1" /><path clip-path="url(#clip460)" d="M235.102 1095.56 L264.777 1095.56 L264.777 1099.49 L235.102 1099.49 L235.102 1095.56 Z" fill="#000000" fill-rule="nonzero" fill-opacity="1" /><path clip-path="url(#clip460)" d="M278.898 1108.45 L295.217 1108.45 L295.217 1112.39 L273.273 1112.39 L273.273 1108.45 Q275.935 1105.7 280.518 1101.07 Q285.124 1096.41 286.305 1095.07 Q288.55 1092.55 289.43 1090.81 Q290.333 1089.05 290.333 1087.36 Q290.333 1084.61 288.388 1082.87 Q286.467 1081.14 283.365 1081.14 Q281.166 1081.14 278.712 1081.9 Q276.282 1082.66 273.504 1084.22 L273.504 1079.49 Q276.328 1078.36 278.782 1077.78 Q281.236 1077.2 283.273 1077.2 Q288.643 1077.2 291.837 1079.89 Q295.032 1082.57 295.032 1087.06 Q295.032 1089.19 294.222 1091.11 Q293.435 1093.01 291.328 1095.6 Q290.749 1096.28 287.648 1099.49 Q284.546 1102.69 278.898 1108.45 Z" fill="#000000" fill-rule="nonzero" fill-opacity="1" /><path clip-path="url(#clip460)" d="M234.731 930.016 L264.407 930.016 L264.407 933.951 L234.731 933.951 L234.731 930.016 Z" fill="#000000" fill-rule="nonzero" fill-opacity="1" /><path clip-path="url(#clip460)" d="M275.31 942.909 L282.948 942.909 L282.948 916.544 L274.638 918.21 L274.638 913.951 L282.902 912.284 L287.578 912.284 L287.578 942.909 L295.217 942.909 L295.217 946.844 L275.31 946.844 L275.31 942.909 Z" fill="#000000" fill-rule="nonzero" fill-opacity="1" /><path clip-path="url(#clip460)" d="M283.273 749.821 Q279.661 749.821 277.833 753.386 Q276.027 756.927 276.027 764.057 Q276.027 771.163 277.833 774.728 Q279.661 778.27 283.273 778.27 Q286.907 778.27 288.712 774.728 Q290.541 771.163 290.541 764.057 Q290.541 756.927 288.712 753.386 Q286.907 749.821 283.273 749.821 M283.273 746.117 Q289.083 746.117 292.138 750.724 Q295.217 755.307 295.217 764.057 Q295.217 772.784 292.138 777.39 Q289.083 781.974 283.273 781.974 Q277.462 781.974 274.384 777.39 Q271.328 772.784 271.328 764.057 Q271.328 755.307 274.384 750.724 Q277.462 746.117 283.273 746.117 Z" fill="#000000" fill-rule="nonzero" fill-opacity="1" /><path clip-path="url(#clip460)" d="M275.31 611.825 L282.948 611.825 L282.948 585.459 L274.638 587.126 L274.638 582.867 L282.902 581.2 L287.578 581.2 L287.578 611.825 L295.217 611.825 L295.217 615.76 L275.31 615.76 L275.31 611.825 Z" fill="#000000" fill-rule="nonzero" fill-opacity="1" /><path clip-path="url(#clip460)" d="M278.898 446.283 L295.217 446.283 L295.217 450.218 L273.273 450.218 L273.273 446.283 Q275.935 443.528 280.518 438.899 Q285.124 434.246 286.305 432.903 Q288.55 430.38 289.43 428.644 Q290.333 426.885 290.333 425.195 Q290.333 422.44 288.388 420.704 Q286.467 418.968 283.365 418.968 Q281.166 418.968 278.712 419.732 Q276.282 420.496 273.504 422.047 L273.504 417.325 Q276.328 416.19 278.782 415.612 Q281.236 415.033 283.273 415.033 Q288.643 415.033 291.837 417.718 Q295.032 420.403 295.032 424.894 Q295.032 427.024 294.222 428.945 Q293.435 430.843 291.328 433.436 Q290.749 434.107 287.648 437.325 Q284.546 440.519 278.898 446.283 Z" fill="#000000" fill-rule="nonzero" fill-opacity="1" /><path clip-path="url(#clip460)" d="M288.087 266.042 Q291.444 266.759 293.319 269.028 Q295.217 271.296 295.217 274.63 Q295.217 279.745 291.698 282.546 Q288.18 285.347 281.698 285.347 Q279.523 285.347 277.208 284.907 Q274.916 284.491 272.462 283.634 L272.462 279.12 Q274.407 280.255 276.722 280.833 Q279.036 281.412 281.56 281.412 Q285.958 281.412 288.249 279.676 Q290.564 277.94 290.564 274.63 Q290.564 271.574 288.411 269.861 Q286.282 268.125 282.462 268.125 L278.435 268.125 L278.435 264.283 L282.648 264.283 Q286.097 264.283 287.925 262.917 Q289.754 261.528 289.754 258.935 Q289.754 256.273 287.856 254.861 Q285.981 253.426 282.462 253.426 Q280.541 253.426 278.342 253.843 Q276.143 254.259 273.504 255.139 L273.504 250.972 Q276.166 250.232 278.481 249.861 Q280.819 249.491 282.879 249.491 Q288.203 249.491 291.305 251.922 Q294.407 254.329 294.407 258.449 Q294.407 261.32 292.763 263.31 Q291.12 265.278 288.087 266.042 Z" fill="#000000" fill-rule="nonzero" fill-opacity="1" /><path clip-path="url(#clip460)" d="M116.371 736.01 L121.241 736.01 L121.241 741.612 Q121.241 744.763 122.514 746.005 Q123.787 747.214 127.097 747.214 L130.248 747.214 L130.248 737.57 L134.8 737.57 L134.8 747.214 L165.896 747.214 L165.896 753.102 L134.8 753.102 L134.8 758.704 L130.248 758.704 L130.248 753.102 L127.766 753.102 Q121.814 753.102 119.108 750.333 Q116.371 747.564 116.371 741.549 L116.371 736.01 Z" fill="#000000" fill-rule="nonzero" fill-opacity="1" /><path clip-path="url(#clip460)" d="M116.435 717.041 Q123.755 721.306 130.917 723.375 Q138.078 725.443 145.431 725.443 Q152.783 725.443 160.008 723.375 Q167.201 721.274 174.49 717.041 L174.49 722.133 Q167.01 726.908 159.785 729.295 Q152.56 731.65 145.431 731.65 Q138.333 731.65 131.14 729.295 Q123.946 726.939 116.435 722.133 L116.435 717.041 Z" fill="#000000" fill-rule="nonzero" fill-opacity="1" /><path clip-path="url(#clip460)" d="M130.248 676.046 L147.595 688.936 L165.896 675.377 L165.896 682.284 L151.892 692.66 L165.896 703.036 L165.896 709.943 L147.245 696.098 L130.248 708.765 L130.248 701.858 L142.948 692.405 L130.248 682.952 L130.248 676.046 Z" fill="#000000" fill-rule="nonzero" fill-opacity="1" /><path clip-path="url(#clip460)" d="M116.435 668.025 L116.435 662.932 Q123.946 658.158 131.14 655.803 Q138.333 653.415 145.431 653.415 Q152.56 653.415 159.785 655.803 Q167.01 658.158 174.49 662.932 L174.49 668.025 Q167.201 663.792 160.008 661.723 Q152.783 659.622 145.431 659.622 Q138.078 659.622 130.917 661.723 Q123.755 663.792 116.435 668.025 Z" fill="#000000" fill-rule="nonzero" fill-opacity="1" /><path clip-path="url(#clip460)" d="M791.48 18.8205 L791.48 65.8515 L801.364 65.8515 Q813.881 65.8515 819.674 60.1802 Q825.507 54.509 825.507 42.2752 Q825.507 30.1225 819.674 24.4918 Q813.881 18.8205 801.364 18.8205 L791.48 18.8205 M783.297 12.096 L800.108 12.096 Q817.689 12.096 825.912 19.4281 Q834.136 26.7198 834.136 42.2752 Q834.136 57.9117 825.872 65.2439 Q817.608 72.576 800.108 72.576 L783.297 72.576 L783.297 12.096 Z" fill="#000000" fill-rule="nonzero" fill-opacity="1" /><path clip-path="url(#clip460)" d="M873.146 34.1734 Q871.89 33.4443 870.391 33.1202 Q868.933 32.7556 867.151 32.7556 Q860.831 32.7556 857.428 36.8875 Q854.066 40.9789 854.066 48.6757 L854.066 72.576 L846.572 72.576 L846.572 27.2059 L854.066 27.2059 L854.066 34.2544 Q856.416 30.1225 860.183 28.1376 Q863.95 26.1121 869.338 26.1121 Q870.108 26.1121 871.039 26.2337 Q871.971 26.3147 873.105 26.5172 L873.146 34.1734 Z" fill="#000000" fill-rule="nonzero" fill-opacity="1" /><path clip-path="url(#clip460)" d="M880.964 27.2059 L888.418 27.2059 L888.418 72.576 L880.964 72.576 L880.964 27.2059 M880.964 9.54393 L888.418 9.54393 L888.418 18.9825 L880.964 18.9825 L880.964 9.54393 Z" fill="#000000" fill-rule="nonzero" fill-opacity="1" /><path clip-path="url(#clip460)" d="M926.982 9.54393 L926.982 15.7418 L919.853 15.7418 Q915.842 15.7418 914.263 17.3622 Q912.723 18.9825 912.723 23.1955 L912.723 27.2059 L924.998 27.2059 L924.998 32.9987 L912.723 32.9987 L912.723 72.576 L905.229 72.576 L905.229 32.9987 L898.1 32.9987 L898.1 27.2059 L905.229 27.2059 L905.229 24.0462 Q905.229 16.471 908.753 13.0277 Q912.278 9.54393 919.934 9.54393 L926.982 9.54393 Z" fill="#000000" fill-rule="nonzero" fill-opacity="1" /><path clip-path="url(#clip460)" d="M939.135 14.324 L939.135 27.2059 L954.488 27.2059 L954.488 32.9987 L939.135 32.9987 L939.135 57.6282 Q939.135 63.1779 940.634 64.7578 Q942.173 66.3376 946.832 66.3376 L954.488 66.3376 L954.488 72.576 L946.832 72.576 Q938.203 72.576 934.922 69.3758 Q931.641 66.1351 931.641 57.6282 L931.641 32.9987 L926.172 32.9987 L926.172 27.2059 L931.641 27.2059 L931.641 14.324 L939.135 14.324 Z" fill="#000000" fill-rule="nonzero" fill-opacity="1" /><path clip-path="url(#clip460)" d="M1013.63 9.54393 L1013.63 15.7418 L1006.5 15.7418 Q1002.49 15.7418 1000.91 17.3622 Q999.372 18.9825 999.372 23.1955 L999.372 27.2059 L1011.65 27.2059 L1011.65 32.9987 L999.372 32.9987 L999.372 72.576 L991.878 72.576 L991.878 32.9987 L984.748 32.9987 L984.748 27.2059 L991.878 27.2059 L991.878 24.0462 Q991.878 16.471 995.402 13.0277 Q998.927 9.54393 1006.58 9.54393 L1013.63 9.54393 Z" fill="#000000" fill-rule="nonzero" fill-opacity="1" /><path clip-path="url(#clip460)" d="M1019.1 54.671 L1019.1 27.2059 L1026.55 27.2059 L1026.55 54.3874 Q1026.55 60.8284 1029.07 64.0691 Q1031.58 67.2693 1036.6 67.2693 Q1042.64 67.2693 1046.12 63.421 Q1049.64 59.5726 1049.64 52.9291 L1049.64 27.2059 L1057.1 27.2059 L1057.1 72.576 L1049.64 72.576 L1049.64 65.6084 Q1046.93 69.7404 1043.32 71.7658 Q1039.76 73.7508 1035.02 73.7508 Q1027.2 73.7508 1023.15 68.8897 Q1019.1 64.0286 1019.1 54.671 M1037.86 26.1121 L1037.86 26.1121 Z" fill="#000000" fill-rule="nonzero" fill-opacity="1" /><path clip-path="url(#clip460)" d="M1110.16 45.1919 L1110.16 72.576 L1102.71 72.576 L1102.71 45.4349 Q1102.71 38.994 1100.2 35.7938 Q1097.69 32.5936 1092.66 32.5936 Q1086.63 32.5936 1083.14 36.4419 Q1079.66 40.2903 1079.66 46.9338 L1079.66 72.576 L1072.17 72.576 L1072.17 27.2059 L1079.66 27.2059 L1079.66 34.2544 Q1082.33 30.163 1085.94 28.1376 Q1089.59 26.1121 1094.33 26.1121 Q1102.14 26.1121 1106.15 30.9732 Q1110.16 35.7938 1110.16 45.1919 Z" fill="#000000" fill-rule="nonzero" fill-opacity="1" /><path clip-path="url(#clip460)" d="M1157.68 28.9478 L1157.68 35.9153 Q1154.52 34.1734 1151.32 33.3227 Q1148.16 32.4315 1144.92 32.4315 Q1137.67 32.4315 1133.66 37.0496 Q1129.65 41.6271 1129.65 49.9314 Q1129.65 58.2358 1133.66 62.8538 Q1137.67 67.4314 1144.92 67.4314 Q1148.16 67.4314 1151.32 66.5807 Q1154.52 65.6895 1157.68 63.9476 L1157.68 70.8341 Q1154.56 72.2924 1151.2 73.0216 Q1147.88 73.7508 1144.11 73.7508 Q1133.86 73.7508 1127.83 67.3098 Q1121.79 60.8689 1121.79 49.9314 Q1121.79 38.832 1127.87 32.472 Q1133.98 26.1121 1144.6 26.1121 Q1148.04 26.1121 1151.32 26.8413 Q1154.6 27.5299 1157.68 28.9478 Z" fill="#000000" fill-rule="nonzero" fill-opacity="1" /><path clip-path="url(#clip460)" d="M1178.02 14.324 L1178.02 27.2059 L1193.37 27.2059 L1193.37 32.9987 L1178.02 32.9987 L1178.02 57.6282 Q1178.02 63.1779 1179.52 64.7578 Q1181.06 66.3376 1185.71 66.3376 L1193.37 66.3376 L1193.37 72.576 L1185.71 72.576 Q1177.09 72.576 1173.8 69.3758 Q1170.52 66.1351 1170.52 57.6282 L1170.52 32.9987 L1165.05 32.9987 L1165.05 27.2059 L1170.52 27.2059 L1170.52 14.324 L1178.02 14.324 Z" fill="#000000" fill-rule="nonzero" fill-opacity="1" /><path clip-path="url(#clip460)" d="M1203.17 27.2059 L1210.63 27.2059 L1210.63 72.576 L1203.17 72.576 L1203.17 27.2059 M1203.17 9.54393 L1210.63 9.54393 L1210.63 18.9825 L1203.17 18.9825 L1203.17 9.54393 Z" fill="#000000" fill-rule="nonzero" fill-opacity="1" /><path clip-path="url(#clip460)" d="M1243.8 32.4315 Q1237.81 32.4315 1234.32 37.1306 Q1230.84 41.7891 1230.84 49.9314 Q1230.84 58.0738 1234.28 62.7728 Q1237.77 67.4314 1243.8 67.4314 Q1249.76 67.4314 1253.24 62.7323 Q1256.73 58.0333 1256.73 49.9314 Q1256.73 41.8701 1253.24 37.1711 Q1249.76 32.4315 1243.8 32.4315 M1243.8 26.1121 Q1253.53 26.1121 1259.08 32.4315 Q1264.63 38.7509 1264.63 49.9314 Q1264.63 61.0714 1259.08 67.4314 Q1253.53 73.7508 1243.8 73.7508 Q1234.04 73.7508 1228.49 67.4314 Q1222.98 61.0714 1222.98 49.9314 Q1222.98 38.7509 1228.49 32.4315 Q1234.04 26.1121 1243.8 26.1121 Z" fill="#000000" fill-rule="nonzero" fill-opacity="1" /><path clip-path="url(#clip460)" d="M1314.69 45.1919 L1314.69 72.576 L1307.24 72.576 L1307.24 45.4349 Q1307.24 38.994 1304.73 35.7938 Q1302.22 32.5936 1297.19 32.5936 Q1291.16 32.5936 1287.67 36.4419 Q1284.19 40.2903 1284.19 46.9338 L1284.19 72.576 L1276.7 72.576 L1276.7 27.2059 L1284.19 27.2059 L1284.19 34.2544 Q1286.86 30.163 1290.47 28.1376 Q1294.12 26.1121 1298.86 26.1121 Q1306.67 26.1121 1310.68 30.9732 Q1314.69 35.7938 1314.69 45.1919 Z" fill="#000000" fill-rule="nonzero" fill-opacity="1" /><circle clip-path="url(#clip462)" cx="388.827" cy="408.86" r="14.4" fill="#009af9" fill-rule="evenodd" fill-opacity="1" stroke="#000000" stroke-opacity="1" stroke-width="3.2"/>
<circle clip-path="url(#clip462)" cx="458.318" cy="436.389" r="14.4" fill="#009af9" fill-rule="evenodd" fill-opacity="1" stroke="#000000" stroke-opacity="1" stroke-width="3.2"/>
<circle clip-path="url(#clip462)" cx="527.81" cy="487.61" r="14.4" fill="#009af9" fill-rule="evenodd" fill-opacity="1" stroke="#000000" stroke-opacity="1" stroke-width="3.2"/>
<circle clip-path="url(#clip462)" cx="597.301" cy="518.831" r="14.4" fill="#009af9" fill-rule="evenodd" fill-opacity="1" stroke="#000000" stroke-opacity="1" stroke-width="3.2"/>
<circle clip-path="url(#clip462)" cx="666.793" cy="542.598" r="14.4" fill="#009af9" fill-rule="evenodd" fill-opacity="1" stroke="#000000" stroke-opacity="1" stroke-width="3.2"/>
<circle clip-path="url(#clip462)" cx="736.284" cy="564.195" r="14.4" fill="#009af9" fill-rule="evenodd" fill-opacity="1" stroke="#000000" stroke-opacity="1" stroke-width="3.2"/>
<circle clip-path="url(#clip462)" cx="805.776" cy="591.683" r="14.4" fill="#009af9" fill-rule="evenodd" fill-opacity="1" stroke="#000000" stroke-opacity="1" stroke-width="3.2"/>
<circle clip-path="url(#clip462)" cx="875.267" cy="632.902" r="14.4" fill="#009af9" fill-rule="evenodd" fill-opacity="1" stroke="#000000" stroke-opacity="1" stroke-width="3.2"/>
<circle clip-path="url(#clip462)" cx="944.759" cy="685.746" r="14.4" fill="#009af9" fill-rule="evenodd" fill-opacity="1" stroke="#000000" stroke-opacity="1" stroke-width="3.2"/>
<circle clip-path="url(#clip462)" cx="1014.25" cy="735.338" r="14.4" fill="#009af9" fill-rule="evenodd" fill-opacity="1" stroke="#000000" stroke-opacity="1" stroke-width="3.2"/>
<circle clip-path="url(#clip462)" cx="1083.74" cy="769.251" r="14.4" fill="#009af9" fill-rule="evenodd" fill-opacity="1" stroke="#000000" stroke-opacity="1" stroke-width="3.2"/>
<circle clip-path="url(#clip462)" cx="1153.23" cy="793.274" r="14.4" fill="#009af9" fill-rule="evenodd" fill-opacity="1" stroke="#000000" stroke-opacity="1" stroke-width="3.2"/>
<circle clip-path="url(#clip462)" cx="1222.72" cy="831.997" r="14.4" fill="#009af9" fill-rule="evenodd" fill-opacity="1" stroke="#000000" stroke-opacity="1" stroke-width="3.2"/>
<circle clip-path="url(#clip462)" cx="1292.22" cy="880.548" r="14.4" fill="#009af9" fill-rule="evenodd" fill-opacity="1" stroke="#000000" stroke-opacity="1" stroke-width="3.2"/>
<circle clip-path="url(#clip462)" cx="1361.71" cy="926.81" r="14.4" fill="#009af9" fill-rule="evenodd" fill-opacity="1" stroke="#000000" stroke-opacity="1" stroke-width="3.2"/>
<circle clip-path="url(#clip462)" cx="1431.2" cy="954.483" r="14.4" fill="#009af9" fill-rule="evenodd" fill-opacity="1" stroke="#000000" stroke-opacity="1" stroke-width="3.2"/>
<circle clip-path="url(#clip462)" cx="1500.69" cy="985.436" r="14.4" fill="#009af9" fill-rule="evenodd" fill-opacity="1" stroke="#000000" stroke-opacity="1" stroke-width="3.2"/>
<circle clip-path="url(#clip462)" cx="1570.18" cy="1022.09" r="14.4" fill="#009af9" fill-rule="evenodd" fill-opacity="1" stroke="#000000" stroke-opacity="1" stroke-width="3.2"/>
<circle clip-path="url(#clip462)" cx="1639.67" cy="1081.06" r="14.4" fill="#009af9" fill-rule="evenodd" fill-opacity="1" stroke="#000000" stroke-opacity="1" stroke-width="3.2"/>
<circle clip-path="url(#clip462)" cx="1709.16" cy="1108.11" r="14.4" fill="#009af9" fill-rule="evenodd" fill-opacity="1" stroke="#000000" stroke-opacity="1" stroke-width="3.2"/>
<polyline clip-path="url(#clip462)" style="stroke:#e26f46; stroke-linecap:round; stroke-linejoin:round; stroke-width:4; stroke-opacity:1; fill:none" points="388.827,350.167 397.423,355.556 476.907,405.384 524.673,435.328 565.059,460.645 608.929,488.147 649.374,513.502 692.734,540.684 742.972,572.178 787.617,600.166 826.767,624.709 869.451,651.467 912.389,678.384 959.862,708.145 1005.03,736.461 1052,765.904 1091.53,790.688 1139.8,820.947 1184.02,848.666 1224.85,874.267 1266.22,900.199 1312.58,929.263 1354.59,955.599 1402.69,985.751 1447.23,1013.67 1491.13,1041.2 1533.76,1067.92 1577.46,1095.32 1625.34,1125.33 1694.9,1168.93 1709.16,1177.88 "/>
<path clip-path="url(#clip462)" d="M388.827 602.625 L458.318 608.342 L527.81 609.053 L597.301 608.799 L666.793 613.907 L736.284 624.877 L805.776 640.119 L875.267 671.605 L944.759 720.921 L1014.25 762.108 L1083.74 797.312 L1153.23 822.184 L1222.72 867.483 L1292.22 922.88 L1361.71 981.649 L1431.2 1016.37 L1500.69 1056.13 L1570.18 1133.44 L1639.67 1211.83 L1709.16 1274.69 L1709.16 987.31 L1639.67 979.966 L1570.18 933.265 L1500.69 924.83 L1431.2 898.368 L1361.71 873.709 L1292.22 831.571 L1222.72 797.754 L1153.23 764.437 L1083.74 737.179 L1014.25 700.369 L944.759 648.76 L875.267 586.094 L805.776 533.917 L736.284 496.799 L666.793 436.702 L597.301 328.475 L527.81 263.228 L458.318 186.577 L388.827 137.43  Z" fill="#ac8d18" fill-rule="evenodd" fill-opacity="0.15"/>
<polyline clip-path="url(#clip462)" style="stroke:#ac8d18; stroke-linecap:round; stroke-linejoin:round; stroke-width:4; stroke-opacity:0; fill:none" points="388.827,602.625 458.318,608.342 527.81,609.053 597.301,608.799 666.793,613.907 736.284,624.877 805.776,640.119 875.267,671.605 944.759,720.921 1014.25,762.108 1083.74,797.312 1153.23,822.184 1222.72,867.483 1292.22,922.88 1361.71,981.649 1431.2,1016.37 1500.69,1056.13 1570.18,1133.44 1639.67,1211.83 1709.16,1274.69 "/>
<path clip-path="url(#clip460)" d="M1240.69 350.855 L1702.12 350.855 L1702.12 143.495 L1240.69 143.495  Z" fill="#ffffff" fill-rule="evenodd" fill-opacity="1"/>
<polyline clip-path="url(#clip460)" style="stroke:#000000; stroke-linecap:round; stroke-linejoin:round; stroke-width:4; stroke-opacity:1; fill:none" points="1240.69,350.855 1702.12,350.855 1702.12,143.495 1240.69,143.495 1240.69,350.855 "/>
<circle clip-path="url(#clip460)" cx="1302.89" cy="195.335" r="20.48" fill="#009af9" fill-rule="evenodd" fill-opacity="1" stroke="#000000" stroke-opacity="1" stroke-width="4.55111"/>
<path clip-path="url(#clip460)" d="M1369.77 196.111 L1369.77 208.773 L1377.27 208.773 Q1381.04 208.773 1382.85 207.222 Q1384.68 205.648 1384.68 202.43 Q1384.68 199.189 1382.85 197.662 Q1381.04 196.111 1377.27 196.111 L1369.77 196.111 M1369.77 181.898 L1369.77 192.314 L1376.69 192.314 Q1380.12 192.314 1381.78 191.041 Q1383.47 189.745 1383.47 187.106 Q1383.47 184.49 1381.78 183.194 Q1380.12 181.898 1376.69 181.898 L1369.77 181.898 M1365.09 178.055 L1377.04 178.055 Q1382.38 178.055 1385.28 180.278 Q1388.17 182.5 1388.17 186.597 Q1388.17 189.768 1386.69 191.643 Q1385.21 193.518 1382.34 193.981 Q1385.79 194.722 1387.68 197.083 Q1389.61 199.421 1389.61 202.939 Q1389.61 207.569 1386.46 210.092 Q1383.31 212.615 1377.5 212.615 L1365.09 212.615 L1365.09 178.055 Z" fill="#000000" fill-rule="nonzero" fill-opacity="1" /><path clip-path="url(#clip460)" d="M1419.61 198.588 L1419.61 200.671 L1400.02 200.671 Q1400.3 205.069 1402.66 207.384 Q1405.05 209.676 1409.28 209.676 Q1411.74 209.676 1414.03 209.074 Q1416.34 208.472 1418.61 207.268 L1418.61 211.296 Q1416.32 212.268 1413.91 212.777 Q1411.5 213.287 1409.03 213.287 Q1402.82 213.287 1399.19 209.676 Q1395.58 206.064 1395.58 199.907 Q1395.58 193.541 1399 189.815 Q1402.45 186.065 1408.29 186.065 Q1413.52 186.065 1416.55 189.444 Q1419.61 192.801 1419.61 198.588 M1415.35 197.338 Q1415.3 193.842 1413.38 191.759 Q1411.48 189.676 1408.33 189.676 Q1404.77 189.676 1402.62 191.689 Q1400.49 193.703 1400.16 197.361 L1415.35 197.338 Z" fill="#000000" fill-rule="nonzero" fill-opacity="1" /><path clip-path="url(#clip460)" d="M1443.12 187.453 L1443.12 191.481 Q1441.32 190.555 1439.37 190.092 Q1437.43 189.629 1435.35 189.629 Q1432.18 189.629 1430.58 190.602 Q1429 191.574 1429 193.518 Q1429 195 1430.14 195.856 Q1431.27 196.689 1434.7 197.453 L1436.16 197.777 Q1440.69 198.75 1442.59 200.532 Q1444.51 202.291 1444.51 205.463 Q1444.51 209.074 1441.64 211.18 Q1438.8 213.287 1433.8 213.287 Q1431.71 213.287 1429.44 212.87 Q1427.2 212.476 1424.7 211.666 L1424.7 207.268 Q1427.06 208.495 1429.35 209.12 Q1431.64 209.722 1433.89 209.722 Q1436.9 209.722 1438.52 208.703 Q1440.14 207.662 1440.14 205.787 Q1440.14 204.051 1438.96 203.125 Q1437.8 202.199 1433.84 201.342 L1432.36 200.995 Q1428.4 200.162 1426.64 198.449 Q1424.88 196.713 1424.88 193.703 Q1424.88 190.046 1427.48 188.055 Q1430.07 186.065 1434.84 186.065 Q1437.2 186.065 1439.28 186.412 Q1441.36 186.759 1443.12 187.453 Z" fill="#000000" fill-rule="nonzero" fill-opacity="1" /><path clip-path="url(#clip460)" d="M1455.51 179.328 L1455.51 186.69 L1464.28 186.69 L1464.28 190 L1455.51 190 L1455.51 204.074 Q1455.51 207.245 1456.36 208.148 Q1457.24 209.051 1459.91 209.051 L1464.28 209.051 L1464.28 212.615 L1459.91 212.615 Q1454.98 212.615 1453.1 210.787 Q1451.23 208.935 1451.23 204.074 L1451.23 190 L1448.1 190 L1448.1 186.69 L1451.23 186.69 L1451.23 179.328 L1455.51 179.328 Z" fill="#000000" fill-rule="nonzero" fill-opacity="1" /><path clip-path="url(#clip460)" d="M1507.13 198.588 L1507.13 200.671 L1487.55 200.671 Q1487.82 205.069 1490.18 207.384 Q1492.57 209.676 1496.8 209.676 Q1499.26 209.676 1501.55 209.074 Q1503.86 208.472 1506.13 207.268 L1506.13 211.296 Q1503.84 212.268 1501.43 212.777 Q1499.03 213.287 1496.55 213.287 Q1490.35 213.287 1486.71 209.676 Q1483.1 206.064 1483.1 199.907 Q1483.1 193.541 1486.53 189.815 Q1489.98 186.065 1495.81 186.065 Q1501.04 186.065 1504.07 189.444 Q1507.13 192.801 1507.13 198.588 M1502.87 197.338 Q1502.82 193.842 1500.9 191.759 Q1499 189.676 1495.86 189.676 Q1492.29 189.676 1490.14 191.689 Q1488.01 193.703 1487.68 197.361 L1502.87 197.338 Z" fill="#000000" fill-rule="nonzero" fill-opacity="1" /><path clip-path="url(#clip460)" d="M1530.65 187.453 L1530.65 191.481 Q1528.84 190.555 1526.9 190.092 Q1524.95 189.629 1522.87 189.629 Q1519.7 189.629 1518.1 190.602 Q1516.53 191.574 1516.53 193.518 Q1516.53 195 1517.66 195.856 Q1518.8 196.689 1522.22 197.453 L1523.68 197.777 Q1528.22 198.75 1530.11 200.532 Q1532.04 202.291 1532.04 205.463 Q1532.04 209.074 1529.17 211.18 Q1526.32 213.287 1521.32 213.287 Q1519.23 213.287 1516.97 212.87 Q1514.72 212.476 1512.22 211.666 L1512.22 207.268 Q1514.58 208.495 1516.87 209.12 Q1519.17 209.722 1521.41 209.722 Q1524.42 209.722 1526.04 208.703 Q1527.66 207.662 1527.66 205.787 Q1527.66 204.051 1526.48 203.125 Q1525.32 202.199 1521.36 201.342 L1519.88 200.995 Q1515.92 200.162 1514.17 198.449 Q1512.41 196.713 1512.41 193.703 Q1512.41 190.046 1515 188.055 Q1517.59 186.065 1522.36 186.065 Q1524.72 186.065 1526.8 186.412 Q1528.89 186.759 1530.65 187.453 Z" fill="#000000" fill-rule="nonzero" fill-opacity="1" /><path clip-path="url(#clip460)" d="M1543.03 179.328 L1543.03 186.69 L1551.8 186.69 L1551.8 190 L1543.03 190 L1543.03 204.074 Q1543.03 207.245 1543.89 208.148 Q1544.77 209.051 1547.43 209.051 L1551.8 209.051 L1551.8 212.615 L1547.43 212.615 Q1542.5 212.615 1540.62 210.787 Q1538.75 208.935 1538.75 204.074 L1538.75 190 L1535.62 190 L1535.62 186.69 L1538.75 186.69 L1538.75 179.328 L1543.03 179.328 Z" fill="#000000" fill-rule="nonzero" fill-opacity="1" /><path clip-path="url(#clip460)" d="M1557.41 186.69 L1561.67 186.69 L1561.67 212.615 L1557.41 212.615 L1557.41 186.69 M1557.41 176.597 L1561.67 176.597 L1561.67 181.99 L1557.41 181.99 L1557.41 176.597 Z" fill="#000000" fill-rule="nonzero" fill-opacity="1" /><path clip-path="url(#clip460)" d="M1590.76 191.666 Q1592.36 188.796 1594.58 187.43 Q1596.8 186.065 1599.81 186.065 Q1603.86 186.065 1606.06 188.912 Q1608.26 191.736 1608.26 196.967 L1608.26 212.615 L1603.98 212.615 L1603.98 197.106 Q1603.98 193.379 1602.66 191.574 Q1601.34 189.768 1598.63 189.768 Q1595.32 189.768 1593.4 191.967 Q1591.48 194.166 1591.48 197.963 L1591.48 212.615 L1587.2 212.615 L1587.2 197.106 Q1587.2 193.356 1585.88 191.574 Q1584.56 189.768 1581.8 189.768 Q1578.54 189.768 1576.62 191.99 Q1574.7 194.189 1574.7 197.963 L1574.7 212.615 L1570.42 212.615 L1570.42 186.69 L1574.7 186.69 L1574.7 190.717 Q1576.16 188.333 1578.19 187.199 Q1580.23 186.065 1583.03 186.065 Q1585.85 186.065 1587.82 187.5 Q1589.81 188.935 1590.76 191.666 Z" fill="#000000" fill-rule="nonzero" fill-opacity="1" /><path clip-path="url(#clip460)" d="M1628.54 199.583 Q1623.38 199.583 1621.39 200.764 Q1619.4 201.944 1619.4 204.791 Q1619.4 207.06 1620.88 208.402 Q1622.38 209.722 1624.95 209.722 Q1628.49 209.722 1630.62 207.222 Q1632.78 204.699 1632.78 200.532 L1632.78 199.583 L1628.54 199.583 M1637.04 197.824 L1637.04 212.615 L1632.78 212.615 L1632.78 208.68 Q1631.32 211.041 1629.14 212.175 Q1626.97 213.287 1623.82 213.287 Q1619.84 213.287 1617.48 211.064 Q1615.14 208.819 1615.14 205.069 Q1615.14 200.694 1618.05 198.472 Q1620.99 196.25 1626.8 196.25 L1632.78 196.25 L1632.78 195.833 Q1632.78 192.893 1630.83 191.296 Q1628.91 189.676 1625.41 189.676 Q1623.19 189.676 1621.09 190.208 Q1618.98 190.74 1617.04 191.805 L1617.04 187.87 Q1619.37 186.967 1621.57 186.527 Q1623.77 186.065 1625.85 186.065 Q1631.48 186.065 1634.26 188.981 Q1637.04 191.898 1637.04 197.824 Z" fill="#000000" fill-rule="nonzero" fill-opacity="1" /><path clip-path="url(#clip460)" d="M1650.02 179.328 L1650.02 186.69 L1658.79 186.69 L1658.79 190 L1650.02 190 L1650.02 204.074 Q1650.02 207.245 1650.88 208.148 Q1651.76 209.051 1654.42 209.051 L1658.79 209.051 L1658.79 212.615 L1654.42 212.615 Q1649.49 212.615 1647.61 210.787 Q1645.74 208.935 1645.74 204.074 L1645.74 190 L1642.61 190 L1642.61 186.69 L1645.74 186.69 L1645.74 179.328 L1650.02 179.328 Z" fill="#000000" fill-rule="nonzero" fill-opacity="1" /><path clip-path="url(#clip460)" d="M1686.57 198.588 L1686.57 200.671 L1666.99 200.671 Q1667.27 205.069 1669.63 207.384 Q1672.01 209.676 1676.25 209.676 Q1678.7 209.676 1680.99 209.074 Q1683.31 208.472 1685.58 207.268 L1685.58 211.296 Q1683.28 212.268 1680.88 212.777 Q1678.47 213.287 1675.99 213.287 Q1669.79 213.287 1666.16 209.676 Q1662.54 206.064 1662.54 199.907 Q1662.54 193.541 1665.97 189.815 Q1669.42 186.065 1675.25 186.065 Q1680.48 186.065 1683.52 189.444 Q1686.57 192.801 1686.57 198.588 M1682.31 197.338 Q1682.27 193.842 1680.35 191.759 Q1678.45 189.676 1675.3 189.676 Q1671.73 189.676 1669.58 191.689 Q1667.45 193.703 1667.13 197.361 L1682.31 197.338 Z" fill="#000000" fill-rule="nonzero" fill-opacity="1" /><polyline clip-path="url(#clip460)" style="stroke:#e26f46; stroke-linecap:round; stroke-linejoin:round; stroke-width:4; stroke-opacity:1; fill:none" points="1256.24,247.175 1349.54,247.175 "/>
<path clip-path="url(#clip460)" d="M1365.09 229.895 L1394.33 229.895 L1394.33 233.83 L1382.06 233.83 L1382.06 264.455 L1377.36 264.455 L1377.36 233.83 L1365.09 233.83 L1365.09 229.895 Z" fill="#000000" fill-rule="nonzero" fill-opacity="1" /><path clip-path="url(#clip460)" d="M1406.71 242.511 Q1405.99 242.094 1405.14 241.909 Q1404.3 241.701 1403.29 241.701 Q1399.68 241.701 1397.73 244.062 Q1395.81 246.4 1395.81 250.798 L1395.81 264.455 L1391.53 264.455 L1391.53 238.53 L1395.81 238.53 L1395.81 242.557 Q1397.15 240.196 1399.3 239.062 Q1401.46 237.905 1404.54 237.905 Q1404.98 237.905 1405.51 237.974 Q1406.04 238.02 1406.69 238.136 L1406.71 242.511 Z" fill="#000000" fill-rule="nonzero" fill-opacity="1" /><path clip-path="url(#clip460)" d="M1410.74 254.224 L1410.74 238.53 L1415 238.53 L1415 254.062 Q1415 257.742 1416.43 259.594 Q1417.87 261.423 1420.74 261.423 Q1424.19 261.423 1426.18 259.224 Q1428.19 257.025 1428.19 253.229 L1428.19 238.53 L1432.45 238.53 L1432.45 264.455 L1428.19 264.455 L1428.19 260.474 Q1426.64 262.835 1424.58 263.992 Q1422.55 265.127 1419.84 265.127 Q1415.37 265.127 1413.05 262.349 Q1410.74 259.571 1410.74 254.224 M1421.46 237.905 L1421.46 237.905 Z" fill="#000000" fill-rule="nonzero" fill-opacity="1" /><path clip-path="url(#clip460)" d="M1463.4 250.428 L1463.4 252.511 L1443.82 252.511 Q1444.1 256.909 1446.46 259.224 Q1448.84 261.516 1453.08 261.516 Q1455.53 261.516 1457.82 260.914 Q1460.14 260.312 1462.41 259.108 L1462.41 263.136 Q1460.11 264.108 1457.71 264.617 Q1455.3 265.127 1452.82 265.127 Q1446.62 265.127 1442.99 261.516 Q1439.37 257.904 1439.37 251.747 Q1439.37 245.381 1442.8 241.655 Q1446.25 237.905 1452.08 237.905 Q1457.31 237.905 1460.35 241.284 Q1463.4 244.641 1463.4 250.428 M1459.14 249.178 Q1459.1 245.682 1457.17 243.599 Q1455.28 241.516 1452.13 241.516 Q1448.56 241.516 1446.41 243.529 Q1444.28 245.543 1443.96 249.201 L1459.14 249.178 Z" fill="#000000" fill-rule="nonzero" fill-opacity="1" /><path clip-path="url(#clip460)" d="M1256.24 319.751 L1349.54 319.751 L1349.54 278.279 L1256.24 278.279 L1256.24 319.751  Z" fill="#ac8d18" fill-rule="evenodd" fill-opacity="0.15"/>
<polyline clip-path="url(#clip460)" style="stroke:#ac8d18; stroke-linecap:round; stroke-linejoin:round; stroke-width:4; stroke-opacity:0; fill:none" points="1256.24,278.279 1349.54,278.279 "/>
<path clip-path="url(#clip460)" d="M1367.31 315.578 L1367.31 311.318 Q1369.07 312.152 1370.88 312.592 Q1372.68 313.031 1374.42 313.031 Q1379.05 313.031 1381.48 309.93 Q1383.93 306.805 1384.28 300.462 Q1382.94 302.453 1380.88 303.518 Q1378.82 304.582 1376.32 304.582 Q1371.13 304.582 1368.1 301.457 Q1365.09 298.309 1365.09 292.87 Q1365.09 287.545 1368.24 284.328 Q1371.39 281.11 1376.62 281.11 Q1382.62 281.11 1385.76 285.717 Q1388.93 290.3 1388.93 299.05 Q1388.93 307.221 1385.05 312.106 Q1381.18 316.967 1374.63 316.967 Q1372.87 316.967 1371.06 316.619 Q1369.26 316.272 1367.31 315.578 M1376.62 300.925 Q1379.77 300.925 1381.6 298.772 Q1383.45 296.619 1383.45 292.87 Q1383.45 289.143 1381.6 286.99 Q1379.77 284.814 1376.62 284.814 Q1373.47 284.814 1371.62 286.99 Q1369.79 289.143 1369.79 292.87 Q1369.79 296.619 1371.62 298.772 Q1373.47 300.925 1376.62 300.925 Z" fill="#000000" fill-rule="nonzero" fill-opacity="1" /><path clip-path="url(#clip460)" d="M1397.38 281.735 L1415.74 281.735 L1415.74 285.67 L1401.67 285.67 L1401.67 294.143 Q1402.68 293.795 1403.7 293.633 Q1404.72 293.448 1405.74 293.448 Q1411.53 293.448 1414.91 296.619 Q1418.29 299.791 1418.29 305.207 Q1418.29 310.786 1414.81 313.888 Q1411.34 316.967 1405.02 316.967 Q1402.85 316.967 1400.58 316.596 Q1398.33 316.226 1395.93 315.485 L1395.93 310.786 Q1398.01 311.92 1400.23 312.476 Q1402.45 313.031 1404.93 313.031 Q1408.93 313.031 1411.27 310.925 Q1413.61 308.818 1413.61 305.207 Q1413.61 301.596 1411.27 299.49 Q1408.93 297.383 1404.93 297.383 Q1403.05 297.383 1401.18 297.8 Q1399.33 298.217 1397.38 299.096 L1397.38 281.735 Z" fill="#000000" fill-rule="nonzero" fill-opacity="1" /><path clip-path="url(#clip460)" d="M1456.9 301.087 Q1454.88 301.087 1453.73 302.8 Q1452.59 304.513 1452.59 307.569 Q1452.59 310.578 1453.73 312.314 Q1454.88 314.027 1456.9 314.027 Q1458.86 314.027 1460 312.314 Q1461.16 310.578 1461.16 307.569 Q1461.16 304.536 1460 302.823 Q1458.86 301.087 1456.9 301.087 M1456.9 298.147 Q1460.55 298.147 1462.71 300.694 Q1464.86 303.24 1464.86 307.569 Q1464.86 311.897 1462.68 314.443 Q1460.53 316.967 1456.9 316.967 Q1453.19 316.967 1451.04 314.443 Q1448.89 311.897 1448.89 307.569 Q1448.89 303.217 1451.04 300.694 Q1453.22 298.147 1456.9 298.147 M1433.01 284.05 Q1431.02 284.05 1429.86 285.786 Q1428.73 287.499 1428.73 290.508 Q1428.73 293.564 1429.86 295.277 Q1430.99 296.99 1433.01 296.99 Q1435.02 296.99 1436.16 295.277 Q1437.31 293.564 1437.31 290.508 Q1437.31 287.522 1436.16 285.786 Q1435 284.05 1433.01 284.05 M1453.91 281.11 L1457.61 281.11 L1435.99 316.967 L1432.29 316.967 L1453.91 281.11 M1433.01 281.11 Q1436.67 281.11 1438.84 283.657 Q1441.02 286.18 1441.02 290.508 Q1441.02 294.883 1438.84 297.407 Q1436.69 299.93 1433.01 299.93 Q1429.33 299.93 1427.18 297.407 Q1425.05 294.86 1425.05 290.508 Q1425.05 286.203 1427.2 283.657 Q1429.35 281.11 1433.01 281.11 Z" fill="#000000" fill-rule="nonzero" fill-opacity="1" /><path clip-path="url(#clip460)" d="M1513.08 284.397 L1513.08 289.328 Q1510.72 287.129 1508.03 286.041 Q1505.37 284.953 1502.36 284.953 Q1496.43 284.953 1493.29 288.587 Q1490.14 292.198 1490.14 299.05 Q1490.14 305.879 1493.29 309.513 Q1496.43 313.124 1502.36 313.124 Q1505.37 313.124 1508.03 312.036 Q1510.72 310.948 1513.08 308.749 L1513.08 313.633 Q1510.62 315.3 1507.87 316.133 Q1505.14 316.967 1502.08 316.967 Q1494.23 316.967 1489.72 312.175 Q1485.21 307.36 1485.21 299.05 Q1485.21 290.717 1489.72 285.925 Q1494.23 281.11 1502.08 281.11 Q1505.18 281.11 1507.92 281.944 Q1510.67 282.754 1513.08 284.397 Z" fill="#000000" fill-rule="nonzero" fill-opacity="1" /><path clip-path="url(#clip460)" d="M1520.3 281.735 L1524.98 281.735 L1524.98 316.295 L1520.3 316.295 L1520.3 281.735 Z" fill="#000000" fill-rule="nonzero" fill-opacity="1" /><path clip-path="url(#clip460)" d="M1534.7 310.416 L1539.58 310.416 L1539.58 316.295 L1534.7 316.295 L1534.7 310.416 Z" fill="#000000" fill-rule="nonzero" fill-opacity="1" /><path clip-path="url(#clip460)" d="M2153.2 1308.81 L3552.76 1308.81 L3552.76 103.312 L2153.2 103.312  Z" fill="#ffffff" fill-rule="evenodd" fill-opacity="1"/>
<defs>
  <clipPath id="clip463">
    <rect x="2153" y="103" width="1401" height="1206"/>
  </clipPath>
</defs>
<polyline clip-path="url(#clip463)" style="stroke:#000000; stroke-linecap:round; stroke-linejoin:round; stroke-width:2; stroke-opacity:0.1; fill:none" points="2192.81,1308.81 2192.81,103.312 "/>
<polyline clip-path="url(#clip463)" style="stroke:#000000; stroke-linecap:round; stroke-linejoin:round; stroke-width:2; stroke-opacity:0.1; fill:none" points="2522.89,1308.81 2522.89,103.312 "/>
<polyline clip-path="url(#clip463)" style="stroke:#000000; stroke-linecap:round; stroke-linejoin:round; stroke-width:2; stroke-opacity:0.1; fill:none" points="2852.98,1308.81 2852.98,103.312 "/>
<polyline clip-path="url(#clip463)" style="stroke:#000000; stroke-linecap:round; stroke-linejoin:round; stroke-width:2; stroke-opacity:0.1; fill:none" points="3183.06,1308.81 3183.06,103.312 "/>
<polyline clip-path="url(#clip463)" style="stroke:#000000; stroke-linecap:round; stroke-linejoin:round; stroke-width:2; stroke-opacity:0.1; fill:none" points="3513.15,1308.81 3513.15,103.312 "/>
<polyline clip-path="url(#clip460)" style="stroke:#000000; stroke-linecap:round; stroke-linejoin:round; stroke-width:4; stroke-opacity:1; fill:none" points="2153.2,1308.81 3552.76,1308.81 "/>
<polyline clip-path="url(#clip460)" style="stroke:#000000; stroke-linecap:round; stroke-linejoin:round; stroke-width:4; stroke-opacity:1; fill:none" points="2192.81,1308.81 2192.81,1289.91 "/>
<polyline clip-path="url(#clip460)" style="stroke:#000000; stroke-linecap:round; stroke-linejoin:round; stroke-width:4; stroke-opacity:1; fill:none" points="2522.89,1308.81 2522.89,1289.91 "/>
<polyline clip-path="url(#clip460)" style="stroke:#000000; stroke-linecap:round; stroke-linejoin:round; stroke-width:4; stroke-opacity:1; fill:none" points="2852.98,1308.81 2852.98,1289.91 "/>
<polyline clip-path="url(#clip460)" style="stroke:#000000; stroke-linecap:round; stroke-linejoin:round; stroke-width:4; stroke-opacity:1; fill:none" points="3183.06,1308.81 3183.06,1289.91 "/>
<polyline clip-path="url(#clip460)" style="stroke:#000000; stroke-linecap:round; stroke-linejoin:round; stroke-width:4; stroke-opacity:1; fill:none" points="3513.15,1308.81 3513.15,1289.91 "/>
<path clip-path="url(#clip460)" d="M2139.34 1363.98 L2169.01 1363.98 L2169.01 1367.91 L2139.34 1367.91 L2139.34 1363.98 Z" fill="#000000" fill-rule="nonzero" fill-opacity="1" /><path clip-path="url(#clip460)" d="M2179.92 1376.87 L2187.55 1376.87 L2187.55 1350.51 L2179.24 1352.17 L2179.24 1347.91 L2187.51 1346.25 L2192.18 1346.25 L2192.18 1376.87 L2199.82 1376.87 L2199.82 1380.81 L2179.92 1380.81 L2179.92 1376.87 Z" fill="#000000" fill-rule="nonzero" fill-opacity="1" /><path clip-path="url(#clip460)" d="M2209.27 1374.93 L2214.15 1374.93 L2214.15 1380.81 L2209.27 1380.81 L2209.27 1374.93 Z" fill="#000000" fill-rule="nonzero" fill-opacity="1" /><path clip-path="url(#clip460)" d="M2234.34 1349.33 Q2230.72 1349.33 2228.9 1352.89 Q2227.09 1356.43 2227.09 1363.56 Q2227.09 1370.67 2228.9 1374.23 Q2230.72 1377.78 2234.34 1377.78 Q2237.97 1377.78 2239.78 1374.23 Q2241.6 1370.67 2241.6 1363.56 Q2241.6 1356.43 2239.78 1352.89 Q2237.97 1349.33 2234.34 1349.33 M2234.34 1345.62 Q2240.15 1345.62 2243.2 1350.23 Q2246.28 1354.81 2246.28 1363.56 Q2246.28 1372.29 2243.2 1376.9 Q2240.15 1381.48 2234.34 1381.48 Q2228.53 1381.48 2225.45 1376.9 Q2222.39 1372.29 2222.39 1363.56 Q2222.39 1354.81 2225.45 1350.23 Q2228.53 1345.62 2234.34 1345.62 Z" fill="#000000" fill-rule="nonzero" fill-opacity="1" /><path clip-path="url(#clip460)" d="M2469.92 1363.98 L2499.59 1363.98 L2499.59 1367.91 L2469.92 1367.91 L2469.92 1363.98 Z" fill="#000000" fill-rule="nonzero" fill-opacity="1" /><path clip-path="url(#clip460)" d="M2519.69 1349.33 Q2516.08 1349.33 2514.25 1352.89 Q2512.44 1356.43 2512.44 1363.56 Q2512.44 1370.67 2514.25 1374.23 Q2516.08 1377.78 2519.69 1377.78 Q2523.32 1377.78 2525.13 1374.23 Q2526.96 1370.67 2526.96 1363.56 Q2526.96 1356.43 2525.13 1352.89 Q2523.32 1349.33 2519.69 1349.33 M2519.69 1345.62 Q2525.5 1345.62 2528.55 1350.23 Q2531.63 1354.81 2531.63 1363.56 Q2531.63 1372.29 2528.55 1376.9 Q2525.5 1381.48 2519.69 1381.48 Q2513.88 1381.48 2510.8 1376.9 Q2507.74 1372.29 2507.74 1363.56 Q2507.74 1354.81 2510.8 1350.23 Q2513.88 1345.62 2519.69 1345.62 Z" fill="#000000" fill-rule="nonzero" fill-opacity="1" /><path clip-path="url(#clip460)" d="M2539.85 1374.93 L2544.73 1374.93 L2544.73 1380.81 L2539.85 1380.81 L2539.85 1374.93 Z" fill="#000000" fill-rule="nonzero" fill-opacity="1" /><path clip-path="url(#clip460)" d="M2554.96 1346.25 L2573.32 1346.25 L2573.32 1350.18 L2559.25 1350.18 L2559.25 1358.65 Q2560.27 1358.31 2561.28 1358.15 Q2562.3 1357.96 2563.32 1357.96 Q2569.11 1357.96 2572.49 1361.13 Q2575.87 1364.3 2575.87 1369.72 Q2575.87 1375.3 2572.39 1378.4 Q2568.92 1381.48 2562.6 1381.48 Q2560.43 1381.48 2558.16 1381.11 Q2555.91 1380.74 2553.51 1380 L2553.51 1375.3 Q2555.59 1376.43 2557.81 1376.99 Q2560.03 1377.54 2562.51 1377.54 Q2566.52 1377.54 2568.85 1375.44 Q2571.19 1373.33 2571.19 1369.72 Q2571.19 1366.11 2568.85 1364 Q2566.52 1361.9 2562.51 1361.9 Q2560.64 1361.9 2558.76 1362.31 Q2556.91 1362.73 2554.96 1363.61 L2554.96 1346.25 Z" fill="#000000" fill-rule="nonzero" fill-opacity="1" /><path clip-path="url(#clip460)" d="M2830.36 1349.33 Q2826.75 1349.33 2824.92 1352.89 Q2823.12 1356.43 2823.12 1363.56 Q2823.12 1370.67 2824.92 1374.23 Q2826.75 1377.78 2830.36 1377.78 Q2834 1377.78 2835.8 1374.23 Q2837.63 1370.67 2837.63 1363.56 Q2837.63 1356.43 2835.8 1352.89 Q2834 1349.33 2830.36 1349.33 M2830.36 1345.62 Q2836.17 1345.62 2839.23 1350.23 Q2842.31 1354.81 2842.31 1363.56 Q2842.31 1372.29 2839.23 1376.9 Q2836.17 1381.48 2830.36 1381.48 Q2824.55 1381.48 2821.47 1376.9 Q2818.42 1372.29 2818.42 1363.56 Q2818.42 1354.81 2821.47 1350.23 Q2824.55 1345.62 2830.36 1345.62 Z" fill="#000000" fill-rule="nonzero" fill-opacity="1" /><path clip-path="url(#clip460)" d="M2850.52 1374.93 L2855.41 1374.93 L2855.41 1380.81 L2850.52 1380.81 L2850.52 1374.93 Z" fill="#000000" fill-rule="nonzero" fill-opacity="1" /><path clip-path="url(#clip460)" d="M2875.59 1349.33 Q2871.98 1349.33 2870.15 1352.89 Q2868.35 1356.43 2868.35 1363.56 Q2868.35 1370.67 2870.15 1374.23 Q2871.98 1377.78 2875.59 1377.78 Q2879.23 1377.78 2881.03 1374.23 Q2882.86 1370.67 2882.86 1363.56 Q2882.86 1356.43 2881.03 1352.89 Q2879.23 1349.33 2875.59 1349.33 M2875.59 1345.62 Q2881.4 1345.62 2884.46 1350.23 Q2887.54 1354.81 2887.54 1363.56 Q2887.54 1372.29 2884.46 1376.9 Q2881.4 1381.48 2875.59 1381.48 Q2869.78 1381.48 2866.7 1376.9 Q2863.65 1372.29 2863.65 1363.56 Q2863.65 1354.81 2866.7 1350.23 Q2869.78 1345.62 2875.59 1345.62 Z" fill="#000000" fill-rule="nonzero" fill-opacity="1" /><path clip-path="url(#clip460)" d="M3160.94 1349.33 Q3157.33 1349.33 3155.5 1352.89 Q3153.7 1356.43 3153.7 1363.56 Q3153.7 1370.67 3155.5 1374.23 Q3157.33 1377.78 3160.94 1377.78 Q3164.58 1377.78 3166.38 1374.23 Q3168.21 1370.67 3168.21 1363.56 Q3168.21 1356.43 3166.38 1352.89 Q3164.58 1349.33 3160.94 1349.33 M3160.94 1345.62 Q3166.75 1345.62 3169.81 1350.23 Q3172.89 1354.81 3172.89 1363.56 Q3172.89 1372.29 3169.81 1376.9 Q3166.75 1381.48 3160.94 1381.48 Q3155.13 1381.48 3152.05 1376.9 Q3149 1372.29 3149 1363.56 Q3149 1354.81 3152.05 1350.23 Q3155.13 1345.62 3160.94 1345.62 Z" fill="#000000" fill-rule="nonzero" fill-opacity="1" /><path clip-path="url(#clip460)" d="M3181.11 1374.93 L3185.99 1374.93 L3185.99 1380.81 L3181.11 1380.81 L3181.11 1374.93 Z" fill="#000000" fill-rule="nonzero" fill-opacity="1" /><path clip-path="url(#clip460)" d="M3196.22 1346.25 L3214.58 1346.25 L3214.58 1350.18 L3200.5 1350.18 L3200.5 1358.65 Q3201.52 1358.31 3202.54 1358.15 Q3203.56 1357.96 3204.58 1357.96 Q3210.36 1357.96 3213.74 1361.13 Q3217.12 1364.3 3217.12 1369.72 Q3217.12 1375.3 3213.65 1378.4 Q3210.18 1381.48 3203.86 1381.48 Q3201.68 1381.48 3199.42 1381.11 Q3197.17 1380.74 3194.76 1380 L3194.76 1375.3 Q3196.85 1376.43 3199.07 1376.99 Q3201.29 1377.54 3203.77 1377.54 Q3207.77 1377.54 3210.11 1375.44 Q3212.45 1373.33 3212.45 1369.72 Q3212.45 1366.11 3210.11 1364 Q3207.77 1361.9 3203.77 1361.9 Q3201.89 1361.9 3200.02 1362.31 Q3198.17 1362.73 3196.22 1363.61 L3196.22 1346.25 Z" fill="#000000" fill-rule="nonzero" fill-opacity="1" /><path clip-path="url(#clip460)" d="M3480.3 1376.87 L3487.94 1376.87 L3487.94 1350.51 L3479.63 1352.17 L3479.63 1347.91 L3487.89 1346.25 L3492.57 1346.25 L3492.57 1376.87 L3500.21 1376.87 L3500.21 1380.81 L3480.3 1380.81 L3480.3 1376.87 Z" fill="#000000" fill-rule="nonzero" fill-opacity="1" /><path clip-path="url(#clip460)" d="M3509.65 1374.93 L3514.53 1374.93 L3514.53 1380.81 L3509.65 1380.81 L3509.65 1374.93 Z" fill="#000000" fill-rule="nonzero" fill-opacity="1" /><path clip-path="url(#clip460)" d="M3534.72 1349.33 Q3531.11 1349.33 3529.28 1352.89 Q3527.47 1356.43 3527.47 1363.56 Q3527.47 1370.67 3529.28 1374.23 Q3531.11 1377.78 3534.72 1377.78 Q3538.35 1377.78 3540.16 1374.23 Q3541.99 1370.67 3541.99 1363.56 Q3541.99 1356.43 3540.16 1352.89 Q3538.35 1349.33 3534.72 1349.33 M3534.72 1345.62 Q3540.53 1345.62 3543.59 1350.23 Q3546.66 1354.81 3546.66 1363.56 Q3546.66 1372.29 3543.59 1376.9 Q3540.53 1381.48 3534.72 1381.48 Q3528.91 1381.48 3525.83 1376.9 Q3522.78 1372.29 3522.78 1363.56 Q3522.78 1354.81 3525.83 1350.23 Q3528.91 1345.62 3534.72 1345.62 Z" fill="#000000" fill-rule="nonzero" fill-opacity="1" /><path clip-path="url(#clip460)" d="M2869.59 1436.02 L2856.7 1453.37 L2870.26 1471.67 L2863.35 1471.67 L2852.98 1457.67 L2842.6 1471.67 L2835.69 1471.67 L2849.54 1453.02 L2836.87 1436.02 L2843.78 1436.02 L2853.23 1448.72 L2862.68 1436.02 L2869.59 1436.02 Z" fill="#000000" fill-rule="nonzero" fill-opacity="1" /><polyline clip-path="url(#clip463)" style="stroke:#000000; stroke-linecap:round; stroke-linejoin:round; stroke-width:2; stroke-opacity:0.1; fill:none" points="2153.2,1087.4 3552.76,1087.4 "/>
<polyline clip-path="url(#clip463)" style="stroke:#000000; stroke-linecap:round; stroke-linejoin:round; stroke-width:2; stroke-opacity:0.1; fill:none" points="2153.2,826.196 3552.76,826.196 "/>
<polyline clip-path="url(#clip463)" style="stroke:#000000; stroke-linecap:round; stroke-linejoin:round; stroke-width:2; stroke-opacity:0.1; fill:none" points="2153.2,564.995 3552.76,564.995 "/>
<polyline clip-path="url(#clip463)" style="stroke:#000000; stroke-linecap:round; stroke-linejoin:round; stroke-width:2; stroke-opacity:0.1; fill:none" points="2153.2,303.793 3552.76,303.793 "/>
<polyline clip-path="url(#clip460)" style="stroke:#000000; stroke-linecap:round; stroke-linejoin:round; stroke-width:4; stroke-opacity:1; fill:none" points="2153.2,1308.81 2153.2,103.312 "/>
<polyline clip-path="url(#clip460)" style="stroke:#000000; stroke-linecap:round; stroke-linejoin:round; stroke-width:4; stroke-opacity:1; fill:none" points="2153.2,1087.4 2172.1,1087.4 "/>
<polyline clip-path="url(#clip460)" style="stroke:#000000; stroke-linecap:round; stroke-linejoin:round; stroke-width:4; stroke-opacity:1; fill:none" points="2153.2,826.196 2172.1,826.196 "/>
<polyline clip-path="url(#clip460)" style="stroke:#000000; stroke-linecap:round; stroke-linejoin:round; stroke-width:4; stroke-opacity:1; fill:none" points="2153.2,564.995 2172.1,564.995 "/>
<polyline clip-path="url(#clip460)" style="stroke:#000000; stroke-linecap:round; stroke-linejoin:round; stroke-width:4; stroke-opacity:1; fill:none" points="2153.2,303.793 2172.1,303.793 "/>
<path clip-path="url(#clip460)" d="M2042.12 1073.2 Q2038.5 1073.2 2036.68 1076.76 Q2034.87 1080.3 2034.87 1087.43 Q2034.87 1094.54 2036.68 1098.1 Q2038.5 1101.65 2042.12 1101.65 Q2045.75 1101.65 2047.56 1098.1 Q2049.38 1094.54 2049.38 1087.43 Q2049.38 1080.3 2047.56 1076.76 Q2045.75 1073.2 2042.12 1073.2 M2042.12 1069.49 Q2047.93 1069.49 2050.98 1074.1 Q2054.06 1078.68 2054.06 1087.43 Q2054.06 1096.16 2050.98 1100.77 Q2047.93 1105.35 2042.12 1105.35 Q2036.31 1105.35 2033.23 1100.77 Q2030.17 1096.16 2030.17 1087.43 Q2030.17 1078.68 2033.23 1074.1 Q2036.31 1069.49 2042.12 1069.49 Z" fill="#000000" fill-rule="nonzero" fill-opacity="1" /><path clip-path="url(#clip460)" d="M2062.28 1098.8 L2067.16 1098.8 L2067.16 1104.68 L2062.28 1104.68 L2062.28 1098.8 Z" fill="#000000" fill-rule="nonzero" fill-opacity="1" /><path clip-path="url(#clip460)" d="M2087.35 1088.27 Q2084.01 1088.27 2082.09 1090.05 Q2080.19 1091.83 2080.19 1094.96 Q2080.19 1098.08 2082.09 1099.86 Q2084.01 1101.65 2087.35 1101.65 Q2090.68 1101.65 2092.6 1099.86 Q2094.52 1098.06 2094.52 1094.96 Q2094.52 1091.83 2092.6 1090.05 Q2090.7 1088.27 2087.35 1088.27 M2082.67 1086.28 Q2079.66 1085.53 2077.97 1083.47 Q2076.3 1081.41 2076.3 1078.45 Q2076.3 1074.31 2079.24 1071.9 Q2082.21 1069.49 2087.35 1069.49 Q2092.51 1069.49 2095.45 1071.9 Q2098.39 1074.31 2098.39 1078.45 Q2098.39 1081.41 2096.7 1083.47 Q2095.03 1085.53 2092.05 1086.28 Q2095.43 1087.06 2097.3 1089.35 Q2099.2 1091.65 2099.2 1094.96 Q2099.2 1099.98 2096.12 1102.66 Q2093.06 1105.35 2087.35 1105.35 Q2081.63 1105.35 2078.55 1102.66 Q2075.49 1099.98 2075.49 1094.96 Q2075.49 1091.65 2077.39 1089.35 Q2079.29 1087.06 2082.67 1086.28 M2080.96 1078.89 Q2080.96 1081.58 2082.62 1083.08 Q2084.31 1084.59 2087.35 1084.59 Q2090.36 1084.59 2092.05 1083.08 Q2093.76 1081.58 2093.76 1078.89 Q2093.76 1076.21 2092.05 1074.7 Q2090.36 1073.2 2087.35 1073.2 Q2084.31 1073.2 2082.62 1074.7 Q2080.96 1076.21 2080.96 1078.89 Z" fill="#000000" fill-rule="nonzero" fill-opacity="1" /><path clip-path="url(#clip460)" d="M2032.83 839.541 L2040.47 839.541 L2040.47 813.175 L2032.16 814.842 L2032.16 810.583 L2040.43 808.916 L2045.1 808.916 L2045.1 839.541 L2052.74 839.541 L2052.74 843.476 L2032.83 843.476 L2032.83 839.541 Z" fill="#000000" fill-rule="nonzero" fill-opacity="1" /><path clip-path="url(#clip460)" d="M2062.18 837.596 L2067.07 837.596 L2067.07 843.476 L2062.18 843.476 L2062.18 837.596 Z" fill="#000000" fill-rule="nonzero" fill-opacity="1" /><path clip-path="url(#clip460)" d="M2087.25 811.995 Q2083.64 811.995 2081.81 815.56 Q2080.01 819.101 2080.01 826.231 Q2080.01 833.337 2081.81 836.902 Q2083.64 840.444 2087.25 840.444 Q2090.89 840.444 2092.69 836.902 Q2094.52 833.337 2094.52 826.231 Q2094.52 819.101 2092.69 815.56 Q2090.89 811.995 2087.25 811.995 M2087.25 808.291 Q2093.06 808.291 2096.12 812.898 Q2099.2 817.481 2099.2 826.231 Q2099.2 834.958 2096.12 839.564 Q2093.06 844.147 2087.25 844.147 Q2081.44 844.147 2078.37 839.564 Q2075.31 834.958 2075.31 826.231 Q2075.31 817.481 2078.37 812.898 Q2081.44 808.291 2087.25 808.291 Z" fill="#000000" fill-rule="nonzero" fill-opacity="1" /><path clip-path="url(#clip460)" d="M2034.43 578.339 L2042.07 578.339 L2042.07 551.974 L2033.76 553.64 L2033.76 549.381 L2042.02 547.715 L2046.7 547.715 L2046.7 578.339 L2054.34 578.339 L2054.34 582.275 L2034.43 582.275 L2034.43 578.339 Z" fill="#000000" fill-rule="nonzero" fill-opacity="1" /><path clip-path="url(#clip460)" d="M2063.78 576.395 L2068.67 576.395 L2068.67 582.275 L2063.78 582.275 L2063.78 576.395 Z" fill="#000000" fill-rule="nonzero" fill-opacity="1" /><path clip-path="url(#clip460)" d="M2082.88 578.339 L2099.2 578.339 L2099.2 582.275 L2077.25 582.275 L2077.25 578.339 Q2079.92 575.585 2084.5 570.955 Q2089.11 566.302 2090.29 564.96 Q2092.53 562.437 2093.41 560.701 Q2094.31 558.941 2094.31 557.251 Q2094.31 554.497 2092.37 552.761 Q2090.45 551.025 2087.35 551.025 Q2085.15 551.025 2082.69 551.789 Q2080.26 552.552 2077.49 554.103 L2077.49 549.381 Q2080.31 548.247 2082.76 547.668 Q2085.22 547.09 2087.25 547.09 Q2092.62 547.09 2095.82 549.775 Q2099.01 552.46 2099.01 556.951 Q2099.01 559.08 2098.2 561.001 Q2097.42 562.9 2095.31 565.492 Q2094.73 566.163 2091.63 569.381 Q2088.53 572.575 2082.88 578.339 Z" fill="#000000" fill-rule="nonzero" fill-opacity="1" /><path clip-path="url(#clip460)" d="M2032.35 317.138 L2039.99 317.138 L2039.99 290.772 L2031.68 292.439 L2031.68 288.18 L2039.94 286.513 L2044.62 286.513 L2044.62 317.138 L2052.25 317.138 L2052.25 321.073 L2032.35 321.073 L2032.35 317.138 Z" fill="#000000" fill-rule="nonzero" fill-opacity="1" /><path clip-path="url(#clip460)" d="M2061.7 315.193 L2066.58 315.193 L2066.58 321.073 L2061.7 321.073 L2061.7 315.193 Z" fill="#000000" fill-rule="nonzero" fill-opacity="1" /><path clip-path="url(#clip460)" d="M2089.62 290.587 L2077.81 309.036 L2089.62 309.036 L2089.62 290.587 M2088.39 286.513 L2094.27 286.513 L2094.27 309.036 L2099.2 309.036 L2099.2 312.925 L2094.27 312.925 L2094.27 321.073 L2089.62 321.073 L2089.62 312.925 L2074.01 312.925 L2074.01 308.411 L2088.39 286.513 Z" fill="#000000" fill-rule="nonzero" fill-opacity="1" /><path clip-path="url(#clip460)" d="M1943.68 740.864 Q1937.31 740.864 1933.81 743.506 Q1930.31 746.116 1930.31 750.859 Q1930.31 755.569 1933.81 758.211 Q1937.31 760.821 1943.68 760.821 Q1950.01 760.821 1953.51 758.211 Q1957.01 755.569 1957.01 750.859 Q1957.01 746.116 1953.51 743.506 Q1950.01 740.864 1943.68 740.864 M1957.49 735.008 Q1966.59 735.008 1971.02 739.05 Q1975.47 743.092 1975.47 751.431 Q1975.47 754.519 1975 757.256 Q1974.55 759.993 1973.6 762.571 L1967.9 762.571 Q1969.3 759.993 1969.97 757.479 Q1970.64 754.964 1970.64 752.354 Q1970.64 746.593 1967.61 743.729 Q1964.62 740.864 1958.54 740.864 L1955.64 740.864 Q1958.8 742.679 1960.36 745.511 Q1961.91 748.344 1961.91 752.291 Q1961.91 758.847 1956.92 762.858 Q1951.92 766.868 1943.68 766.868 Q1935.4 766.868 1930.4 762.858 Q1925.41 758.847 1925.41 752.291 Q1925.41 748.344 1926.97 745.511 Q1928.53 742.679 1931.68 740.864 L1926.27 740.864 L1926.27 735.008 L1957.49 735.008 Z" fill="#000000" fill-rule="nonzero" fill-opacity="1" /><path clip-path="url(#clip460)" d="M1912.45 708.877 Q1919.77 713.142 1926.94 715.211 Q1934.1 717.279 1941.45 717.279 Q1948.8 717.279 1956.03 715.211 Q1963.22 713.11 1970.51 708.877 L1970.51 713.969 Q1963.03 718.744 1955.8 721.131 Q1948.58 723.486 1941.45 723.486 Q1934.35 723.486 1927.16 721.131 Q1919.96 718.775 1912.45 713.969 L1912.45 708.877 Z" fill="#000000" fill-rule="nonzero" fill-opacity="1" /><path clip-path="url(#clip460)" d="M1926.27 667.882 L1943.61 680.772 L1961.91 667.213 L1961.91 674.12 L1947.91 684.496 L1961.91 694.872 L1961.91 701.779 L1943.26 687.933 L1926.27 700.601 L1926.27 693.694 L1938.97 684.241 L1926.27 674.788 L1926.27 667.882 Z" fill="#000000" fill-rule="nonzero" fill-opacity="1" /><path clip-path="url(#clip460)" d="M1912.45 659.861 L1912.45 654.768 Q1919.96 649.994 1927.16 647.639 Q1934.35 645.251 1941.45 645.251 Q1948.58 645.251 1955.8 647.639 Q1963.03 649.994 1970.51 654.768 L1970.51 659.861 Q1963.22 655.628 1956.03 653.559 Q1948.8 651.458 1941.45 651.458 Q1934.1 651.458 1926.94 653.559 Q1919.77 655.628 1912.45 659.861 Z" fill="#000000" fill-rule="nonzero" fill-opacity="1" /><path clip-path="url(#clip460)" d="M2562.87 12.096 L2573.89 12.096 L2600.71 62.6918 L2600.71 12.096 L2608.65 12.096 L2608.65 72.576 L2597.63 72.576 L2570.81 21.9802 L2570.81 72.576 L2562.87 72.576 L2562.87 12.096 Z" fill="#000000" fill-rule="nonzero" fill-opacity="1" /><path clip-path="url(#clip460)" d="M2642.19 32.4315 Q2636.19 32.4315 2632.71 37.1306 Q2629.23 41.7891 2629.23 49.9314 Q2629.23 58.0738 2632.67 62.7728 Q2636.15 67.4314 2642.19 67.4314 Q2648.14 67.4314 2651.63 62.7323 Q2655.11 58.0333 2655.11 49.9314 Q2655.11 41.8701 2651.63 37.1711 Q2648.14 32.4315 2642.19 32.4315 M2642.19 26.1121 Q2651.91 26.1121 2657.46 32.4315 Q2663.01 38.7509 2663.01 49.9314 Q2663.01 61.0714 2657.46 67.4314 Q2651.91 73.7508 2642.19 73.7508 Q2632.43 73.7508 2626.88 67.4314 Q2621.37 61.0714 2621.37 49.9314 Q2621.37 38.7509 2626.88 32.4315 Q2632.43 26.1121 2642.19 26.1121 Z" fill="#000000" fill-rule="nonzero" fill-opacity="1" /><path clip-path="url(#clip460)" d="M2675.37 27.2059 L2682.82 27.2059 L2682.82 72.576 L2675.37 72.576 L2675.37 27.2059 M2675.37 9.54393 L2682.82 9.54393 L2682.82 18.9825 L2675.37 18.9825 L2675.37 9.54393 Z" fill="#000000" fill-rule="nonzero" fill-opacity="1" /><path clip-path="url(#clip460)" d="M2727.34 28.5427 L2727.34 35.5912 Q2724.18 33.9709 2720.78 33.1607 Q2717.37 32.3505 2713.73 32.3505 Q2708.18 32.3505 2705.38 34.0519 Q2702.63 35.7533 2702.63 39.156 Q2702.63 41.7486 2704.61 43.2475 Q2706.6 44.7058 2712.59 46.0426 L2715.15 46.6097 Q2723.08 48.3111 2726.41 51.4303 Q2729.77 54.509 2729.77 60.0587 Q2729.77 66.3781 2724.75 70.0644 Q2719.76 73.7508 2711.01 73.7508 Q2707.37 73.7508 2703.4 73.0216 Q2699.47 72.3329 2695.09 70.9151 L2695.09 63.2184 Q2699.23 65.3654 2703.24 66.4591 Q2707.25 67.5124 2711.18 67.5124 Q2716.44 67.5124 2719.28 65.73 Q2722.11 63.9071 2722.11 60.6258 Q2722.11 57.5877 2720.05 55.9673 Q2718.02 54.3469 2711.09 52.8481 L2708.5 52.2405 Q2701.57 50.7821 2698.5 47.7845 Q2695.42 44.7463 2695.42 39.4801 Q2695.42 33.0797 2699.95 29.5959 Q2704.49 26.1121 2712.84 26.1121 Q2716.97 26.1121 2720.61 26.7198 Q2724.26 27.3274 2727.34 28.5427 Z" fill="#000000" fill-rule="nonzero" fill-opacity="1" /><path clip-path="url(#clip460)" d="M2780.45 48.0275 L2780.45 51.6733 L2746.18 51.6733 Q2746.66 59.3701 2750.79 63.421 Q2754.97 67.4314 2762.38 67.4314 Q2766.67 67.4314 2770.68 66.3781 Q2774.73 65.3249 2778.7 63.2184 L2778.7 70.267 Q2774.69 71.9684 2770.48 72.8596 Q2766.27 73.7508 2761.93 73.7508 Q2751.08 73.7508 2744.72 67.4314 Q2738.4 61.1119 2738.4 50.3365 Q2738.4 39.1965 2744.39 32.6746 Q2750.43 26.1121 2760.64 26.1121 Q2769.79 26.1121 2775.1 32.0264 Q2780.45 37.9003 2780.45 48.0275 M2772.99 45.84 Q2772.91 39.7232 2769.55 36.0774 Q2766.23 32.4315 2760.72 32.4315 Q2754.48 32.4315 2750.71 35.9558 Q2746.99 39.4801 2746.42 45.8805 L2772.99 45.84 Z" fill="#000000" fill-rule="nonzero" fill-opacity="1" /><path clip-path="url(#clip460)" d="M2842.02 9.54393 L2842.02 15.7418 L2834.89 15.7418 Q2830.88 15.7418 2829.3 17.3622 Q2827.76 18.9825 2827.76 23.1955 L2827.76 27.2059 L2840.03 27.2059 L2840.03 32.9987 L2827.76 32.9987 L2827.76 72.576 L2820.27 72.576 L2820.27 32.9987 L2813.14 32.9987 L2813.14 27.2059 L2820.27 27.2059 L2820.27 24.0462 Q2820.27 16.471 2823.79 13.0277 Q2827.31 9.54393 2834.97 9.54393 L2842.02 9.54393 Z" fill="#000000" fill-rule="nonzero" fill-opacity="1" /><path clip-path="url(#clip460)" d="M2847.49 54.671 L2847.49 27.2059 L2854.94 27.2059 L2854.94 54.3874 Q2854.94 60.8284 2857.45 64.0691 Q2859.96 67.2693 2864.99 67.2693 Q2871.02 67.2693 2874.51 63.421 Q2878.03 59.5726 2878.03 52.9291 L2878.03 27.2059 L2885.49 27.2059 L2885.49 72.576 L2878.03 72.576 L2878.03 65.6084 Q2875.32 69.7404 2871.71 71.7658 Q2868.15 73.7508 2863.41 73.7508 Q2855.59 73.7508 2851.54 68.8897 Q2847.49 64.0286 2847.49 54.671 M2866.24 26.1121 L2866.24 26.1121 Z" fill="#000000" fill-rule="nonzero" fill-opacity="1" /><path clip-path="url(#clip460)" d="M2938.55 45.1919 L2938.55 72.576 L2931.1 72.576 L2931.1 45.4349 Q2931.1 38.994 2928.59 35.7938 Q2926.08 32.5936 2921.05 32.5936 Q2915.02 32.5936 2911.53 36.4419 Q2908.05 40.2903 2908.05 46.9338 L2908.05 72.576 L2900.56 72.576 L2900.56 27.2059 L2908.05 27.2059 L2908.05 34.2544 Q2910.72 30.163 2914.33 28.1376 Q2917.97 26.1121 2922.71 26.1121 Q2930.53 26.1121 2934.54 30.9732 Q2938.55 35.7938 2938.55 45.1919 Z" fill="#000000" fill-rule="nonzero" fill-opacity="1" /><path clip-path="url(#clip460)" d="M2986.07 28.9478 L2986.07 35.9153 Q2982.91 34.1734 2979.71 33.3227 Q2976.55 32.4315 2973.31 32.4315 Q2966.06 32.4315 2962.05 37.0496 Q2958.04 41.6271 2958.04 49.9314 Q2958.04 58.2358 2962.05 62.8538 Q2966.06 67.4314 2973.31 67.4314 Q2976.55 67.4314 2979.71 66.5807 Q2982.91 65.6895 2986.07 63.9476 L2986.07 70.8341 Q2982.95 72.2924 2979.59 73.0216 Q2976.27 73.7508 2972.5 73.7508 Q2962.25 73.7508 2956.21 67.3098 Q2950.18 60.8689 2950.18 49.9314 Q2950.18 38.832 2956.25 32.472 Q2962.37 26.1121 2972.99 26.1121 Q2976.43 26.1121 2979.71 26.8413 Q2982.99 27.5299 2986.07 28.9478 Z" fill="#000000" fill-rule="nonzero" fill-opacity="1" /><path clip-path="url(#clip460)" d="M3006.41 14.324 L3006.41 27.2059 L3021.76 27.2059 L3021.76 32.9987 L3006.41 32.9987 L3006.41 57.6282 Q3006.41 63.1779 3007.9 64.7578 Q3009.44 66.3376 3014.1 66.3376 L3021.76 66.3376 L3021.76 72.576 L3014.1 72.576 Q3005.47 72.576 3002.19 69.3758 Q2998.91 66.1351 2998.91 57.6282 L2998.91 32.9987 L2993.44 32.9987 L2993.44 27.2059 L2998.91 27.2059 L2998.91 14.324 L3006.41 14.324 Z" fill="#000000" fill-rule="nonzero" fill-opacity="1" /><path clip-path="url(#clip460)" d="M3031.56 27.2059 L3039.01 27.2059 L3039.01 72.576 L3031.56 72.576 L3031.56 27.2059 M3031.56 9.54393 L3039.01 9.54393 L3039.01 18.9825 L3031.56 18.9825 L3031.56 9.54393 Z" fill="#000000" fill-rule="nonzero" fill-opacity="1" /><path clip-path="url(#clip460)" d="M3072.19 32.4315 Q3066.2 32.4315 3062.71 37.1306 Q3059.23 41.7891 3059.23 49.9314 Q3059.23 58.0738 3062.67 62.7728 Q3066.16 67.4314 3072.19 67.4314 Q3078.15 67.4314 3081.63 62.7323 Q3085.11 58.0333 3085.11 49.9314 Q3085.11 41.8701 3081.63 37.1711 Q3078.15 32.4315 3072.19 32.4315 M3072.19 26.1121 Q3081.91 26.1121 3087.46 32.4315 Q3093.01 38.7509 3093.01 49.9314 Q3093.01 61.0714 3087.46 67.4314 Q3081.91 73.7508 3072.19 73.7508 Q3062.43 73.7508 3056.88 67.4314 Q3051.37 61.0714 3051.37 49.9314 Q3051.37 38.7509 3056.88 32.4315 Q3062.43 26.1121 3072.19 26.1121 Z" fill="#000000" fill-rule="nonzero" fill-opacity="1" /><path clip-path="url(#clip460)" d="M3143.08 45.1919 L3143.08 72.576 L3135.63 72.576 L3135.63 45.4349 Q3135.63 38.994 3133.12 35.7938 Q3130.61 32.5936 3125.58 32.5936 Q3119.55 32.5936 3116.06 36.4419 Q3112.58 40.2903 3112.58 46.9338 L3112.58 72.576 L3105.09 72.576 L3105.09 27.2059 L3112.58 27.2059 L3112.58 34.2544 Q3115.25 30.163 3118.86 28.1376 Q3122.5 26.1121 3127.24 26.1121 Q3135.06 26.1121 3139.07 30.9732 Q3143.08 35.7938 3143.08 45.1919 Z" fill="#000000" fill-rule="nonzero" fill-opacity="1" /><circle clip-path="url(#clip463)" cx="2192.81" cy="800.171" r="14.4" fill="#009af9" fill-rule="evenodd" fill-opacity="1" stroke="#000000" stroke-opacity="1" stroke-width="3.2"/>
<circle clip-path="url(#clip463)" cx="2262.3" cy="808.664" r="14.4" fill="#009af9" fill-rule="evenodd" fill-opacity="1" stroke="#000000" stroke-opacity="1" stroke-width="3.2"/>
<circle clip-path="url(#clip463)" cx="2331.79" cy="824.183" r="14.4" fill="#009af9" fill-rule="evenodd" fill-opacity="1" stroke="#000000" stroke-opacity="1" stroke-width="3.2"/>
<circle clip-path="url(#clip463)" cx="2401.28" cy="815.391" r="14.4" fill="#009af9" fill-rule="evenodd" fill-opacity="1" stroke="#000000" stroke-opacity="1" stroke-width="3.2"/>
<circle clip-path="url(#clip463)" cx="2470.77" cy="815.468" r="14.4" fill="#009af9" fill-rule="evenodd" fill-opacity="1" stroke="#000000" stroke-opacity="1" stroke-width="3.2"/>
<circle clip-path="url(#clip463)" cx="2540.27" cy="822.335" r="14.4" fill="#009af9" fill-rule="evenodd" fill-opacity="1" stroke="#000000" stroke-opacity="1" stroke-width="3.2"/>
<circle clip-path="url(#clip463)" cx="2609.76" cy="823.147" r="14.4" fill="#009af9" fill-rule="evenodd" fill-opacity="1" stroke="#000000" stroke-opacity="1" stroke-width="3.2"/>
<circle clip-path="url(#clip463)" cx="2679.25" cy="818.341" r="14.4" fill="#009af9" fill-rule="evenodd" fill-opacity="1" stroke="#000000" stroke-opacity="1" stroke-width="3.2"/>
<circle clip-path="url(#clip463)" cx="2748.74" cy="809.324" r="14.4" fill="#009af9" fill-rule="evenodd" fill-opacity="1" stroke="#000000" stroke-opacity="1" stroke-width="3.2"/>
<circle clip-path="url(#clip463)" cx="2818.23" cy="797.135" r="14.4" fill="#009af9" fill-rule="evenodd" fill-opacity="1" stroke="#000000" stroke-opacity="1" stroke-width="3.2"/>
<circle clip-path="url(#clip463)" cx="2887.72" cy="780.979" r="14.4" fill="#009af9" fill-rule="evenodd" fill-opacity="1" stroke="#000000" stroke-opacity="1" stroke-width="3.2"/>
<circle clip-path="url(#clip463)" cx="2957.21" cy="770.214" r="14.4" fill="#009af9" fill-rule="evenodd" fill-opacity="1" stroke="#000000" stroke-opacity="1" stroke-width="3.2"/>
<circle clip-path="url(#clip463)" cx="3026.71" cy="764.611" r="14.4" fill="#009af9" fill-rule="evenodd" fill-opacity="1" stroke="#000000" stroke-opacity="1" stroke-width="3.2"/>
<circle clip-path="url(#clip463)" cx="3096.2" cy="763.513" r="14.4" fill="#009af9" fill-rule="evenodd" fill-opacity="1" stroke="#000000" stroke-opacity="1" stroke-width="3.2"/>
<circle clip-path="url(#clip463)" cx="3165.69" cy="747.496" r="14.4" fill="#009af9" fill-rule="evenodd" fill-opacity="1" stroke="#000000" stroke-opacity="1" stroke-width="3.2"/>
<circle clip-path="url(#clip463)" cx="3235.18" cy="712.801" r="14.4" fill="#009af9" fill-rule="evenodd" fill-opacity="1" stroke="#000000" stroke-opacity="1" stroke-width="3.2"/>
<circle clip-path="url(#clip463)" cx="3304.67" cy="658.085" r="14.4" fill="#009af9" fill-rule="evenodd" fill-opacity="1" stroke="#000000" stroke-opacity="1" stroke-width="3.2"/>
<circle clip-path="url(#clip463)" cx="3374.16" cy="597.875" r="14.4" fill="#009af9" fill-rule="evenodd" fill-opacity="1" stroke="#000000" stroke-opacity="1" stroke-width="3.2"/>
<circle clip-path="url(#clip463)" cx="3443.65" cy="553.932" r="14.4" fill="#009af9" fill-rule="evenodd" fill-opacity="1" stroke="#000000" stroke-opacity="1" stroke-width="3.2"/>
<circle clip-path="url(#clip463)" cx="3513.15" cy="533.106" r="14.4" fill="#009af9" fill-rule="evenodd" fill-opacity="1" stroke="#000000" stroke-opacity="1" stroke-width="3.2"/>
<polyline clip-path="url(#clip463)" style="stroke:#e26f46; stroke-linecap:round; stroke-linejoin:round; stroke-width:4; stroke-opacity:1; fill:none" points="2192.81,826.196 2201.4,826.196 2280.89,826.196 2328.65,826.196 2369.04,826.196 2412.91,826.196 2453.35,826.196 2496.72,826.196 2546.95,826.196 2591.6,826.196 2630.75,826.196 2673.43,826.196 2716.37,826.196 2763.84,826.196 2809.01,826.196 2832.5,826.196 2855.98,826.189 2875.75,825.808 2895.51,824.841 2907.58,823.962 2919.65,822.866 2931.71,821.552 2943.78,820.019 2965.89,816.645 2988,812.538 3008.42,808.095 3028.84,803.027 3049.52,797.257 3070.2,790.845 3093.38,782.898 3116.56,774.146 3137.57,765.52 3158.57,756.232 3170.6,750.618 3182.62,744.787 3194.65,738.74 3206.67,732.476 3228.94,720.303 3251.21,707.388 3273.16,693.928 3295.11,679.746 3316.43,665.285 3337.74,650.144 3359.59,633.915 3381.44,616.971 3393.41,607.386 3405.38,597.586 3417.35,587.572 3429.32,577.342 3446.71,562.1 3464.1,546.405 3481.49,530.257 3498.88,513.656 3502.44,510.194 3506.01,506.713 3509.58,503.213 3513.15,499.694 "/>
<path clip-path="url(#clip463)" d="M2192.81 1274.69 L2262.3 1196.12 L2331.79 1091.86 L2401.28 1041.73 L2470.77 1007.29 L2540.27 958.24 L2609.76 962.371 L2679.25 936.398 L2748.74 923.817 L2818.23 892.804 L2887.72 869.658 L2957.21 862.335 L3026.71 854.782 L3096.2 868.995 L3165.69 877.056 L3235.18 845.799 L3304.67 834.914 L3374.16 805.326 L3443.65 795.742 L3513.15 817.078 L3513.15 137.43 L3443.65 246.78 L3374.16 349.876 L3304.67 453.232 L3235.18 556.918 L3165.69 621.62 L3096.2 655.433 L3026.71 678.24 L2957.21 693.37 L2887.72 689.875 L2818.23 671.553 L2748.74 678.181 L2679.25 674.744 L2609.76 662.725 L2540.27 622.813 L2470.77 555.118 L2401.28 505.088 L2331.79 378.242 L2262.3 294.322 L2192.81 181.728  Z" fill="#ac8d18" fill-rule="evenodd" fill-opacity="0.15"/>
<polyline clip-path="url(#clip463)" style="stroke:#ac8d18; stroke-linecap:round; stroke-linejoin:round; stroke-width:4; stroke-opacity:0; fill:none" points="2192.81,1274.69 2262.3,1196.12 2331.79,1091.86 2401.28,1041.73 2470.77,1007.29 2540.27,958.24 2609.76,962.371 2679.25,936.398 2748.74,923.817 2818.23,892.804 2887.72,869.658 2957.21,862.335 3026.71,854.782 3096.2,868.995 3165.69,877.056 3235.18,845.799 3304.67,834.914 3374.16,805.326 3443.65,795.742 3513.15,817.078 "/>
</svg>
