<?xml version="1.0" encoding="utf-8"?>
<svg xmlns="http://www.w3.org/2000/svg" xmlns:xlink="http://www.w3.org/1999/xlink" width="900" height="400" viewBox="0 0 3600 1600">
<defs>
  <clipPath id="clip420">
    <rect x="0" y="0" width="3600" height="1600"/>
  </clipPath>
</defs>
<path clip-path="url(#clip420)" d="M0 1600 L3600 1600 L3600 0 L0 0  Z" fill="#ffffff" fill-rule="evenodd" fill-opacity="1"/>
<defs>
  <clipPath id="clip421">
    <rect x="720" y="0" width="2521" height="1600"/>
  </clipPath>
</defs>
<path clip-path="url(#clip420)" d="M206.906 1450.54 L1748.49 1450.54 L1748.49 103.312 L206.906 103.312  Z" fill="#ffffff" fill-rule="evenodd" fill-opacity="1"/>
<defs>
  <clipPath id="clip422">
    <rect x="206" y="103" width="1543" height="1348"/>
  </clipPath>
</defs>
<polyline clip-path="url(#clip422)" style="stroke:#000000; stroke-linecap:round; stroke-linejoin:round; stroke-width:2; stroke-opacity:0.1; fill:none" points="250.536,1450.54 250.536,103.312 "/>
<polyline clip-path="url(#clip422)" style="stroke:#000000; stroke-linecap:round; stroke-linejoin:round; stroke-width:2; stroke-opacity:0.1; fill:none" points="614.116,1450.54 614.116,103.312 "/>
<polyline clip-path="url(#clip422)" style="stroke:#000000; stroke-linecap:round; stroke-linejoin:round; stroke-width:2; stroke-opacity:0.1; fill:none" points="977.696,1450.54 977.696,103.312 "/>
<polyline clip-path="url(#clip422)" style="stroke:#000000; stroke-linecap:round; stroke-linejoin:round; stroke-width:2; stroke-opacity:0.1; fill:none" points="1341.28,1450.54 1341.28,103.312 "/>
<polyline clip-path="url(#clip422)" style="stroke:#000000; stroke-linecap:round; stroke-linejoin:round; stroke-width:2; stroke-opacity:0.1; fill:none" points="1704.86,1450.54 1704.86,103.312 "/>
<polyline clip-path="url(#clip420)" style="stroke:#000000; stroke-linecap:round; stroke-linejoin:round; stroke-width:4; stroke-opacity:1; fill:none" points="206.906,1450.54 1748.49,1450.54 "/>
<polyline clip-path="url(#clip420)" style="stroke:#000000; stroke-linecap:round; stroke-linejoin:round; stroke-width:4; stroke-opacity:1; fill:none" points="250.536,1450.54 250.536,1431.64 "/>
<polyline clip-path="url(#clip420)" style="stroke:#000000; stroke-linecap:round; stroke-linejoin:round; stroke-width:4; stroke-opacity:1; fill:none" points="614.116,1450.54 614.116,1431.64 "/>
<polyline clip-path="url(#clip420)" style="stroke:#000000; stroke-linecap:round; stroke-linejoin:round; stroke-width:4; stroke-opacity:1; fill:none" points="977.696,1450.54 977.696,1431.64 "/>
<polyline clip-path="url(#clip420)" style="stroke:#000000; stroke-linecap:round; stroke-linejoin:round; stroke-width:4; stroke-opacity:1; fill:none" points="1341.28,1450.54 1341.28,1431.64 "/>
<polyline clip-path="url(#clip420)" style="stroke:#000000; stroke-linecap:round; stroke-linejoin:round; stroke-width:4; stroke-opacity:1; fill:none" points="1704.86,1450.54 1704.86,1431.64 "/>
<path clip-path="url(#clip420)" d="M197.064 1505.71 L226.739 1505.71 L226.739 1509.65 L197.064 1509.65 L197.064 1505.71 Z" fill="#000000" fill-rule="nonzero" fill-opacity="1" /><path clip-path="url(#clip420)" d="M237.642 1518.6 L245.281 1518.6 L245.281 1492.24 L236.971 1493.91 L236.971 1489.65 L245.235 1487.98 L249.911 1487.98 L249.911 1518.6 L257.549 1518.6 L257.549 1522.54 L237.642 1522.54 L237.642 1518.6 Z" fill="#000000" fill-rule="nonzero" fill-opacity="1" /><path clip-path="url(#clip420)" d="M266.994 1516.66 L271.878 1516.66 L271.878 1522.54 L266.994 1522.54 L266.994 1516.66 Z" fill="#000000" fill-rule="nonzero" fill-opacity="1" /><path clip-path="url(#clip420)" d="M292.063 1491.06 Q288.452 1491.06 286.623 1494.62 Q284.818 1498.16 284.818 1505.29 Q284.818 1512.4 286.623 1515.97 Q288.452 1519.51 292.063 1519.51 Q295.697 1519.51 297.503 1515.97 Q299.332 1512.4 299.332 1505.29 Q299.332 1498.16 297.503 1494.62 Q295.697 1491.06 292.063 1491.06 M292.063 1487.35 Q297.873 1487.35 300.929 1491.96 Q304.007 1496.54 304.007 1505.29 Q304.007 1514.02 300.929 1518.63 Q297.873 1523.21 292.063 1523.21 Q286.253 1523.21 283.174 1518.63 Q280.119 1514.02 280.119 1505.29 Q280.119 1496.54 283.174 1491.96 Q286.253 1487.35 292.063 1487.35 Z" fill="#000000" fill-rule="nonzero" fill-opacity="1" /><path clip-path="url(#clip420)" d="M561.141 1505.71 L590.817 1505.71 L590.817 1509.65 L561.141 1509.65 L561.141 1505.71 Z" fill="#000000" fill-rule="nonzero" fill-opacity="1" /><path clip-path="url(#clip420)" d="M610.91 1491.06 Q607.298 1491.06 605.47 1494.62 Q603.664 1498.16 603.664 1505.29 Q603.664 1512.4 605.47 1515.97 Q607.298 1519.51 610.91 1519.51 Q614.544 1519.51 616.349 1515.97 Q618.178 1512.4 618.178 1505.29 Q618.178 1498.16 616.349 1494.62 Q614.544 1491.06 610.91 1491.06 M610.91 1487.35 Q616.72 1487.35 619.775 1491.96 Q622.854 1496.54 622.854 1505.29 Q622.854 1514.02 619.775 1518.63 Q616.72 1523.21 610.91 1523.21 Q605.099 1523.21 602.021 1518.63 Q598.965 1514.02 598.965 1505.29 Q598.965 1496.54 602.021 1491.96 Q605.099 1487.35 610.91 1487.35 Z" fill="#000000" fill-rule="nonzero" fill-opacity="1" /><path clip-path="url(#clip420)" d="M631.071 1516.66 L635.956 1516.66 L635.956 1522.54 L631.071 1522.54 L631.071 1516.66 Z" fill="#000000" fill-rule="nonzero" fill-opacity="1" /><path clip-path="url(#clip420)" d="M646.187 1487.98 L664.544 1487.98 L664.544 1491.92 L650.47 1491.92 L650.47 1500.39 Q651.488 1500.04 652.507 1499.88 Q653.525 1499.69 654.544 1499.69 Q660.331 1499.69 663.71 1502.86 Q667.09 1506.04 667.09 1511.45 Q667.09 1517.03 663.618 1520.13 Q660.145 1523.21 653.826 1523.21 Q651.65 1523.21 649.382 1522.84 Q647.136 1522.47 644.729 1521.73 L644.729 1517.03 Q646.812 1518.16 649.034 1518.72 Q651.257 1519.28 653.733 1519.28 Q657.738 1519.28 660.076 1517.17 Q662.414 1515.06 662.414 1511.45 Q662.414 1507.84 660.076 1505.73 Q657.738 1503.63 653.733 1503.63 Q651.858 1503.63 649.983 1504.04 Q648.132 1504.46 646.187 1505.34 L646.187 1487.98 Z" fill="#000000" fill-rule="nonzero" fill-opacity="1" /><path clip-path="url(#clip420)" d="M955.08 1491.06 Q951.469 1491.06 949.64 1494.62 Q947.835 1498.16 947.835 1505.29 Q947.835 1512.4 949.64 1515.97 Q951.469 1519.51 955.08 1519.51 Q958.714 1519.51 960.52 1515.97 Q962.348 1512.4 962.348 1505.29 Q962.348 1498.16 960.52 1494.62 Q958.714 1491.06 955.08 1491.06 M955.08 1487.35 Q960.89 1487.35 963.946 1491.96 Q967.024 1496.54 967.024 1505.29 Q967.024 1514.02 963.946 1518.63 Q960.89 1523.21 955.08 1523.21 Q949.27 1523.21 946.191 1518.63 Q943.136 1514.02 943.136 1505.29 Q943.136 1496.54 946.191 1491.96 Q949.27 1487.35 955.08 1487.35 Z" fill="#000000" fill-rule="nonzero" fill-opacity="1" /><path clip-path="url(#clip420)" d="M975.242 1516.66 L980.126 1516.66 L980.126 1522.54 L975.242 1522.54 L975.242 1516.66 Z" fill="#000000" fill-rule="nonzero" fill-opacity="1" /><path clip-path="url(#clip420)" d="M1000.31 1491.06 Q996.7 1491.06 994.871 1494.62 Q993.066 1498.16 993.066 1505.29 Q993.066 1512.4 994.871 1515.97 Q996.7 1519.51 1000.31 1519.51 Q1003.95 1519.51 1005.75 1515.97 Q1007.58 1512.4 1007.58 1505.29 Q1007.58 1498.16 1005.75 1494.62 Q1003.95 1491.06 1000.31 1491.06 M1000.31 1487.35 Q1006.12 1487.35 1009.18 1491.96 Q1012.26 1496.54 1012.26 1505.29 Q1012.26 1514.02 1009.18 1518.63 Q1006.12 1523.21 1000.31 1523.21 Q994.501 1523.21 991.422 1518.63 Q988.367 1514.02 988.367 1505.29 Q988.367 1496.54 991.422 1491.96 Q994.501 1487.35 1000.31 1487.35 Z" fill="#000000" fill-rule="nonzero" fill-opacity="1" /><path clip-path="url(#clip420)" d="M1319.16 1491.06 Q1315.55 1491.06 1313.72 1494.62 Q1311.91 1498.16 1311.91 1505.29 Q1311.91 1512.4 1313.72 1515.97 Q1315.55 1519.51 1319.16 1519.51 Q1322.79 1519.51 1324.6 1515.97 Q1326.43 1512.4 1326.43 1505.29 Q1326.43 1498.16 1324.6 1494.62 Q1322.79 1491.06 1319.16 1491.06 M1319.16 1487.35 Q1324.97 1487.35 1328.02 1491.96 Q1331.1 1496.54 1331.1 1505.29 Q1331.1 1514.02 1328.02 1518.63 Q1324.97 1523.21 1319.16 1523.21 Q1313.35 1523.21 1310.27 1518.63 Q1307.21 1514.02 1307.21 1505.29 Q1307.21 1496.54 1310.27 1491.96 Q1313.35 1487.35 1319.16 1487.35 Z" fill="#000000" fill-rule="nonzero" fill-opacity="1" /><path clip-path="url(#clip420)" d="M1339.32 1516.66 L1344.2 1516.66 L1344.2 1522.54 L1339.32 1522.54 L1339.32 1516.66 Z" fill="#000000" fill-rule="nonzero" fill-opacity="1" /><path clip-path="url(#clip420)" d="M1354.44 1487.98 L1372.79 1487.98 L1372.79 1491.92 L1358.72 1491.92 L1358.72 1500.39 Q1359.74 1500.04 1360.75 1499.88 Q1361.77 1499.69 1362.79 1499.69 Q1368.58 1499.69 1371.96 1502.86 Q1375.34 1506.04 1375.34 1511.45 Q1375.34 1517.03 1371.87 1520.13 Q1368.39 1523.21 1362.07 1523.21 Q1359.9 1523.21 1357.63 1522.84 Q1355.38 1522.47 1352.98 1521.73 L1352.98 1517.03 Q1355.06 1518.16 1357.28 1518.72 Q1359.5 1519.28 1361.98 1519.28 Q1365.99 1519.28 1368.32 1517.17 Q1370.66 1515.06 1370.66 1511.45 Q1370.66 1507.84 1368.32 1505.73 Q1365.99 1503.63 1361.98 1503.63 Q1360.11 1503.63 1358.23 1504.04 Q1356.38 1504.46 1354.44 1505.34 L1354.44 1487.98 Z" fill="#000000" fill-rule="nonzero" fill-opacity="1" /><path clip-path="url(#clip420)" d="M1672.01 1518.6 L1679.65 1518.6 L1679.65 1492.24 L1671.34 1493.91 L1671.34 1489.65 L1679.6 1487.98 L1684.28 1487.98 L1684.28 1518.6 L1691.92 1518.6 L1691.92 1522.54 L1672.01 1522.54 L1672.01 1518.6 Z" fill="#000000" fill-rule="nonzero" fill-opacity="1" /><path clip-path="url(#clip420)" d="M1701.36 1516.66 L1706.24 1516.66 L1706.24 1522.54 L1701.36 1522.54 L1701.36 1516.66 Z" fill="#000000" fill-rule="nonzero" fill-opacity="1" /><path clip-path="url(#clip420)" d="M1726.43 1491.06 Q1722.82 1491.06 1720.99 1494.62 Q1719.18 1498.16 1719.18 1505.29 Q1719.18 1512.4 1720.99 1515.97 Q1722.82 1519.51 1726.43 1519.51 Q1730.06 1519.51 1731.87 1515.97 Q1733.7 1512.4 1733.7 1505.29 Q1733.7 1498.16 1731.87 1494.62 Q1730.06 1491.06 1726.43 1491.06 M1726.43 1487.35 Q1732.24 1487.35 1735.3 1491.96 Q1738.37 1496.54 1738.37 1505.29 Q1738.37 1514.02 1735.3 1518.63 Q1732.24 1523.21 1726.43 1523.21 Q1720.62 1523.21 1717.54 1518.63 Q1714.49 1514.02 1714.49 1505.29 Q1714.49 1496.54 1717.54 1491.96 Q1720.62 1487.35 1726.43 1487.35 Z" fill="#000000" fill-rule="nonzero" fill-opacity="1" /><path clip-path="url(#clip420)" d="M994.31 1577.76 L981.419 1595.1 L994.978 1613.4 L988.072 1613.4 L977.696 1599.4 L967.319 1613.4 L960.413 1613.4 L974.258 1594.75 L961.59 1577.76 L968.497 1577.76 L977.95 1590.46 L987.403 1577.76 L994.31 1577.76 Z" fill="#000000" fill-rule="nonzero" fill-opacity="1" /><polyline clip-path="url(#clip422)" style="stroke:#000000; stroke-linecap:round; stroke-linejoin:round; stroke-width:2; stroke-opacity:0.1; fill:none" points="206.906,1285.31 1748.49,1285.31 "/>
<polyline clip-path="url(#clip422)" style="stroke:#000000; stroke-linecap:round; stroke-linejoin:round; stroke-width:2; stroke-opacity:0.1; fill:none" points="206.906,1031.12 1748.49,1031.12 "/>
<polyline clip-path="url(#clip422)" style="stroke:#000000; stroke-linecap:round; stroke-linejoin:round; stroke-width:2; stroke-opacity:0.1; fill:none" points="206.906,776.926 1748.49,776.926 "/>
<polyline clip-path="url(#clip422)" style="stroke:#000000; stroke-linecap:round; stroke-linejoin:round; stroke-width:2; stroke-opacity:0.1; fill:none" points="206.906,522.732 1748.49,522.732 "/>
<polyline clip-path="url(#clip422)" style="stroke:#000000; stroke-linecap:round; stroke-linejoin:round; stroke-width:2; stroke-opacity:0.1; fill:none" points="206.906,268.538 1748.49,268.538 "/>
<polyline clip-path="url(#clip420)" style="stroke:#000000; stroke-linecap:round; stroke-linejoin:round; stroke-width:4; stroke-opacity:1; fill:none" points="206.906,1450.54 206.906,103.312 "/>
<polyline clip-path="url(#clip420)" style="stroke:#000000; stroke-linecap:round; stroke-linejoin:round; stroke-width:4; stroke-opacity:1; fill:none" points="206.906,1285.31 225.804,1285.31 "/>
<polyline clip-path="url(#clip420)" style="stroke:#000000; stroke-linecap:round; stroke-linejoin:round; stroke-width:4; stroke-opacity:1; fill:none" points="206.906,1031.12 225.804,1031.12 "/>
<polyline clip-path="url(#clip420)" style="stroke:#000000; stroke-linecap:round; stroke-linejoin:round; stroke-width:4; stroke-opacity:1; fill:none" points="206.906,776.926 225.804,776.926 "/>
<polyline clip-path="url(#clip420)" style="stroke:#000000; stroke-linecap:round; stroke-linejoin:round; stroke-width:4; stroke-opacity:1; fill:none" points="206.906,522.732 225.804,522.732 "/>
<polyline clip-path="url(#clip420)" style="stroke:#000000; stroke-linecap:round; stroke-linejoin:round; stroke-width:4; stroke-opacity:1; fill:none" points="206.906,268.538 225.804,268.538 "/>
<path clip-path="url(#clip420)" d="M92.7905 1285.77 L122.466 1285.77 L122.466 1289.7 L92.7905 1289.7 L92.7905 1285.77 Z" fill="#000000" fill-rule="nonzero" fill-opacity="1" /><path clip-path="url(#clip420)" d="M136.587 1298.66 L152.906 1298.66 L152.906 1302.59 L130.962 1302.59 L130.962 1298.66 Q133.624 1295.9 138.207 1291.27 Q142.813 1286.62 143.994 1285.28 Q146.239 1282.76 147.119 1281.02 Q148.022 1279.26 148.022 1277.57 Q148.022 1274.82 146.077 1273.08 Q144.156 1271.34 141.054 1271.34 Q138.855 1271.34 136.401 1272.11 Q133.971 1272.87 131.193 1274.42 L131.193 1269.7 Q134.017 1268.57 136.471 1267.99 Q138.925 1267.41 140.962 1267.41 Q146.332 1267.41 149.526 1270.09 Q152.721 1272.78 152.721 1277.27 Q152.721 1279.4 151.911 1281.32 Q151.124 1283.22 149.017 1285.81 Q148.438 1286.48 145.337 1289.7 Q142.235 1292.89 136.587 1298.66 Z" fill="#000000" fill-rule="nonzero" fill-opacity="1" /><path clip-path="url(#clip420)" d="M92.4202 1031.57 L122.096 1031.57 L122.096 1035.51 L92.4202 1035.51 L92.4202 1031.57 Z" fill="#000000" fill-rule="nonzero" fill-opacity="1" /><path clip-path="url(#clip420)" d="M132.999 1044.46 L140.637 1044.46 L140.637 1018.1 L132.327 1019.77 L132.327 1015.51 L140.591 1013.84 L145.267 1013.84 L145.267 1044.46 L152.906 1044.46 L152.906 1048.4 L132.999 1048.4 L132.999 1044.46 Z" fill="#000000" fill-rule="nonzero" fill-opacity="1" /><path clip-path="url(#clip420)" d="M140.962 762.725 Q137.35 762.725 135.522 766.289 Q133.716 769.831 133.716 776.961 Q133.716 784.067 135.522 787.632 Q137.35 791.174 140.962 791.174 Q144.596 791.174 146.401 787.632 Q148.23 784.067 148.23 776.961 Q148.23 769.831 146.401 766.289 Q144.596 762.725 140.962 762.725 M140.962 759.021 Q146.772 759.021 149.827 763.627 Q152.906 768.211 152.906 776.961 Q152.906 785.688 149.827 790.294 Q146.772 794.877 140.962 794.877 Q135.151 794.877 132.073 790.294 Q129.017 785.688 129.017 776.961 Q129.017 768.211 132.073 763.627 Q135.151 759.021 140.962 759.021 Z" fill="#000000" fill-rule="nonzero" fill-opacity="1" /><path clip-path="url(#clip420)" d="M132.999 536.077 L140.637 536.077 L140.637 509.711 L132.327 511.378 L132.327 507.119 L140.591 505.452 L145.267 505.452 L145.267 536.077 L152.906 536.077 L152.906 540.012 L132.999 540.012 L132.999 536.077 Z" fill="#000000" fill-rule="nonzero" fill-opacity="1" /><path clip-path="url(#clip420)" d="M136.587 281.883 L152.906 281.883 L152.906 285.818 L130.962 285.818 L130.962 281.883 Q133.624 279.128 138.207 274.499 Q142.813 269.846 143.994 268.503 Q146.239 265.98 147.119 264.244 Q148.022 262.485 148.022 260.795 Q148.022 258.041 146.077 256.304 Q144.156 254.568 141.054 254.568 Q138.855 254.568 136.401 255.332 Q133.971 256.096 131.193 257.647 L131.193 252.925 Q134.017 251.791 136.471 251.212 Q138.925 250.633 140.962 250.633 Q146.332 250.633 149.526 253.318 Q152.721 256.004 152.721 260.494 Q152.721 262.624 151.911 264.545 Q151.124 266.443 149.017 269.036 Q148.438 269.707 145.337 272.925 Q142.235 276.119 136.587 281.883 Z" fill="#000000" fill-rule="nonzero" fill-opacity="1" /><path clip-path="url(#clip420)" d="M-25.361 806.877 L-20.4913 806.877 L-20.4913 812.478 Q-20.4913 815.629 -19.2181 816.871 Q-17.945 818.08 -14.6348 818.08 L-11.4838 818.08 L-11.4838 808.436 L-6.93232 808.436 L-6.93232 818.08 L24.1642 818.08 L24.1642 823.969 L-6.93232 823.969 L-6.93232 829.57 L-11.4838 829.57 L-11.4838 823.969 L-13.9664 823.969 Q-19.9184 823.969 -22.6238 821.199 Q-25.361 818.43 -25.361 812.415 L-25.361 806.877 Z" fill="#000000" fill-rule="nonzero" fill-opacity="1" /><path clip-path="url(#clip420)" d="M-25.2974 787.907 Q-17.9768 792.172 -10.8154 794.241 Q-3.65398 796.31 3.69841 796.31 Q11.0508 796.31 18.2759 794.241 Q25.4691 792.14 32.7579 787.907 L32.7579 792.999 Q25.2782 797.774 18.0531 800.161 Q10.828 802.516 3.69841 802.516 Q-3.39935 802.516 -10.5926 800.161 Q-17.7858 797.806 -25.2974 792.999 L-25.2974 787.907 Z" fill="#000000" fill-rule="nonzero" fill-opacity="1" /><path clip-path="url(#clip420)" d="M-11.4838 746.912 L5.86275 759.802 L24.1642 746.243 L24.1642 753.15 L10.1596 763.526 L24.1642 773.902 L24.1642 780.809 L5.51264 766.964 L-11.4838 779.631 L-11.4838 772.725 L1.21579 763.272 L-11.4838 753.818 L-11.4838 746.912 Z" fill="#000000" fill-rule="nonzero" fill-opacity="1" /><path clip-path="url(#clip420)" d="M-25.2974 738.891 L-25.2974 733.798 Q-17.7858 729.024 -10.5926 726.669 Q-3.39935 724.282 3.69841 724.282 Q10.828 724.282 18.0531 726.669 Q25.2782 729.024 32.7579 733.798 L32.7579 738.891 Q25.4691 734.658 18.2759 732.589 Q11.0508 730.488 3.69841 730.488 Q-3.65398 730.488 -10.8154 732.589 Q-17.9768 734.658 -25.2974 738.891 Z" fill="#000000" fill-rule="nonzero" fill-opacity="1" /><path clip-path="url(#clip420)" d="M720.18 18.8205 L720.18 65.8515 L730.064 65.8515 Q742.581 65.8515 748.374 60.1802 Q754.207 54.509 754.207 42.2752 Q754.207 30.1225 748.374 24.4918 Q742.581 18.8205 730.064 18.8205 L720.18 18.8205 M711.997 12.096 L728.808 12.096 Q746.389 12.096 754.612 19.4281 Q762.836 26.7198 762.836 42.2752 Q762.836 57.9117 754.572 65.2439 Q746.308 72.576 728.808 72.576 L711.997 72.576 L711.997 12.096 Z" fill="#000000" fill-rule="nonzero" fill-opacity="1" /><path clip-path="url(#clip420)" d="M801.846 34.1734 Q800.59 33.4443 799.091 33.1202 Q797.633 32.7556 795.85 32.7556 Q789.531 32.7556 786.128 36.8875 Q782.766 40.9789 782.766 48.6757 L782.766 72.576 L775.272 72.576 L775.272 27.2059 L782.766 27.2059 L782.766 34.2544 Q785.116 30.1225 788.883 28.1376 Q792.65 26.1121 798.038 26.1121 Q798.808 26.1121 799.739 26.2337 Q800.671 26.3147 801.805 26.5172 L801.846 34.1734 Z" fill="#000000" fill-rule="nonzero" fill-opacity="1" /><path clip-path="url(#clip420)" d="M809.664 27.2059 L817.118 27.2059 L817.118 72.576 L809.664 72.576 L809.664 27.2059 M809.664 9.54393 L817.118 9.54393 L817.118 18.9825 L809.664 18.9825 L809.664 9.54393 Z" fill="#000000" fill-rule="nonzero" fill-opacity="1" /><path clip-path="url(#clip420)" d="M855.682 9.54393 L855.682 15.7418 L848.553 15.7418 Q844.542 15.7418 842.962 17.3622 Q841.423 18.9825 841.423 23.1955 L841.423 27.2059 L853.697 27.2059 L853.697 32.9987 L841.423 32.9987 L841.423 72.576 L833.929 72.576 L833.929 32.9987 L826.799 32.9987 L826.799 27.2059 L833.929 27.2059 L833.929 24.0462 Q833.929 16.471 837.453 13.0277 Q840.978 9.54393 848.634 9.54393 L855.682 9.54393 Z" fill="#000000" fill-rule="nonzero" fill-opacity="1" /><path clip-path="url(#clip420)" d="M867.835 14.324 L867.835 27.2059 L883.188 27.2059 L883.188 32.9987 L867.835 32.9987 L867.835 57.6282 Q867.835 63.1779 869.334 64.7578 Q870.873 66.3376 875.532 66.3376 L883.188 66.3376 L883.188 72.576 L875.532 72.576 Q866.903 72.576 863.622 69.3758 Q860.341 66.1351 860.341 57.6282 L860.341 32.9987 L854.872 32.9987 L854.872 27.2059 L860.341 27.2059 L860.341 14.324 L867.835 14.324 Z" fill="#000000" fill-rule="nonzero" fill-opacity="1" /><path clip-path="url(#clip420)" d="M942.331 9.54393 L942.331 15.7418 L935.202 15.7418 Q931.191 15.7418 929.611 17.3622 Q928.072 18.9825 928.072 23.1955 L928.072 27.2059 L940.346 27.2059 L940.346 32.9987 L928.072 32.9987 L928.072 72.576 L920.578 72.576 L920.578 32.9987 L913.448 32.9987 L913.448 27.2059 L920.578 27.2059 L920.578 24.0462 Q920.578 16.471 924.102 13.0277 Q927.626 9.54393 935.283 9.54393 L942.331 9.54393 Z" fill="#000000" fill-rule="nonzero" fill-opacity="1" /><path clip-path="url(#clip420)" d="M947.8 54.671 L947.8 27.2059 L955.254 27.2059 L955.254 54.3874 Q955.254 60.8284 957.765 64.0691 Q960.277 67.2693 965.3 67.2693 Q971.336 67.2693 974.819 63.421 Q978.344 59.5726 978.344 52.9291 L978.344 27.2059 L985.797 27.2059 L985.797 72.576 L978.344 72.576 L978.344 65.6084 Q975.63 69.7404 972.024 71.7658 Q968.459 73.7508 963.72 73.7508 Q955.902 73.7508 951.851 68.8897 Q947.8 64.0286 947.8 54.671 M966.556 26.1121 L966.556 26.1121 Z" fill="#000000" fill-rule="nonzero" fill-opacity="1" /><path clip-path="url(#clip420)" d="M1038.86 45.1919 L1038.86 72.576 L1031.41 72.576 L1031.41 45.4349 Q1031.41 38.994 1028.9 35.7938 Q1026.39 32.5936 1021.36 32.5936 Q1015.33 32.5936 1011.84 36.4419 Q1008.36 40.2903 1008.36 46.9338 L1008.36 72.576 L1000.87 72.576 L1000.87 27.2059 L1008.36 27.2059 L1008.36 34.2544 Q1011.03 30.163 1014.64 28.1376 Q1018.29 26.1121 1023.03 26.1121 Q1030.84 26.1121 1034.85 30.9732 Q1038.86 35.7938 1038.86 45.1919 Z" fill="#000000" fill-rule="nonzero" fill-opacity="1" /><path clip-path="url(#clip420)" d="M1086.38 28.9478 L1086.38 35.9153 Q1083.22 34.1734 1080.02 33.3227 Q1076.86 32.4315 1073.62 32.4315 Q1066.37 32.4315 1062.36 37.0496 Q1058.35 41.6271 1058.35 49.9314 Q1058.35 58.2358 1062.36 62.8538 Q1066.37 67.4314 1073.62 67.4314 Q1076.86 67.4314 1080.02 66.5807 Q1083.22 65.6895 1086.38 63.9476 L1086.38 70.8341 Q1083.26 72.2924 1079.9 73.0216 Q1076.58 73.7508 1072.81 73.7508 Q1062.56 73.7508 1056.53 67.3098 Q1050.49 60.8689 1050.49 49.9314 Q1050.49 38.832 1056.57 32.472 Q1062.68 26.1121 1073.3 26.1121 Q1076.74 26.1121 1080.02 26.8413 Q1083.3 27.5299 1086.38 28.9478 Z" fill="#000000" fill-rule="nonzero" fill-opacity="1" /><path clip-path="url(#clip420)" d="M1106.72 14.324 L1106.72 27.2059 L1122.07 27.2059 L1122.07 32.9987 L1106.72 32.9987 L1106.72 57.6282 Q1106.72 63.1779 1108.22 64.7578 Q1109.75 66.3376 1114.41 66.3376 L1122.07 66.3376 L1122.07 72.576 L1114.41 72.576 Q1105.79 72.576 1102.5 69.3758 Q1099.22 66.1351 1099.22 57.6282 L1099.22 32.9987 L1093.75 32.9987 L1093.75 27.2059 L1099.22 27.2059 L1099.22 14.324 L1106.72 14.324 Z" fill="#000000" fill-rule="nonzero" fill-opacity="1" /><path clip-path="url(#clip420)" d="M1131.87 27.2059 L1139.33 27.2059 L1139.33 72.576 L1131.87 72.576 L1131.87 27.2059 M1131.87 9.54393 L1139.33 9.54393 L1139.33 18.9825 L1131.87 18.9825 L1131.87 9.54393 Z" fill="#000000" fill-rule="nonzero" fill-opacity="1" /><path clip-path="url(#clip420)" d="M1172.5 32.4315 Q1166.51 32.4315 1163.02 37.1306 Q1159.54 41.7891 1159.54 49.9314 Q1159.54 58.0738 1162.98 62.7728 Q1166.47 67.4314 1172.5 67.4314 Q1178.46 67.4314 1181.94 62.7323 Q1185.43 58.0333 1185.43 49.9314 Q1185.43 41.8701 1181.94 37.1711 Q1178.46 32.4315 1172.5 32.4315 M1172.5 26.1121 Q1182.23 26.1121 1187.78 32.4315 Q1193.33 38.7509 1193.33 49.9314 Q1193.33 61.0714 1187.78 67.4314 Q1182.23 73.7508 1172.5 73.7508 Q1162.74 73.7508 1157.19 67.4314 Q1151.68 61.0714 1151.68 49.9314 Q1151.68 38.7509 1157.19 32.4315 Q1162.74 26.1121 1172.5 26.1121 Z" fill="#000000" fill-rule="nonzero" fill-opacity="1" /><path clip-path="url(#clip420)" d="M1243.39 45.1919 L1243.39 72.576 L1235.94 72.576 L1235.94 45.4349 Q1235.94 38.994 1233.43 35.7938 Q1230.92 32.5936 1225.89 32.5936 Q1219.86 32.5936 1216.37 36.4419 Q1212.89 40.2903 1212.89 46.9338 L1212.89 72.576 L1205.4 72.576 L1205.4 27.2059 L1212.89 27.2059 L1212.89 34.2544 Q1215.56 30.163 1219.17 28.1376 Q1222.82 26.1121 1227.56 26.1121 Q1235.37 26.1121 1239.38 30.9732 Q1243.39 35.7938 1243.39 45.1919 Z" fill="#000000" fill-rule="nonzero" fill-opacity="1" /><circle clip-path="url(#clip422)" cx="250.536" cy="231.565" r="14.4" fill="#009af9" fill-rule="evenodd" fill-opacity="1" stroke="#000000" stroke-opacity="1" stroke-width="3.2"/>
<circle clip-path="url(#clip422)" cx="327.079" cy="273.837" r="14.4" fill="#009af9" fill-rule="evenodd" fill-opacity="1" stroke="#000000" stroke-opacity="1" stroke-width="3.2"/>
<circle clip-path="url(#clip422)" cx="403.622" cy="352.488" r="14.4" fill="#009af9" fill-rule="evenodd" fill-opacity="1" stroke="#000000" stroke-opacity="1" stroke-width="3.2"/>
<circle clip-path="url(#clip422)" cx="480.165" cy="400.429" r="14.4" fill="#009af9" fill-rule="evenodd" fill-opacity="1" stroke="#000000" stroke-opacity="1" stroke-width="3.2"/>
<circle clip-path="url(#clip422)" cx="556.708" cy="436.924" r="14.4" fill="#009af9" fill-rule="evenodd" fill-opacity="1" stroke="#000000" stroke-opacity="1" stroke-width="3.2"/>
<circle clip-path="url(#clip422)" cx="633.251" cy="470.086" r="14.4" fill="#009af9" fill-rule="evenodd" fill-opacity="1" stroke="#000000" stroke-opacity="1" stroke-width="3.2"/>
<circle clip-path="url(#clip422)" cx="709.794" cy="512.295" r="14.4" fill="#009af9" fill-rule="evenodd" fill-opacity="1" stroke="#000000" stroke-opacity="1" stroke-width="3.2"/>
<circle clip-path="url(#clip422)" cx="786.338" cy="575.587" r="14.4" fill="#009af9" fill-rule="evenodd" fill-opacity="1" stroke="#000000" stroke-opacity="1" stroke-width="3.2"/>
<circle clip-path="url(#clip422)" cx="862.881" cy="656.731" r="14.4" fill="#009af9" fill-rule="evenodd" fill-opacity="1" stroke="#000000" stroke-opacity="1" stroke-width="3.2"/>
<circle clip-path="url(#clip422)" cx="939.424" cy="732.88" r="14.4" fill="#009af9" fill-rule="evenodd" fill-opacity="1" stroke="#000000" stroke-opacity="1" stroke-width="3.2"/>
<circle clip-path="url(#clip422)" cx="1015.97" cy="784.955" r="14.4" fill="#009af9" fill-rule="evenodd" fill-opacity="1" stroke="#000000" stroke-opacity="1" stroke-width="3.2"/>
<circle clip-path="url(#clip422)" cx="1092.51" cy="821.842" r="14.4" fill="#009af9" fill-rule="evenodd" fill-opacity="1" stroke="#000000" stroke-opacity="1" stroke-width="3.2"/>
<circle clip-path="url(#clip422)" cx="1169.05" cy="881.302" r="14.4" fill="#009af9" fill-rule="evenodd" fill-opacity="1" stroke="#000000" stroke-opacity="1" stroke-width="3.2"/>
<circle clip-path="url(#clip422)" cx="1245.6" cy="955.853" r="14.4" fill="#009af9" fill-rule="evenodd" fill-opacity="1" stroke="#000000" stroke-opacity="1" stroke-width="3.2"/>
<circle clip-path="url(#clip422)" cx="1322.14" cy="1026.89" r="14.4" fill="#009af9" fill-rule="evenodd" fill-opacity="1" stroke="#000000" stroke-opacity="1" stroke-width="3.2"/>
<circle clip-path="url(#clip422)" cx="1398.68" cy="1069.38" r="14.4" fill="#009af9" fill-rule="evenodd" fill-opacity="1" stroke="#000000" stroke-opacity="1" stroke-width="3.2"/>
<circle clip-path="url(#clip422)" cx="1475.23" cy="1116.91" r="14.4" fill="#009af9" fill-rule="evenodd" fill-opacity="1" stroke="#000000" stroke-opacity="1" stroke-width="3.2"/>
<circle clip-path="url(#clip422)" cx="1551.77" cy="1173.19" r="14.4" fill="#009af9" fill-rule="evenodd" fill-opacity="1" stroke="#000000" stroke-opacity="1" stroke-width="3.2"/>
<circle clip-path="url(#clip422)" cx="1628.31" cy="1263.74" r="14.4" fill="#009af9" fill-rule="evenodd" fill-opacity="1" stroke="#000000" stroke-opacity="1" stroke-width="3.2"/>
<circle clip-path="url(#clip422)" cx="1704.86" cy="1305.28" r="14.4" fill="#009af9" fill-rule="evenodd" fill-opacity="1" stroke="#000000" stroke-opacity="1" stroke-width="3.2"/>
<polyline clip-path="url(#clip422)" style="stroke:#e26f46; stroke-linecap:round; stroke-linejoin:round; stroke-width:4; stroke-opacity:1; fill:none" points="250.536,141.441 260.004,149.716 347.553,226.228 400.167,272.208 444.651,311.084 492.973,353.314 537.521,392.246 585.282,433.985 640.618,482.345 689.794,525.321 732.916,563.007 779.932,604.095 827.227,645.427 879.517,691.125 929.27,734.606 981.002,779.815 1024.55,817.872 1077.71,864.335 1126.42,906.899 1171.4,946.209 1216.96,986.029 1268.03,1030.66 1314.3,1071.1 1367.28,1117.4 1416.34,1160.27 1464.7,1202.53 1511.65,1243.57 1559.79,1285.63 1612.53,1331.72 1689.14,1398.68 1704.86,1412.41 "/>
<path clip-path="url(#clip420)" d="M1340.72 303.74 L1697.1 303.74 L1697.1 148.22 L1340.72 148.22  Z" fill="#ffffff" fill-rule="evenodd" fill-opacity="1"/>
<polyline clip-path="url(#clip420)" style="stroke:#000000; stroke-linecap:round; stroke-linejoin:round; stroke-width:4; stroke-opacity:1; fill:none" points="1340.72,303.74 1697.1,303.74 1697.1,148.22 1340.72,148.22 1340.72,303.74 "/>
<circle clip-path="url(#clip420)" cx="1409.23" cy="200.06" r="20.48" fill="#009af9" fill-rule="evenodd" fill-opacity="1" stroke="#000000" stroke-opacity="1" stroke-width="4.55111"/>
<path clip-path="url(#clip420)" d="M1477.75 182.78 L1499.6 182.78 L1499.6 186.715 L1482.43 186.715 L1482.43 196.946 L1498.88 196.946 L1498.88 200.881 L1482.43 200.881 L1482.43 213.405 L1500.02 213.405 L1500.02 217.34 L1477.75 217.34 L1477.75 182.78 Z" fill="#000000" fill-rule="nonzero" fill-opacity="1" /><path clip-path="url(#clip420)" d="M1524.05 192.178 L1524.05 196.206 Q1522.24 195.28 1520.3 194.817 Q1518.35 194.354 1516.27 194.354 Q1513.1 194.354 1511.5 195.326 Q1509.93 196.298 1509.93 198.243 Q1509.93 199.724 1511.06 200.581 Q1512.19 201.414 1515.62 202.178 L1517.08 202.502 Q1521.61 203.474 1523.51 205.256 Q1525.43 207.016 1525.43 210.187 Q1525.43 213.798 1522.56 215.905 Q1519.72 218.011 1514.72 218.011 Q1512.63 218.011 1510.36 217.594 Q1508.12 217.201 1505.62 216.391 L1505.62 211.993 Q1507.98 213.219 1510.27 213.844 Q1512.56 214.446 1514.81 214.446 Q1517.82 214.446 1519.44 213.428 Q1521.06 212.386 1521.06 210.511 Q1521.06 208.775 1519.88 207.849 Q1518.72 206.923 1514.76 206.067 L1513.28 205.719 Q1509.32 204.886 1507.56 203.173 Q1505.8 201.437 1505.8 198.428 Q1505.8 194.77 1508.4 192.78 Q1510.99 190.789 1515.76 190.789 Q1518.12 190.789 1520.2 191.136 Q1522.29 191.483 1524.05 192.178 Z" fill="#000000" fill-rule="nonzero" fill-opacity="1" /><path clip-path="url(#clip420)" d="M1536.43 184.053 L1536.43 191.414 L1545.2 191.414 L1545.2 194.724 L1536.43 194.724 L1536.43 208.798 Q1536.43 211.969 1537.29 212.872 Q1538.17 213.775 1540.83 213.775 L1545.2 213.775 L1545.2 217.34 L1540.83 217.34 Q1535.9 217.34 1534.02 215.511 Q1532.15 213.659 1532.15 208.798 L1532.15 194.724 L1529.02 194.724 L1529.02 191.414 L1532.15 191.414 L1532.15 184.053 L1536.43 184.053 Z" fill="#000000" fill-rule="nonzero" fill-opacity="1" /><path clip-path="url(#clip420)" d="M1550.8 191.414 L1555.06 191.414 L1555.06 217.34 L1550.8 217.34 L1550.8 191.414 M1550.8 181.321 L1555.06 181.321 L1555.06 186.715 L1550.8 186.715 L1550.8 181.321 Z" fill="#000000" fill-rule="nonzero" fill-opacity="1" /><path clip-path="url(#clip420)" d="M1584.16 196.391 Q1585.76 193.52 1587.98 192.155 Q1590.2 190.789 1593.21 190.789 Q1597.26 190.789 1599.46 193.636 Q1601.66 196.46 1601.66 201.692 L1601.66 217.34 L1597.38 217.34 L1597.38 201.831 Q1597.38 198.104 1596.06 196.298 Q1594.74 194.493 1592.03 194.493 Q1588.72 194.493 1586.8 196.692 Q1584.88 198.891 1584.88 202.687 L1584.88 217.34 L1580.6 217.34 L1580.6 201.831 Q1580.6 198.081 1579.28 196.298 Q1577.96 194.493 1575.2 194.493 Q1571.94 194.493 1570.02 196.715 Q1568.1 198.914 1568.1 202.687 L1568.1 217.34 L1563.81 217.34 L1563.81 191.414 L1568.1 191.414 L1568.1 195.442 Q1569.55 193.057 1571.59 191.923 Q1573.63 190.789 1576.43 190.789 Q1579.25 190.789 1581.22 192.224 Q1583.21 193.659 1584.16 196.391 Z" fill="#000000" fill-rule="nonzero" fill-opacity="1" /><path clip-path="url(#clip420)" d="M1621.94 204.307 Q1616.78 204.307 1614.79 205.488 Q1612.79 206.668 1612.79 209.516 Q1612.79 211.784 1614.28 213.127 Q1615.78 214.446 1618.35 214.446 Q1621.89 214.446 1624.02 211.946 Q1626.17 209.423 1626.17 205.256 L1626.17 204.307 L1621.94 204.307 M1630.43 202.548 L1630.43 217.34 L1626.17 217.34 L1626.17 213.405 Q1624.72 215.766 1622.54 216.9 Q1620.36 218.011 1617.22 218.011 Q1613.23 218.011 1610.87 215.789 Q1608.54 213.543 1608.54 209.793 Q1608.54 205.418 1611.45 203.196 Q1614.39 200.974 1620.2 200.974 L1626.17 200.974 L1626.17 200.557 Q1626.17 197.618 1624.23 196.02 Q1622.31 194.4 1618.81 194.4 Q1616.59 194.4 1614.48 194.932 Q1612.38 195.465 1610.43 196.53 L1610.43 192.594 Q1612.77 191.692 1614.97 191.252 Q1617.17 190.789 1619.25 190.789 Q1624.88 190.789 1627.66 193.706 Q1630.43 196.622 1630.43 202.548 Z" fill="#000000" fill-rule="nonzero" fill-opacity="1" /><path clip-path="url(#clip420)" d="M1643.42 184.053 L1643.42 191.414 L1652.19 191.414 L1652.19 194.724 L1643.42 194.724 L1643.42 208.798 Q1643.42 211.969 1644.28 212.872 Q1645.16 213.775 1647.82 213.775 L1652.19 213.775 L1652.19 217.34 L1647.82 217.34 Q1642.89 217.34 1641.01 215.511 Q1639.14 213.659 1639.14 208.798 L1639.14 194.724 L1636.01 194.724 L1636.01 191.414 L1639.14 191.414 L1639.14 184.053 L1643.42 184.053 Z" fill="#000000" fill-rule="nonzero" fill-opacity="1" /><path clip-path="url(#clip420)" d="M1679.97 203.312 L1679.97 205.395 L1660.39 205.395 Q1660.67 209.793 1663.03 212.108 Q1665.41 214.4 1669.65 214.4 Q1672.1 214.4 1674.39 213.798 Q1676.71 213.196 1678.98 211.993 L1678.98 216.02 Q1676.68 216.992 1674.28 217.502 Q1671.87 218.011 1669.39 218.011 Q1663.19 218.011 1659.55 214.4 Q1655.94 210.789 1655.94 204.631 Q1655.94 198.266 1659.37 194.539 Q1662.82 190.789 1668.65 190.789 Q1673.88 190.789 1676.91 194.169 Q1679.97 197.525 1679.97 203.312 M1675.71 202.062 Q1675.66 198.567 1673.74 196.483 Q1671.85 194.4 1668.7 194.4 Q1665.13 194.4 1662.98 196.414 Q1660.85 198.428 1660.53 202.085 L1675.71 202.062 Z" fill="#000000" fill-rule="nonzero" fill-opacity="1" /><polyline clip-path="url(#clip420)" style="stroke:#e26f46; stroke-linecap:round; stroke-linejoin:round; stroke-width:4; stroke-opacity:1; fill:none" points="1357.85,251.9 1460.62,251.9 "/>
<path clip-path="url(#clip420)" d="M1477.75 234.62 L1506.99 234.62 L1506.99 238.555 L1494.72 238.555 L1494.72 269.18 L1490.02 269.18 L1490.02 238.555 L1477.75 238.555 L1477.75 234.62 Z" fill="#000000" fill-rule="nonzero" fill-opacity="1" /><path clip-path="url(#clip420)" d="M1519.37 247.235 Q1518.65 246.819 1517.8 246.634 Q1516.96 246.425 1515.94 246.425 Q1512.33 246.425 1510.39 248.786 Q1508.47 251.124 1508.47 255.522 L1508.47 269.18 L1504.18 269.18 L1504.18 243.254 L1508.47 243.254 L1508.47 247.282 Q1509.81 244.921 1511.96 243.786 Q1514.11 242.629 1517.19 242.629 Q1517.63 242.629 1518.17 242.698 Q1518.7 242.745 1519.35 242.86 L1519.37 247.235 Z" fill="#000000" fill-rule="nonzero" fill-opacity="1" /><path clip-path="url(#clip420)" d="M1523.4 258.948 L1523.4 243.254 L1527.66 243.254 L1527.66 258.786 Q1527.66 262.467 1529.09 264.319 Q1530.53 266.147 1533.4 266.147 Q1536.85 266.147 1538.84 263.948 Q1540.85 261.749 1540.85 257.953 L1540.85 243.254 L1545.11 243.254 L1545.11 269.18 L1540.85 269.18 L1540.85 265.198 Q1539.3 267.559 1537.24 268.717 Q1535.2 269.851 1532.49 269.851 Q1528.03 269.851 1525.71 267.073 Q1523.4 264.295 1523.4 258.948 M1534.11 242.629 L1534.11 242.629 Z" fill="#000000" fill-rule="nonzero" fill-opacity="1" /><path clip-path="url(#clip420)" d="M1576.06 255.152 L1576.06 257.235 L1556.48 257.235 Q1556.75 261.633 1559.11 263.948 Q1561.5 266.24 1565.73 266.24 Q1568.19 266.24 1570.48 265.638 Q1572.8 265.036 1575.06 263.833 L1575.06 267.86 Q1572.77 268.832 1570.36 269.342 Q1567.96 269.851 1565.48 269.851 Q1559.28 269.851 1555.64 266.24 Q1552.03 262.629 1552.03 256.471 Q1552.03 250.106 1555.46 246.379 Q1558.91 242.629 1564.74 242.629 Q1569.97 242.629 1573 246.009 Q1576.06 249.365 1576.06 255.152 M1571.8 253.902 Q1571.75 250.407 1569.83 248.323 Q1567.93 246.24 1564.79 246.24 Q1561.22 246.24 1559.07 248.254 Q1556.94 250.268 1556.61 253.925 L1571.8 253.902 Z" fill="#000000" fill-rule="nonzero" fill-opacity="1" /><path clip-path="url(#clip420)" d="M2011.18 1450.54 L3552.76 1450.54 L3552.76 103.312 L2011.18 103.312  Z" fill="#ffffff" fill-rule="evenodd" fill-opacity="1"/>
<defs>
  <clipPath id="clip423">
    <rect x="2011" y="103" width="1543" height="1348"/>
  </clipPath>
</defs>
<polyline clip-path="url(#clip423)" style="stroke:#000000; stroke-linecap:round; stroke-linejoin:round; stroke-width:2; stroke-opacity:0.1; fill:none" points="2054.81,1450.54 2054.81,103.312 "/>
<polyline clip-path="url(#clip423)" style="stroke:#000000; stroke-linecap:round; stroke-linejoin:round; stroke-width:2; stroke-opacity:0.1; fill:none" points="2418.39,1450.54 2418.39,103.312 "/>
<polyline clip-path="url(#clip423)" style="stroke:#000000; stroke-linecap:round; stroke-linejoin:round; stroke-width:2; stroke-opacity:0.1; fill:none" points="2781.97,1450.54 2781.97,103.312 "/>
<polyline clip-path="url(#clip423)" style="stroke:#000000; stroke-linecap:round; stroke-linejoin:round; stroke-width:2; stroke-opacity:0.1; fill:none" points="3145.55,1450.54 3145.55,103.312 "/>
<polyline clip-path="url(#clip423)" style="stroke:#000000; stroke-linecap:round; stroke-linejoin:round; stroke-width:2; stroke-opacity:0.1; fill:none" points="3509.13,1450.54 3509.13,103.312 "/>
<polyline clip-path="url(#clip420)" style="stroke:#000000; stroke-linecap:round; stroke-linejoin:round; stroke-width:4; stroke-opacity:1; fill:none" points="2011.18,1450.54 3552.76,1450.54 "/>
<polyline clip-path="url(#clip420)" style="stroke:#000000; stroke-linecap:round; stroke-linejoin:round; stroke-width:4; stroke-opacity:1; fill:none" points="2054.81,1450.54 2054.81,1431.64 "/>
<polyline clip-path="url(#clip420)" style="stroke:#000000; stroke-linecap:round; stroke-linejoin:round; stroke-width:4; stroke-opacity:1; fill:none" points="2418.39,1450.54 2418.39,1431.64 "/>
<polyline clip-path="url(#clip420)" style="stroke:#000000; stroke-linecap:round; stroke-linejoin:round; stroke-width:4; stroke-opacity:1; fill:none" points="2781.97,1450.54 2781.97,1431.64 "/>
<polyline clip-path="url(#clip420)" style="stroke:#000000; stroke-linecap:round; stroke-linejoin:round; stroke-width:4; stroke-opacity:1; fill:none" points="3145.55,1450.54 3145.55,1431.64 "/>
<polyline clip-path="url(#clip420)" style="stroke:#000000; stroke-linecap:round; stroke-linejoin:round; stroke-width:4; stroke-opacity:1; fill:none" points="3509.13,1450.54 3509.13,1431.64 "/>
<path clip-path="url(#clip420)" d="M2001.33 1505.71 L2031.01 1505.71 L2031.01 1509.65 L2001.33 1509.65 L2001.33 1505.71 Z" fill="#000000" fill-rule="nonzero" fill-opacity="1" /><path clip-path="url(#clip420)" d="M2041.91 1518.6 L2049.55 1518.6 L2049.55 1492.24 L2041.24 1493.91 L2041.24 1489.65 L2049.51 1487.98 L2054.18 1487.98 L2054.18 1518.6 L2061.82 1518.6 L2061.82 1522.54 L2041.91 1522.54 L2041.91 1518.6 Z" fill="#000000" fill-rule="nonzero" fill-opacity="1" /><path clip-path="url(#clip420)" d="M2071.26 1516.66 L2076.15 1516.66 L2076.15 1522.54 L2071.26 1522.54 L2071.26 1516.66 Z" fill="#000000" fill-rule="nonzero" fill-opacity="1" /><path clip-path="url(#clip420)" d="M2096.33 1491.06 Q2092.72 1491.06 2090.89 1494.62 Q2089.09 1498.16 2089.09 1505.29 Q2089.09 1512.4 2090.89 1515.97 Q2092.72 1519.51 2096.33 1519.51 Q2099.97 1519.51 2101.77 1515.97 Q2103.6 1512.4 2103.6 1505.29 Q2103.6 1498.16 2101.77 1494.62 Q2099.97 1491.06 2096.33 1491.06 M2096.33 1487.35 Q2102.14 1487.35 2105.2 1491.96 Q2108.28 1496.54 2108.28 1505.29 Q2108.28 1514.02 2105.2 1518.63 Q2102.14 1523.21 2096.33 1523.21 Q2090.52 1523.21 2087.45 1518.63 Q2084.39 1514.02 2084.39 1505.29 Q2084.39 1496.54 2087.45 1491.96 Q2090.52 1487.35 2096.33 1487.35 Z" fill="#000000" fill-rule="nonzero" fill-opacity="1" /><path clip-path="url(#clip420)" d="M2365.41 1505.71 L2395.09 1505.71 L2395.09 1509.65 L2365.41 1509.65 L2365.41 1505.71 Z" fill="#000000" fill-rule="nonzero" fill-opacity="1" /><path clip-path="url(#clip420)" d="M2415.18 1491.06 Q2411.57 1491.06 2409.74 1494.62 Q2407.94 1498.16 2407.94 1505.29 Q2407.94 1512.4 2409.74 1515.97 Q2411.57 1519.51 2415.18 1519.51 Q2418.81 1519.51 2420.62 1515.97 Q2422.45 1512.4 2422.45 1505.29 Q2422.45 1498.16 2420.62 1494.62 Q2418.81 1491.06 2415.18 1491.06 M2415.18 1487.35 Q2420.99 1487.35 2424.05 1491.96 Q2427.12 1496.54 2427.12 1505.29 Q2427.12 1514.02 2424.05 1518.63 Q2420.99 1523.21 2415.18 1523.21 Q2409.37 1523.21 2406.29 1518.63 Q2403.24 1514.02 2403.24 1505.29 Q2403.24 1496.54 2406.29 1491.96 Q2409.37 1487.35 2415.18 1487.35 Z" fill="#000000" fill-rule="nonzero" fill-opacity="1" /><path clip-path="url(#clip420)" d="M2435.34 1516.66 L2440.23 1516.66 L2440.23 1522.54 L2435.34 1522.54 L2435.34 1516.66 Z" fill="#000000" fill-rule="nonzero" fill-opacity="1" /><path clip-path="url(#clip420)" d="M2450.46 1487.98 L2468.81 1487.98 L2468.81 1491.92 L2454.74 1491.92 L2454.74 1500.39 Q2455.76 1500.04 2456.78 1499.88 Q2457.8 1499.69 2458.81 1499.69 Q2464.6 1499.69 2467.98 1502.86 Q2471.36 1506.04 2471.36 1511.45 Q2471.36 1517.03 2467.89 1520.13 Q2464.42 1523.21 2458.1 1523.21 Q2455.92 1523.21 2453.65 1522.84 Q2451.41 1522.47 2449 1521.73 L2449 1517.03 Q2451.08 1518.16 2453.31 1518.72 Q2455.53 1519.28 2458 1519.28 Q2462.01 1519.28 2464.35 1517.17 Q2466.68 1515.06 2466.68 1511.45 Q2466.68 1507.84 2464.35 1505.73 Q2462.01 1503.63 2458 1503.63 Q2456.13 1503.63 2454.25 1504.04 Q2452.4 1504.46 2450.46 1505.34 L2450.46 1487.98 Z" fill="#000000" fill-rule="nonzero" fill-opacity="1" /><path clip-path="url(#clip420)" d="M2759.35 1491.06 Q2755.74 1491.06 2753.91 1494.62 Q2752.11 1498.16 2752.11 1505.29 Q2752.11 1512.4 2753.91 1515.97 Q2755.74 1519.51 2759.35 1519.51 Q2762.98 1519.51 2764.79 1515.97 Q2766.62 1512.4 2766.62 1505.29 Q2766.62 1498.16 2764.79 1494.62 Q2762.98 1491.06 2759.35 1491.06 M2759.35 1487.35 Q2765.16 1487.35 2768.22 1491.96 Q2771.3 1496.54 2771.3 1505.29 Q2771.3 1514.02 2768.22 1518.63 Q2765.16 1523.21 2759.35 1523.21 Q2753.54 1523.21 2750.46 1518.63 Q2747.41 1514.02 2747.41 1505.29 Q2747.41 1496.54 2750.46 1491.96 Q2753.54 1487.35 2759.35 1487.35 Z" fill="#000000" fill-rule="nonzero" fill-opacity="1" /><path clip-path="url(#clip420)" d="M2779.51 1516.66 L2784.4 1516.66 L2784.4 1522.54 L2779.51 1522.54 L2779.51 1516.66 Z" fill="#000000" fill-rule="nonzero" fill-opacity="1" /><path clip-path="url(#clip420)" d="M2804.58 1491.06 Q2800.97 1491.06 2799.14 1494.62 Q2797.34 1498.16 2797.34 1505.29 Q2797.34 1512.4 2799.14 1515.97 Q2800.97 1519.51 2804.58 1519.51 Q2808.22 1519.51 2810.02 1515.97 Q2811.85 1512.4 2811.85 1505.29 Q2811.85 1498.16 2810.02 1494.62 Q2808.22 1491.06 2804.58 1491.06 M2804.58 1487.35 Q2810.39 1487.35 2813.45 1491.96 Q2816.53 1496.54 2816.53 1505.29 Q2816.53 1514.02 2813.45 1518.63 Q2810.39 1523.21 2804.58 1523.21 Q2798.77 1523.21 2795.69 1518.63 Q2792.64 1514.02 2792.64 1505.29 Q2792.64 1496.54 2795.69 1491.96 Q2798.77 1487.35 2804.58 1487.35 Z" fill="#000000" fill-rule="nonzero" fill-opacity="1" /><path clip-path="url(#clip420)" d="M3123.43 1491.06 Q3119.82 1491.06 3117.99 1494.62 Q3116.18 1498.16 3116.18 1505.29 Q3116.18 1512.4 3117.99 1515.97 Q3119.82 1519.51 3123.43 1519.51 Q3127.06 1519.51 3128.87 1515.97 Q3130.7 1512.4 3130.7 1505.29 Q3130.7 1498.16 3128.87 1494.62 Q3127.06 1491.06 3123.43 1491.06 M3123.43 1487.35 Q3129.24 1487.35 3132.29 1491.96 Q3135.37 1496.54 3135.37 1505.29 Q3135.37 1514.02 3132.29 1518.63 Q3129.24 1523.21 3123.43 1523.21 Q3117.62 1523.21 3114.54 1518.63 Q3111.48 1514.02 3111.48 1505.29 Q3111.48 1496.54 3114.54 1491.96 Q3117.62 1487.35 3123.43 1487.35 Z" fill="#000000" fill-rule="nonzero" fill-opacity="1" /><path clip-path="url(#clip420)" d="M3143.59 1516.66 L3148.47 1516.66 L3148.47 1522.54 L3143.59 1522.54 L3143.59 1516.66 Z" fill="#000000" fill-rule="nonzero" fill-opacity="1" /><path clip-path="url(#clip420)" d="M3158.71 1487.98 L3177.06 1487.98 L3177.06 1491.92 L3162.99 1491.92 L3162.99 1500.39 Q3164.01 1500.04 3165.03 1499.88 Q3166.04 1499.69 3167.06 1499.69 Q3172.85 1499.69 3176.23 1502.86 Q3179.61 1506.04 3179.61 1511.45 Q3179.61 1517.03 3176.14 1520.13 Q3172.66 1523.21 3166.34 1523.21 Q3164.17 1523.21 3161.9 1522.84 Q3159.66 1522.47 3157.25 1521.73 L3157.25 1517.03 Q3159.33 1518.16 3161.55 1518.72 Q3163.78 1519.28 3166.25 1519.28 Q3170.26 1519.28 3172.59 1517.17 Q3174.93 1515.06 3174.93 1511.45 Q3174.93 1507.84 3172.59 1505.73 Q3170.26 1503.63 3166.25 1503.63 Q3164.38 1503.63 3162.5 1504.04 Q3160.65 1504.46 3158.71 1505.34 L3158.71 1487.98 Z" fill="#000000" fill-rule="nonzero" fill-opacity="1" /><path clip-path="url(#clip420)" d="M3476.28 1518.6 L3483.92 1518.6 L3483.92 1492.24 L3475.61 1493.91 L3475.61 1489.65 L3483.87 1487.98 L3488.55 1487.98 L3488.55 1518.6 L3496.19 1518.6 L3496.19 1522.54 L3476.28 1522.54 L3476.28 1518.6 Z" fill="#000000" fill-rule="nonzero" fill-opacity="1" /><path clip-path="url(#clip420)" d="M3505.63 1516.66 L3510.52 1516.66 L3510.52 1522.54 L3505.63 1522.54 L3505.63 1516.66 Z" fill="#000000" fill-rule="nonzero" fill-opacity="1" /><path clip-path="url(#clip420)" d="M3530.7 1491.06 Q3527.09 1491.06 3525.26 1494.62 Q3523.45 1498.16 3523.45 1505.29 Q3523.45 1512.4 3525.26 1515.97 Q3527.09 1519.51 3530.7 1519.51 Q3534.33 1519.51 3536.14 1515.97 Q3537.97 1512.4 3537.97 1505.29 Q3537.97 1498.16 3536.14 1494.62 Q3534.33 1491.06 3530.7 1491.06 M3530.7 1487.35 Q3536.51 1487.35 3539.57 1491.96 Q3542.64 1496.54 3542.64 1505.29 Q3542.64 1514.02 3539.57 1518.63 Q3536.51 1523.21 3530.7 1523.21 Q3524.89 1523.21 3521.81 1518.63 Q3518.76 1514.02 3518.76 1505.29 Q3518.76 1496.54 3521.81 1491.96 Q3524.89 1487.35 3530.7 1487.35 Z" fill="#000000" fill-rule="nonzero" fill-opacity="1" /><path clip-path="url(#clip420)" d="M2798.58 1577.76 L2785.69 1595.1 L2799.25 1613.4 L2792.34 1613.4 L2781.97 1599.4 L2771.59 1613.4 L2764.68 1613.4 L2778.53 1594.75 L2765.86 1577.76 L2772.77 1577.76 L2782.22 1590.46 L2791.67 1577.76 L2798.58 1577.76 Z" fill="#000000" fill-rule="nonzero" fill-opacity="1" /><polyline clip-path="url(#clip423)" style="stroke:#000000; stroke-linecap:round; stroke-linejoin:round; stroke-width:2; stroke-opacity:0.1; fill:none" points="2011.18,1315.82 3552.76,1315.82 "/>
<polyline clip-path="url(#clip423)" style="stroke:#000000; stroke-linecap:round; stroke-linejoin:round; stroke-width:2; stroke-opacity:0.1; fill:none" points="2011.18,1046.37 3552.76,1046.37 "/>
<polyline clip-path="url(#clip423)" style="stroke:#000000; stroke-linecap:round; stroke-linejoin:round; stroke-width:2; stroke-opacity:0.1; fill:none" points="2011.18,776.926 3552.76,776.926 "/>
<polyline clip-path="url(#clip423)" style="stroke:#000000; stroke-linecap:round; stroke-linejoin:round; stroke-width:2; stroke-opacity:0.1; fill:none" points="2011.18,507.48 3552.76,507.48 "/>
<polyline clip-path="url(#clip423)" style="stroke:#000000; stroke-linecap:round; stroke-linejoin:round; stroke-width:2; stroke-opacity:0.1; fill:none" points="2011.18,238.035 3552.76,238.035 "/>
<polyline clip-path="url(#clip420)" style="stroke:#000000; stroke-linecap:round; stroke-linejoin:round; stroke-width:4; stroke-opacity:1; fill:none" points="2011.18,1450.54 2011.18,103.312 "/>
<polyline clip-path="url(#clip420)" style="stroke:#000000; stroke-linecap:round; stroke-linejoin:round; stroke-width:4; stroke-opacity:1; fill:none" points="2011.18,1315.82 2030.07,1315.82 "/>
<polyline clip-path="url(#clip420)" style="stroke:#000000; stroke-linecap:round; stroke-linejoin:round; stroke-width:4; stroke-opacity:1; fill:none" points="2011.18,1046.37 2030.07,1046.37 "/>
<polyline clip-path="url(#clip420)" style="stroke:#000000; stroke-linecap:round; stroke-linejoin:round; stroke-width:4; stroke-opacity:1; fill:none" points="2011.18,776.926 2030.07,776.926 "/>
<polyline clip-path="url(#clip420)" style="stroke:#000000; stroke-linecap:round; stroke-linejoin:round; stroke-width:4; stroke-opacity:1; fill:none" points="2011.18,507.48 2030.07,507.48 "/>
<polyline clip-path="url(#clip420)" style="stroke:#000000; stroke-linecap:round; stroke-linejoin:round; stroke-width:4; stroke-opacity:1; fill:none" points="2011.18,238.035 2030.07,238.035 "/>
<path clip-path="url(#clip420)" d="M1900.09 1301.62 Q1896.48 1301.62 1894.65 1305.18 Q1892.85 1308.72 1892.85 1315.85 Q1892.85 1322.96 1894.65 1326.52 Q1896.48 1330.06 1900.09 1330.06 Q1903.73 1330.06 1905.53 1326.52 Q1907.36 1322.96 1907.36 1315.85 Q1907.36 1308.72 1905.53 1305.18 Q1903.73 1301.62 1900.09 1301.62 M1900.09 1297.91 Q1905.9 1297.91 1908.96 1302.52 Q1912.04 1307.1 1912.04 1315.85 Q1912.04 1324.58 1908.96 1329.19 Q1905.9 1333.77 1900.09 1333.77 Q1894.28 1333.77 1891.2 1329.19 Q1888.15 1324.58 1888.15 1315.85 Q1888.15 1307.1 1891.2 1302.52 Q1894.28 1297.91 1900.09 1297.91 Z" fill="#000000" fill-rule="nonzero" fill-opacity="1" /><path clip-path="url(#clip420)" d="M1920.26 1327.22 L1925.14 1327.22 L1925.14 1333.1 L1920.26 1333.1 L1920.26 1327.22 Z" fill="#000000" fill-rule="nonzero" fill-opacity="1" /><path clip-path="url(#clip420)" d="M1945.32 1316.69 Q1941.99 1316.69 1940.07 1318.47 Q1938.17 1320.25 1938.17 1323.37 Q1938.17 1326.5 1940.07 1328.28 Q1941.99 1330.06 1945.32 1330.06 Q1948.66 1330.06 1950.58 1328.28 Q1952.5 1326.48 1952.5 1323.37 Q1952.5 1320.25 1950.58 1318.47 Q1948.68 1316.69 1945.32 1316.69 M1940.65 1314.69 Q1937.64 1313.95 1935.95 1311.89 Q1934.28 1309.83 1934.28 1306.87 Q1934.28 1302.73 1937.22 1300.32 Q1940.19 1297.91 1945.32 1297.91 Q1950.49 1297.91 1953.43 1300.32 Q1956.37 1302.73 1956.37 1306.87 Q1956.37 1309.83 1954.68 1311.89 Q1953.01 1313.95 1950.02 1314.69 Q1953.4 1315.48 1955.28 1317.77 Q1957.18 1320.06 1957.18 1323.37 Q1957.18 1328.4 1954.1 1331.08 Q1951.04 1333.77 1945.32 1333.77 Q1939.61 1333.77 1936.53 1331.08 Q1933.47 1328.4 1933.47 1323.37 Q1933.47 1320.06 1935.37 1317.77 Q1937.27 1315.48 1940.65 1314.69 M1938.94 1307.31 Q1938.94 1310 1940.6 1311.5 Q1942.29 1313 1945.32 1313 Q1948.33 1313 1950.02 1311.5 Q1951.74 1310 1951.74 1307.31 Q1951.74 1304.63 1950.02 1303.12 Q1948.33 1301.62 1945.32 1301.62 Q1942.29 1301.62 1940.6 1303.12 Q1938.94 1304.63 1938.94 1307.31 Z" fill="#000000" fill-rule="nonzero" fill-opacity="1" /><path clip-path="url(#clip420)" d="M1900.19 1032.17 Q1896.58 1032.17 1894.75 1035.74 Q1892.94 1039.28 1892.94 1046.41 Q1892.94 1053.51 1894.75 1057.08 Q1896.58 1060.62 1900.19 1060.62 Q1903.82 1060.62 1905.63 1057.08 Q1907.45 1053.51 1907.45 1046.41 Q1907.45 1039.28 1905.63 1035.74 Q1903.82 1032.17 1900.19 1032.17 M1900.19 1028.47 Q1906 1028.47 1909.05 1033.07 Q1912.13 1037.66 1912.13 1046.41 Q1912.13 1055.13 1909.05 1059.74 Q1906 1064.32 1900.19 1064.32 Q1894.38 1064.32 1891.3 1059.74 Q1888.24 1055.13 1888.24 1046.41 Q1888.24 1037.66 1891.3 1033.07 Q1894.38 1028.47 1900.19 1028.47 Z" fill="#000000" fill-rule="nonzero" fill-opacity="1" /><path clip-path="url(#clip420)" d="M1920.35 1057.77 L1925.23 1057.77 L1925.23 1063.65 L1920.35 1063.65 L1920.35 1057.77 Z" fill="#000000" fill-rule="nonzero" fill-opacity="1" /><path clip-path="url(#clip420)" d="M1935.56 1062.93 L1935.56 1058.67 Q1937.32 1059.51 1939.12 1059.95 Q1940.93 1060.39 1942.66 1060.39 Q1947.29 1060.39 1949.72 1057.29 Q1952.18 1054.16 1952.52 1047.82 Q1951.18 1049.81 1949.12 1050.87 Q1947.06 1051.94 1944.56 1051.94 Q1939.38 1051.94 1936.34 1048.81 Q1933.33 1045.67 1933.33 1040.23 Q1933.33 1034.9 1936.48 1031.68 Q1939.63 1028.47 1944.86 1028.47 Q1950.86 1028.47 1954.01 1033.07 Q1957.18 1037.66 1957.18 1046.41 Q1957.18 1054.58 1953.29 1059.46 Q1949.42 1064.32 1942.87 1064.32 Q1941.11 1064.32 1939.31 1063.98 Q1937.5 1063.63 1935.56 1062.93 M1944.86 1048.28 Q1948.01 1048.28 1949.84 1046.13 Q1951.69 1043.98 1951.69 1040.23 Q1951.69 1036.5 1949.84 1034.35 Q1948.01 1032.17 1944.86 1032.17 Q1941.71 1032.17 1939.86 1034.35 Q1938.03 1036.5 1938.03 1040.23 Q1938.03 1043.98 1939.86 1046.13 Q1941.71 1048.28 1944.86 1048.28 Z" fill="#000000" fill-rule="nonzero" fill-opacity="1" /><path clip-path="url(#clip420)" d="M1890.81 790.271 L1898.45 790.271 L1898.45 763.905 L1890.14 765.572 L1890.14 761.313 L1898.4 759.646 L1903.08 759.646 L1903.08 790.271 L1910.72 790.271 L1910.72 794.206 L1890.81 794.206 L1890.81 790.271 Z" fill="#000000" fill-rule="nonzero" fill-opacity="1" /><path clip-path="url(#clip420)" d="M1920.16 788.326 L1925.05 788.326 L1925.05 794.206 L1920.16 794.206 L1920.16 788.326 Z" fill="#000000" fill-rule="nonzero" fill-opacity="1" /><path clip-path="url(#clip420)" d="M1945.23 762.725 Q1941.62 762.725 1939.79 766.289 Q1937.99 769.831 1937.99 776.961 Q1937.99 784.067 1939.79 787.632 Q1941.62 791.174 1945.23 791.174 Q1948.87 791.174 1950.67 787.632 Q1952.5 784.067 1952.5 776.961 Q1952.5 769.831 1950.67 766.289 Q1948.87 762.725 1945.23 762.725 M1945.23 759.021 Q1951.04 759.021 1954.1 763.627 Q1957.18 768.211 1957.18 776.961 Q1957.18 785.688 1954.1 790.294 Q1951.04 794.877 1945.23 794.877 Q1939.42 794.877 1936.34 790.294 Q1933.29 785.688 1933.29 776.961 Q1933.29 768.211 1936.34 763.627 Q1939.42 759.021 1945.23 759.021 Z" fill="#000000" fill-rule="nonzero" fill-opacity="1" /><path clip-path="url(#clip420)" d="M1892.04 520.825 L1899.68 520.825 L1899.68 494.46 L1891.37 496.126 L1891.37 491.867 L1899.63 490.2 L1904.31 490.2 L1904.31 520.825 L1911.95 520.825 L1911.95 524.76 L1892.04 524.76 L1892.04 520.825 Z" fill="#000000" fill-rule="nonzero" fill-opacity="1" /><path clip-path="url(#clip420)" d="M1921.39 518.881 L1926.27 518.881 L1926.27 524.76 L1921.39 524.76 L1921.39 518.881 Z" fill="#000000" fill-rule="nonzero" fill-opacity="1" /><path clip-path="url(#clip420)" d="M1937.27 520.825 L1944.91 520.825 L1944.91 494.46 L1936.6 496.126 L1936.6 491.867 L1944.86 490.2 L1949.54 490.2 L1949.54 520.825 L1957.18 520.825 L1957.18 524.76 L1937.27 524.76 L1937.27 520.825 Z" fill="#000000" fill-rule="nonzero" fill-opacity="1" /><path clip-path="url(#clip420)" d="M1892.41 251.38 L1900.05 251.38 L1900.05 225.014 L1891.74 226.681 L1891.74 222.422 L1900 220.755 L1904.68 220.755 L1904.68 251.38 L1912.32 251.38 L1912.32 255.315 L1892.41 255.315 L1892.41 251.38 Z" fill="#000000" fill-rule="nonzero" fill-opacity="1" /><path clip-path="url(#clip420)" d="M1921.76 249.435 L1926.64 249.435 L1926.64 255.315 L1921.76 255.315 L1921.76 249.435 Z" fill="#000000" fill-rule="nonzero" fill-opacity="1" /><path clip-path="url(#clip420)" d="M1940.86 251.38 L1957.18 251.38 L1957.18 255.315 L1935.23 255.315 L1935.23 251.38 Q1937.89 248.625 1942.48 243.996 Q1947.08 239.343 1948.26 238 Q1950.51 235.477 1951.39 233.741 Q1952.29 231.982 1952.29 230.292 Q1952.29 227.537 1950.35 225.801 Q1948.43 224.065 1945.32 224.065 Q1943.13 224.065 1940.67 224.829 Q1938.24 225.593 1935.46 227.144 L1935.46 222.422 Q1938.29 221.287 1940.74 220.709 Q1943.2 220.13 1945.23 220.13 Q1950.6 220.13 1953.8 222.815 Q1956.99 225.5 1956.99 229.991 Q1956.99 232.121 1956.18 234.042 Q1955.39 235.94 1953.29 238.533 Q1952.71 239.204 1949.61 242.421 Q1946.51 245.616 1940.86 251.38 Z" fill="#000000" fill-rule="nonzero" fill-opacity="1" /><path clip-path="url(#clip420)" d="M1801.66 811.73 Q1795.29 811.73 1791.79 814.372 Q1788.29 816.982 1788.29 821.725 Q1788.29 826.435 1791.79 829.077 Q1795.29 831.687 1801.66 831.687 Q1807.99 831.687 1811.49 829.077 Q1814.99 826.435 1814.99 821.725 Q1814.99 816.982 1811.49 814.372 Q1807.99 811.73 1801.66 811.73 M1815.47 805.874 Q1824.57 805.874 1829 809.916 Q1833.45 813.958 1833.45 822.298 Q1833.45 825.385 1832.97 828.122 Q1832.53 830.859 1831.57 833.438 L1825.88 833.438 Q1827.28 830.859 1827.95 828.345 Q1828.61 825.831 1828.61 823.221 Q1828.61 817.46 1825.59 814.595 Q1822.6 811.73 1816.52 811.73 L1813.62 811.73 Q1816.77 813.545 1818.33 816.377 Q1819.89 819.21 1819.89 823.157 Q1819.89 829.714 1814.9 833.724 Q1809.9 837.734 1801.66 837.734 Q1793.38 837.734 1788.38 833.724 Q1783.39 829.714 1783.39 823.157 Q1783.39 819.21 1784.95 816.377 Q1786.51 813.545 1789.66 811.73 L1784.25 811.73 L1784.25 805.874 L1815.47 805.874 Z" fill="#000000" fill-rule="nonzero" fill-opacity="1" /><path clip-path="url(#clip420)" d="M1770.43 779.743 Q1777.75 784.008 1784.91 786.077 Q1792.08 788.146 1799.43 788.146 Q1806.78 788.146 1814.01 786.077 Q1821.2 783.976 1828.49 779.743 L1828.49 784.835 Q1821.01 789.61 1813.78 791.997 Q1806.56 794.352 1799.43 794.352 Q1792.33 794.352 1785.14 791.997 Q1777.94 789.641 1770.43 784.835 L1770.43 779.743 Z" fill="#000000" fill-rule="nonzero" fill-opacity="1" /><path clip-path="url(#clip420)" d="M1784.25 738.748 L1801.59 751.638 L1819.89 738.079 L1819.89 744.986 L1805.89 755.362 L1819.89 765.738 L1819.89 772.645 L1801.24 758.8 L1784.25 771.467 L1784.25 764.561 L1796.94 755.108 L1784.25 745.654 L1784.25 738.748 Z" fill="#000000" fill-rule="nonzero" fill-opacity="1" /><path clip-path="url(#clip420)" d="M1770.43 730.727 L1770.43 725.634 Q1777.94 720.86 1785.14 718.505 Q1792.33 716.118 1799.43 716.118 Q1806.56 716.118 1813.78 718.505 Q1821.01 720.86 1828.49 725.634 L1828.49 730.727 Q1821.2 726.494 1814.01 724.425 Q1806.78 722.324 1799.43 722.324 Q1792.08 722.324 1784.91 724.425 Q1777.75 726.494 1770.43 730.727 Z" fill="#000000" fill-rule="nonzero" fill-opacity="1" /><path clip-path="url(#clip420)" d="M2491.86 12.096 L2502.88 12.096 L2529.7 62.6918 L2529.7 12.096 L2537.64 12.096 L2537.64 72.576 L2526.62 72.576 L2499.8 21.9802 L2499.8 72.576 L2491.86 72.576 L2491.86 12.096 Z" fill="#000000" fill-rule="nonzero" fill-opacity="1" /><path clip-path="url(#clip420)" d="M2571.18 32.4315 Q2565.18 32.4315 2561.7 37.1306 Q2558.21 41.7891 2558.21 49.9314 Q2558.21 58.0738 2561.66 62.7728 Q2565.14 67.4314 2571.18 67.4314 Q2577.13 67.4314 2580.62 62.7323 Q2584.1 58.0333 2584.1 49.9314 Q2584.1 41.8701 2580.62 37.1711 Q2577.13 32.4315 2571.18 32.4315 M2571.18 26.1121 Q2580.9 26.1121 2586.45 32.4315 Q2592 38.7509 2592 49.9314 Q2592 61.0714 2586.45 67.4314 Q2580.9 73.7508 2571.18 73.7508 Q2561.41 73.7508 2555.87 67.4314 Q2550.36 61.0714 2550.36 49.9314 Q2550.36 38.7509 2555.87 32.4315 Q2561.41 26.1121 2571.18 26.1121 Z" fill="#000000" fill-rule="nonzero" fill-opacity="1" /><path clip-path="url(#clip420)" d="M2604.35 27.2059 L2611.81 27.2059 L2611.81 72.576 L2604.35 72.576 L2604.35 27.2059 M2604.35 9.54393 L2611.81 9.54393 L2611.81 18.9825 L2604.35 18.9825 L2604.35 9.54393 Z" fill="#000000" fill-rule="nonzero" fill-opacity="1" /><path clip-path="url(#clip420)" d="M2656.33 28.5427 L2656.33 35.5912 Q2653.17 33.9709 2649.77 33.1607 Q2646.36 32.3505 2642.72 32.3505 Q2637.17 32.3505 2634.37 34.0519 Q2631.62 35.7533 2631.62 39.156 Q2631.62 41.7486 2633.6 43.2475 Q2635.59 44.7058 2641.58 46.0426 L2644.13 46.6097 Q2652.07 48.3111 2655.4 51.4303 Q2658.76 54.509 2658.76 60.0587 Q2658.76 66.3781 2653.73 70.0644 Q2648.75 73.7508 2640 73.7508 Q2636.36 73.7508 2632.39 73.0216 Q2628.46 72.3329 2624.08 70.9151 L2624.08 63.2184 Q2628.21 65.3654 2632.22 66.4591 Q2636.24 67.5124 2640.16 67.5124 Q2645.43 67.5124 2648.27 65.73 Q2651.1 63.9071 2651.1 60.6258 Q2651.1 57.5877 2649.04 55.9673 Q2647.01 54.3469 2640.08 52.8481 L2637.49 52.2405 Q2630.56 50.7821 2627.49 47.7845 Q2624.41 44.7463 2624.41 39.4801 Q2624.41 33.0797 2628.94 29.5959 Q2633.48 26.1121 2641.83 26.1121 Q2645.96 26.1121 2649.6 26.7198 Q2653.25 27.3274 2656.33 28.5427 Z" fill="#000000" fill-rule="nonzero" fill-opacity="1" /><path clip-path="url(#clip420)" d="M2709.43 48.0275 L2709.43 51.6733 L2675.16 51.6733 Q2675.65 59.3701 2679.78 63.421 Q2683.95 67.4314 2691.37 67.4314 Q2695.66 67.4314 2699.67 66.3781 Q2703.72 65.3249 2707.69 63.2184 L2707.69 70.267 Q2703.68 71.9684 2699.47 72.8596 Q2695.26 73.7508 2690.92 73.7508 Q2680.07 73.7508 2673.71 67.4314 Q2667.39 61.1119 2667.39 50.3365 Q2667.39 39.1965 2673.38 32.6746 Q2679.42 26.1121 2689.63 26.1121 Q2698.78 26.1121 2704.09 32.0264 Q2709.43 37.9003 2709.43 48.0275 M2701.98 45.84 Q2701.9 39.7232 2698.54 36.0774 Q2695.22 32.4315 2689.71 32.4315 Q2683.47 32.4315 2679.7 35.9558 Q2675.97 39.4801 2675.41 45.8805 L2701.98 45.84 Z" fill="#000000" fill-rule="nonzero" fill-opacity="1" /><path clip-path="url(#clip420)" d="M2771.01 9.54393 L2771.01 15.7418 L2763.88 15.7418 Q2759.87 15.7418 2758.29 17.3622 Q2756.75 18.9825 2756.75 23.1955 L2756.75 27.2059 L2769.02 27.2059 L2769.02 32.9987 L2756.75 32.9987 L2756.75 72.576 L2749.26 72.576 L2749.26 32.9987 L2742.13 32.9987 L2742.13 27.2059 L2749.26 27.2059 L2749.26 24.0462 Q2749.26 16.471 2752.78 13.0277 Q2756.3 9.54393 2763.96 9.54393 L2771.01 9.54393 Z" fill="#000000" fill-rule="nonzero" fill-opacity="1" /><path clip-path="url(#clip420)" d="M2776.48 54.671 L2776.48 27.2059 L2783.93 27.2059 L2783.93 54.3874 Q2783.93 60.8284 2786.44 64.0691 Q2788.95 67.2693 2793.98 67.2693 Q2800.01 67.2693 2803.5 63.421 Q2807.02 59.5726 2807.02 52.9291 L2807.02 27.2059 L2814.47 27.2059 L2814.47 72.576 L2807.02 72.576 L2807.02 65.6084 Q2804.31 69.7404 2800.7 71.7658 Q2797.14 73.7508 2792.4 73.7508 Q2784.58 73.7508 2780.53 68.8897 Q2776.48 64.0286 2776.48 54.671 M2795.23 26.1121 L2795.23 26.1121 Z" fill="#000000" fill-rule="nonzero" fill-opacity="1" /><path clip-path="url(#clip420)" d="M2867.54 45.1919 L2867.54 72.576 L2860.09 72.576 L2860.09 45.4349 Q2860.09 38.994 2857.58 35.7938 Q2855.06 32.5936 2850.04 32.5936 Q2844.01 32.5936 2840.52 36.4419 Q2837.04 40.2903 2837.04 46.9338 L2837.04 72.576 L2829.54 72.576 L2829.54 27.2059 L2837.04 27.2059 L2837.04 34.2544 Q2839.71 30.163 2843.32 28.1376 Q2846.96 26.1121 2851.7 26.1121 Q2859.52 26.1121 2863.53 30.9732 Q2867.54 35.7938 2867.54 45.1919 Z" fill="#000000" fill-rule="nonzero" fill-opacity="1" /><path clip-path="url(#clip420)" d="M2915.06 28.9478 L2915.06 35.9153 Q2911.9 34.1734 2908.7 33.3227 Q2905.54 32.4315 2902.3 32.4315 Q2895.05 32.4315 2891.04 37.0496 Q2887.03 41.6271 2887.03 49.9314 Q2887.03 58.2358 2891.04 62.8538 Q2895.05 67.4314 2902.3 67.4314 Q2905.54 67.4314 2908.7 66.5807 Q2911.9 65.6895 2915.06 63.9476 L2915.06 70.8341 Q2911.94 72.2924 2908.58 73.0216 Q2905.26 73.7508 2901.49 73.7508 Q2891.24 73.7508 2885.2 67.3098 Q2879.17 60.8689 2879.17 49.9314 Q2879.17 38.832 2885.24 32.472 Q2891.36 26.1121 2901.97 26.1121 Q2905.42 26.1121 2908.7 26.8413 Q2911.98 27.5299 2915.06 28.9478 Z" fill="#000000" fill-rule="nonzero" fill-opacity="1" /><path clip-path="url(#clip420)" d="M2935.39 14.324 L2935.39 27.2059 L2950.75 27.2059 L2950.75 32.9987 L2935.39 32.9987 L2935.39 57.6282 Q2935.39 63.1779 2936.89 64.7578 Q2938.43 66.3376 2943.09 66.3376 L2950.75 66.3376 L2950.75 72.576 L2943.09 72.576 Q2934.46 72.576 2931.18 69.3758 Q2927.9 66.1351 2927.9 57.6282 L2927.9 32.9987 L2922.43 32.9987 L2922.43 27.2059 L2927.9 27.2059 L2927.9 14.324 L2935.39 14.324 Z" fill="#000000" fill-rule="nonzero" fill-opacity="1" /><path clip-path="url(#clip420)" d="M2960.55 27.2059 L2968 27.2059 L2968 72.576 L2960.55 72.576 L2960.55 27.2059 M2960.55 9.54393 L2968 9.54393 L2968 18.9825 L2960.55 18.9825 L2960.55 9.54393 Z" fill="#000000" fill-rule="nonzero" fill-opacity="1" /><path clip-path="url(#clip420)" d="M3001.18 32.4315 Q2995.19 32.4315 2991.7 37.1306 Q2988.22 41.7891 2988.22 49.9314 Q2988.22 58.0738 2991.66 62.7728 Q2995.15 67.4314 3001.18 67.4314 Q3007.14 67.4314 3010.62 62.7323 Q3014.1 58.0333 3014.1 49.9314 Q3014.1 41.8701 3010.62 37.1711 Q3007.14 32.4315 3001.18 32.4315 M3001.18 26.1121 Q3010.9 26.1121 3016.45 32.4315 Q3022 38.7509 3022 49.9314 Q3022 61.0714 3016.45 67.4314 Q3010.9 73.7508 3001.18 73.7508 Q2991.42 73.7508 2985.87 67.4314 Q2980.36 61.0714 2980.36 49.9314 Q2980.36 38.7509 2985.87 32.4315 Q2991.42 26.1121 3001.18 26.1121 Z" fill="#000000" fill-rule="nonzero" fill-opacity="1" /><path clip-path="url(#clip420)" d="M3072.07 45.1919 L3072.07 72.576 L3064.62 72.576 L3064.62 45.4349 Q3064.62 38.994 3062.11 35.7938 Q3059.6 32.5936 3054.57 32.5936 Q3048.54 32.5936 3045.05 36.4419 Q3041.57 40.2903 3041.57 46.9338 L3041.57 72.576 L3034.07 72.576 L3034.07 27.2059 L3041.57 27.2059 L3041.57 34.2544 Q3044.24 30.163 3047.85 28.1376 Q3051.49 26.1121 3056.23 26.1121 Q3064.05 26.1121 3068.06 30.9732 Q3072.07 35.7938 3072.07 45.1919 Z" fill="#000000" fill-rule="nonzero" fill-opacity="1" /><circle clip-path="url(#clip423)" cx="2054.81" cy="723.234" r="14.4" fill="#009af9" fill-rule="evenodd" fill-opacity="1" stroke="#000000" stroke-opacity="1" stroke-width="3.2"/>
<circle clip-path="url(#clip423)" cx="2131.35" cy="740.755" r="14.4" fill="#009af9" fill-rule="evenodd" fill-opacity="1" stroke="#000000" stroke-opacity="1" stroke-width="3.2"/>
<circle clip-path="url(#clip423)" cx="2207.89" cy="772.773" r="14.4" fill="#009af9" fill-rule="evenodd" fill-opacity="1" stroke="#000000" stroke-opacity="1" stroke-width="3.2"/>
<circle clip-path="url(#clip423)" cx="2284.44" cy="754.634" r="14.4" fill="#009af9" fill-rule="evenodd" fill-opacity="1" stroke="#000000" stroke-opacity="1" stroke-width="3.2"/>
<circle clip-path="url(#clip423)" cx="2360.98" cy="754.794" r="14.4" fill="#009af9" fill-rule="evenodd" fill-opacity="1" stroke="#000000" stroke-opacity="1" stroke-width="3.2"/>
<circle clip-path="url(#clip423)" cx="2437.52" cy="768.959" r="14.4" fill="#009af9" fill-rule="evenodd" fill-opacity="1" stroke="#000000" stroke-opacity="1" stroke-width="3.2"/>
<circle clip-path="url(#clip423)" cx="2514.07" cy="770.635" r="14.4" fill="#009af9" fill-rule="evenodd" fill-opacity="1" stroke="#000000" stroke-opacity="1" stroke-width="3.2"/>
<circle clip-path="url(#clip423)" cx="2590.61" cy="760.72" r="14.4" fill="#009af9" fill-rule="evenodd" fill-opacity="1" stroke="#000000" stroke-opacity="1" stroke-width="3.2"/>
<circle clip-path="url(#clip423)" cx="2667.15" cy="742.117" r="14.4" fill="#009af9" fill-rule="evenodd" fill-opacity="1" stroke="#000000" stroke-opacity="1" stroke-width="3.2"/>
<circle clip-path="url(#clip423)" cx="2743.69" cy="716.97" r="14.4" fill="#009af9" fill-rule="evenodd" fill-opacity="1" stroke="#000000" stroke-opacity="1" stroke-width="3.2"/>
<circle clip-path="url(#clip423)" cx="2820.24" cy="683.637" r="14.4" fill="#009af9" fill-rule="evenodd" fill-opacity="1" stroke="#000000" stroke-opacity="1" stroke-width="3.2"/>
<circle clip-path="url(#clip423)" cx="2896.78" cy="661.429" r="14.4" fill="#009af9" fill-rule="evenodd" fill-opacity="1" stroke="#000000" stroke-opacity="1" stroke-width="3.2"/>
<circle clip-path="url(#clip423)" cx="2973.32" cy="649.868" r="14.4" fill="#009af9" fill-rule="evenodd" fill-opacity="1" stroke="#000000" stroke-opacity="1" stroke-width="3.2"/>
<circle clip-path="url(#clip423)" cx="3049.87" cy="647.602" r="14.4" fill="#009af9" fill-rule="evenodd" fill-opacity="1" stroke="#000000" stroke-opacity="1" stroke-width="3.2"/>
<circle clip-path="url(#clip423)" cx="3126.41" cy="614.558" r="14.4" fill="#009af9" fill-rule="evenodd" fill-opacity="1" stroke="#000000" stroke-opacity="1" stroke-width="3.2"/>
<circle clip-path="url(#clip423)" cx="3202.95" cy="542.977" r="14.4" fill="#009af9" fill-rule="evenodd" fill-opacity="1" stroke="#000000" stroke-opacity="1" stroke-width="3.2"/>
<circle clip-path="url(#clip423)" cx="3279.5" cy="430.092" r="14.4" fill="#009af9" fill-rule="evenodd" fill-opacity="1" stroke="#000000" stroke-opacity="1" stroke-width="3.2"/>
<circle clip-path="url(#clip423)" cx="3356.04" cy="305.871" r="14.4" fill="#009af9" fill-rule="evenodd" fill-opacity="1" stroke="#000000" stroke-opacity="1" stroke-width="3.2"/>
<circle clip-path="url(#clip423)" cx="3432.58" cy="215.211" r="14.4" fill="#009af9" fill-rule="evenodd" fill-opacity="1" stroke="#000000" stroke-opacity="1" stroke-width="3.2"/>
<circle clip-path="url(#clip423)" cx="3509.13" cy="172.246" r="14.4" fill="#009af9" fill-rule="evenodd" fill-opacity="1" stroke="#000000" stroke-opacity="1" stroke-width="3.2"/>
<polyline clip-path="url(#clip423)" style="stroke:#e26f46; stroke-linecap:round; stroke-linejoin:round; stroke-width:4; stroke-opacity:1; fill:none" points="2054.81,776.926 2064.27,776.926 2151.82,776.926 2204.44,776.926 2248.92,776.926 2297.24,776.926 2341.79,776.926 2389.55,776.926 2444.89,776.926 2494.06,776.926 2537.19,776.926 2584.2,776.926 2631.5,776.926 2683.79,776.926 2733.54,776.926 2759.41,776.926 2785.27,776.912 2807.05,776.125 2828.82,774.129 2842.11,772.318 2855.4,770.056 2868.69,767.344 2881.99,764.182 2906.34,757.22 2930.69,748.748 2953.18,739.582 2975.67,729.126 2998.45,717.221 3021.23,703.993 3046.77,687.597 3072.3,669.54 3095.44,651.743 3118.57,632.582 3131.82,621 3145.06,608.97 3158.31,596.493 3171.55,583.569 3196.08,558.456 3220.61,531.811 3244.79,504.041 3268.97,474.781 3292.45,444.947 3315.93,413.708 3339.99,380.227 3364.06,345.27 3377.25,325.494 3390.43,305.276 3403.61,284.614 3416.8,263.51 3435.95,232.064 3455.1,199.682 3474.26,166.367 3493.41,132.116 3497.34,124.974 3501.27,117.793 3505.2,110.572 3509.13,103.312 "/>
</svg>
